/* XPM */
static char *bf2df5483ae14150a5d3a9a6492cce28W76Q9tVUEHV0VaWX[] = {
/* columns rows colors chars-per-pixel */
"64 64 223 2 ",
"   c #0B0A00",
".  c #080501",
"X  c #110F03",
"o  c #1B1A0D",
"O  c #16150A",
"+  c #1D1C13",
"@  c #1A1F18",
"#  c #0D1108",
"$  c #271E15",
"%  c #291E13",
"&  c #1E2117",
"*  c #242215",
"=  c #25231B",
"-  c #29251B",
";  c #2C2A1E",
":  c #2A2812",
">  c #3B2D1C",
",  c #32291B",
"<  c #34361A",
"1  c #2A2D14",
"2  c #2C2B23",
"3  c #292826",
"4  c #322B24",
"5  c #3C2C29",
"6  c #392C26",
"7  c #2E322B",
"8  c #333222",
"9  c #34332C",
"0  c #3A352C",
"q  c #3C3A2D",
"w  c #393724",
"e  c #3D3C33",
"r  c #363A37",
"t  c #2D3835",
"y  c #1C2721",
"u  c #4C371B",
"i  c #4A3E2A",
"p  c #463626",
"a  c #473735",
"s  c #553C39",
"d  c #4B372B",
"f  c #3C4230",
"g  c #464828",
"h  c #58442B",
"j  c #51572F",
"k  c #434235",
"l  c #45443A",
"z  c #4A493E",
"x  c #4A463B",
"c  c #5A4638",
"v  c #545A33",
"b  c #575C35",
"n  c #4D5430",
"m  c #624B2D",
"M  c #644D34",
"N  c #654A36",
"B  c #6B553A",
"V  c #6B5539",
"C  c #75593B",
"Z  c #6E532F",
"A  c #5B6137",
"S  c #666D3E",
"D  c #686E3E",
"F  c #62673E",
"G  c #6A713F",
"H  c #343D41",
"J  c #413A41",
"K  c #3A4646",
"L  c #3E5054",
"P  c #494A47",
"I  c #554A44",
"U  c #545246",
"Y  c #565449",
"T  c #58564A",
"R  c #5B594D",
"E  c #5A5849",
"W  c #4D4A54",
"Q  c #524D55",
"!  c #435353",
"~  c #47575A",
"^  c #5E5D51",
"/  c #55525C",
"(  c #58555A",
")  c #654A4C",
"_  c #6A4D4E",
"`  c #624645",
"'  c #635A4E",
"]  c #755D41",
"[  c #7B5E42",
"{  c #6C4F51",
"}  c #674D50",
"|  c #6D5052",
" . c #615E52",
".. c #725355",
"X. c #755559",
"o. c #7B5A5B",
"O. c #78575A",
"+. c #666D41",
"@. c #686E41",
"#. c #63604F",
"$. c #7A6244",
"%. c #7A6346",
"&. c #6C7242",
"*. c #737B46",
"=. c #757D49",
"-. c #737A45",
";. c #636255",
":. c #66645A",
">. c #6C695D",
",. c #686759",
"<. c #716F5E",
"1. c #5B5862",
"2. c #4C5F64",
"3. c #615E66",
"4. c #7D5D60",
"5. c #53686C",
"6. c #5A6E74",
"7. c #546D72",
"8. c #5B7276",
"9. c #5D747A",
"0. c #5D777C",
"q. c #4D6468",
"w. c #64636B",
"e. c #6A6768",
"r. c #726E65",
"t. c #747265",
"y. c #79766B",
"u. c #6C6A73",
"i. c #726D75",
"p. c #60767C",
"a. c #61787E",
"s. c #797677",
"d. c #84643B",
"f. c #8D6D4D",
"g. c #856748",
"h. c #916F4D",
"j. c #8E704E",
"k. c #92704E",
"l. c #9B744F",
"z. c #8D6F50",
"x. c #906F50",
"c. c #8F7151",
"v. c #947352",
"b. c #9A7652",
"n. c #9D7954",
"m. c #9E7B59",
"M. c #A17C56",
"N. c #A47E59",
"B. c #A17653",
"V. c #815E60",
"C. c #807D73",
"Z. c #846967",
"A. c #7B834B",
"S. c #818A4F",
"D. c #858E52",
"F. c #A5815B",
"G. c #AA835C",
"H. c #AC895F",
"J. c #88867A",
"K. c #918E7E",
"L. c #B18B63",
"P. c #5E7981",
"I. c #627C83",
"U. c #677E86",
"Y. c #7B7784",
"T. c #817E89",
"R. c #67828B",
"E. c #6C8791",
"W. c #6D8993",
"Q. c #728C96",
"!. c #75929D",
"~. c #84828C",
"^. c #858483",
"/. c #969385",
"(. c #999686",
"). c #9B9887",
"_. c #9A9788",
"`. c #9C998A",
"'. c #8D8B9B",
"]. c #898794",
"[. c #918E9B",
"{. c #98949C",
"}. c #928F81",
"|. c #A19E8E",
" X c #A29F90",
".X c #A5A294",
"XX c #ADAA9B",
"oX c #A9A698",
"OX c #B1AC9D",
"+X c #B2B09F",
"@X c #928DA2",
"#X c #9D99AA",
"$X c #9A96A4",
"%X c #9F9CB1",
"&X c #A29EAC",
"*X c #A09CA5",
"=X c #A19DB2",
"-X c #A8A5AC",
";X c #B2AEA2",
":X c #B5B3A5",
">X c #BBB8AB",
",X c #A6A2B2",
"<X c #AAA6B5",
"1X c #ACA9B6",
"2X c #AEAAB9",
"3X c #ABA6BA",
"4X c #B2ADBC",
"5X c #B5B1BD",
"6X c #B9B6BF",
"7X c #C5C3B6",
"8X c #B2AEC3",
"9X c #B6B2C2",
"0X c #BAB6CB",
"qX c #BDBACB",
"wX c #BAB7C6",
"eX c #B8B4CB",
"rX c #C1BDCE",
"tX c #C0B7CC",
"yX c #C2BED1",
"uX c #C5BFD9",
"iX c #C8C4D7",
"pX c #D2CEE3",
"aX c #D3CFE6",
/* pixels */
", c %.$.$.$.$.$.] $.] ] C ] ] p + 0 e 0 e k z x x l a e e e 0 & w ] $.[ ] $.$.$.[ $.%.%.] $.C % U t.Y y.>.:.:.t.y.t.>.:.^ :.U & ",
"w G.L.F.M.F.M.N.F.F.N.F.F.F.G.M 2 :.r.,.>.>.>.>.>.>.>.>.,.>.^ 3 C L.N.N.F.N.N.N.N.F.M.G.f.f.L.> :.:X;X>X:X:X:X>X>X>X>X:X:X>X;Xf ",
"* f.M.h.f.j.f.h.f.f.f.x.f.v.g.h 9 ;.#.R R T U U U U T R T  .E 3 B F.g.x.f.j.f.h.f.h.f.h.f.v.k.p Q ;XoX/._.`._././._./.`.`.oX`.k ",
"* B F.f.f.v.h.h.f.j.k.f.z.v.f.h 2  .;.R T T T T E E R P U E U 3 B F.z.x.h.f.k.h.f.h.v.f.j.b.g.> y.:X/._.`.`._.`._.`.`._.`.`._.f ",
"+ B F.h.x.h.v.f.k.f.k.k.h.k.b.h 2 l l z P Y E Y T T T U Y T Y 3 V F.h.h.h.f.v.k.k.k.h.k.h.k.g.> y.+X_._._._._.`.`._.`.`.`. X Xk ",
"o $.N.h.h.h.k.k.h.h.h.k.h.h.m.N 2 P U U R R T R T T T R T R Y 3 V G.f.k.h.k.k.f.h.k.h.k.h.f.[ > y.XX_._.`.`._.`._._.`._.`..X`.k ",
"w F.b.l.l.l.l.b.l.b.l.l.l.l.F.V 3 ;.>. .R ^ E E T T Y T Y R Y 3 m M.b.b.l.b.b.l.N.l.B.l.h g.l.p y.-X`.`.`._._.`.`._._.`.`..X`.k ",
": u M M M M c m M M M N V B Z , 2 R R Y Y E Y E T T T T T R T 9 % i V V M M M M u h N i i m h * A.<X`.`.`.`._.`.`.`.`._.`.`.}.e ",
"2 u.$X'.'.].].].].'.'.'.[.'.~.W ; R ^ Y R Y R E E T Y Y T R Y - I &X[.@X'.[.[.~.5.e.].].[.[.Y.+ y.XX_.`.).`.`.`.`._.`.`.)..XJ.e ",
"( aXrXqXqXqXqXqXqXqXqXqXqXwXrXQ.; R ^ Y Y R U Y U U E E T T Y * ].aXqXwXqXtXwXiXiXtXwXiXrXiX3X7 y.;X(._.`.`.`.`.`._.`.`._..X/.q ",
"P 3XwX<X1X<X1X1X1X2X1X1X1X4XrXY.; ^ R T T R P I Y Y E E U R U * Q 9X5X1X<X2X2X<X1X1X<X1X<X4X4XQ <.OX_._.`.`.`.`._. XJ.K..X|.(.f ",
"P 0X9X1X1X1X1X1X1X1X1X1X1X2X0Xi.4  .R T Y Y E T T T R I Y R U 2   ].rX1X<X2X2X1X1X1X1X1X<X4X8XW r.XX(.).`.`.`.`.`.`.`.>.oXy.C.P ",
"Q qX1X<X2X2X1X2X1X3X1X3X1X<XtXs.2  .T Y Y E E Y Y ^ U z R R Y ; * -XtX<X2X1X1X2X1X1X1X2X1X4X8XQ <.+X).|.).`.`.).`._..Xy.,.Y y.;.",
"Q iX1X<X4X,X&XwX4X2X2X8X4X9X<X1.0  .^ R R R R R  .E l E R  .T + s.pX<X2X1X4X2X1X2X2X2X1X<X4XyX( R oX.X.X.X.X.XoXoXoX|.oXC.p x k ",
"~ pXrXrXqXwXqX$X8XrXqXqXqXiX3X3.4 R R T Y Y Y R P k U R T R P $ ].aXwXtXqXqXqXqXrXqXqXwX0XtXiX1.* ;.,.#.,.,.;.t.t.r.r.r.y.R X o ",
"; 1.u.e.e.u.i.e Q u.w.w.3.3.i.P O 3 4 3 9 3 4 4 * 2 2 ; 2 8 - o r i.e.w.e.w.w.w.e.3.3.e.e.i.3.4 X $ ; ; $ * = O o o o + + : * * ",
"o d _ ` N ` c _ ` ` ` ` s s s $ 5 N j n g h n : l y.r.e.#.,.t.< @ K ! ! ! ! ~ 2.q.2.~ ! L L K O s.&XT.Y.'.3X&XJ i g.g.g.C l.g # ",
"5 V.V.O.O.O.O.o.O.X.X.O.V.V.V.5 b S.-.=.=.=.A.f J.7XoX;X.XXX:Xk t Q.!.Q.W.!.Q.W.W.W.W.W.Q.!.R.K &X9X8X8XrXrXyXi.d.G.F.B.F.H.g.- ",
"a o.{ { { _ _ { { } _ _ _ _ X.a b -.+.F S S G g J.oX/.).`.`.XX' 3 R.9.8.8.7.6.7.8.6.7.8.8.0.7.P ].'.4X8X1X<XtXs.d.h.f.f.f.h.M.h ",
"6 X.| { { { { { { { { { { { X.s b -.+.+.S G G g C.oX).`.`.`.XX' y I.I.p.0.9.p.9.8.9.0.0.0.R.7.K ].'.2X4X1X3X0Xr.d.l.f.f.b.] C x ",
"4 O.| { { { { { { { { { { { X.a b &.A +.S S &.g y.XX).`.).`.oX' @ P.P.8.9.9.9.9.9.9.8.6.q.( K 8 [.[.4X2X2X2X0Xi.d.k.h.v.m.N [ c ",
"2 ..O.{ { { { { { { { { { { X.a A &.A &.S S &.g J.oX).`.`.).oXE O P.U.8.9.9.8.9.a.I.p.p.8.0.q.r {.,X2X<X1X1X0Xi.d.x.h.x.h.b.b.i ",
"4 { O._ | { { { { { { { _ { X.a v *.S S S G G g C.XX).`.`.|.oXR   7.U.9.p.p.8.p.9.9.9.9.P.R.7.r *XtX<X2X1X1X0Xi.d.h.f.k.g.g.b.i ",
"4 { O._ { { | ..` _ { { { { X.a j *.S G S &.&.g s.XX).).`.).oX' . 2.R.9.9.9.8.9.9.9.9.9.9.I.7.H {.tX<X2X<X2X0Xr.C l.k.x.z.C b.i ",
", } ..} { { ..` ) ..{ { .._ X.a j G S S S S &.g A.;X_._.).`.XX .. ~ W.6.p.9.9.9.8.9.p.9.9.a.7.r {.qX1X2X3X3XeXe.C l.h.k.c.b.n.i ",
"4 ) { { { ..I ) ..{ { { _ { X.a v A.+.F G S G g Y.;X_._.`.).XX;.. ! E.8.9.8.p.9.9.9.9.9.9.a.7.r  XwX1X1X4X4X0Xe.d.M.f.h.k.k.b.i ",
"4 ) _ _ X.I I ..{ { { { .._ X.a n *.S S S G G g s.oX_.`.).|.XX;.  ~ W.9.9.p.p.8.p.p.9.p.9.I.P.K @XtX1X1X<X4XeXi.Z B b.k.h.k.b.i ",
"4 I | ..s ` O.{ { { { { { ..X.a j A.+.+.G G G g s.;X`._.).).XX;.  1.E.8.8.8.p.9.8.9.8.9.9.9.! - *X0X1X4X<X@XeXZ.Z C b.h.x.x.b.g ",
"4 X...s s X.{ { { { { { { ....5 v *.S S A G G g A.1X`.`.`.`.XX' # 9.R.8.9.9.9.9.8.9.p.6.9.U.K + *XqX2X1X&X*X8Xi.d.n.f.h.h.x.B.i ",
"6 c a c X...X...{ ........X.} 5 A A.D S S G G n J.>X`.`.|.`.+X;.y U.!.U.U.E.R.U.R.U.W.6.U.W.E.K {.iX2X1X3X8XuXC.g.n.b.b.b.B.n.i ",
"= o 6 _ _ _ { { { { { ..{ { ) 5 f *.G G G G G g r.`.|..X.XoX+XR O H ~ L P ! K K K K ! r K ~ W 3 Y.8X[.'.#X%XeX/ Z h.f.g.g.g.g.w ",
"$ X % - * % $ % % % % % % % % $ & 1 1 1 1 : 1 X + 8 w 0 q q w - o . . . . . . . . . .   . . . + = 3 4 3 3 3 3 X O % = $ - $ $ $ ",
"; K ~ ! ! ! ! ! ! ! ! L L L L 3 $ W / W / 1.w.e.e.Q W W W W W = , M V V V B B B B B ] B B ] M * 1 < 1 u < 1 1 g g f f < 1 8 1 @ ",
"9 W.!.R.E.E.W.W.E.R.W.W.E.W.W.K W uXuXqXrXiXiXiXiXiXrXrXeXuXeXW m L.G.F.F.F.G.F.F.G.F.G.c.z.L.p n =.A.A.A.A.A.D.D.A.A.A.A.A.*.; ",
"* 8.R.8.8.8.8.9.8.8.8.8.8.0.7.t 1.yXiX>X6X4X<X1X1X2X4XwX8XtXeX2.M F.g.f.f.z.z.z.h.g.f.h.f.j.v.p f A.A.A &.&.&.@.S S D G &.A.G w ",
"* 2.W.8.9.9.8.9.p.8.9.9.9.a.8.H / tXtX4X3X1X1X1X1X1X4X$X,X4X8X/ m G.h.k.h.h.h.x.f.h.h.h.c.v.f.5 j A.S G S S S S S S S S S +.S < ",
"+ ( W.8.9.8.0.9.8.8.9.p.9.P.0.f Q ].].$X,X<X1X1X1X2X1X&X<X5X8X/ m N.f.z.h.f.h.h.x.h.h.x.h.b.g.6 j A.A &.+.@.S @.S S S +.G @.@.8 ",
"o q.E.8.8.8.8.0.0.9.p.8.8.P.I.K Q ~.T.[.&X<X1X2X1X1X1X4X1X5X8X/ m G.f.f.h.h.h.h.z.f.h.k.b.h.g.5 j *.S +.+.+.S @.@.+.S +.S G G 8 ",
"H U.R.A.I.R.I.I.a.R.R.I.R.P.E.L W yXiX6X4X2X2X4X2X<X1X1X2X4X8X1.h N.B.n.n.B.n.n.B.B.N.k.M g.n.p j *.A +.+.S S S S @.@.G @.&.G < ",
"y L L L L L L L L L L L L ~ L y Q 4X6X1X1X1X<X<X1X2X2X1X3X4X3X1.: m C C B C B V Z B C M i M N ; v A.+.+.S @.+.S S S +.@.+.&.A 8 ",
"y Q C.y.t.t.<.t.t.y.y.y.C.y.<.< Q 9X9X<X3X2X2X2X2X4X1X2X1X5X8X1.$ z z l z z l f 9 0 f P P x 0 @ b =.S @.S @.S D +.S S S S &.A 8 ",
"P >X:XOXOXoXOXOXXX+XOXOXOX.XXX%.Q 8X6X1X<X4X<X1X&X,X1X2X4X5X3X( q r.R ^ ^ ^ ^ ^ :. .;. . .,.Y $ b =.S +.S D S S S +.S +.&.&.A 8 ",
"a `..X)._.`.).).(._._._.|.(.oX' Q 0X4X2X2X4X$X$X1X-X4X2X#X<X1X1.; R R T T Y Y Y Y Y Y Y T T I 2 b =.S S @.D S D +.S S S S &.A 8 ",
"l oX.X`.).).).`.`.`.`.`.(.|..X' / qX4X<X<X<X<X<X2X2X5X{.{.5X2X1.X l ;.T Y E R E R T T T Y ^ R 3 b =.S +.+.+.S S +.+.S G S &.S 8 ",
"l ;X`.(.`.`.`.`._.`._.).`.`.oX' ( qX2X2X2X1X2X1X<X0X#XT.9X4X8X1.X E ;.Y T T Y Y Y T R Y E R Y 3 b =.F D S S S S D D G G S &.A.1 ",
"P ;X_./.`./.K..X|.`.`.`.`.|.).n 3.tX5X4X4X4X5X2XqX1Xs.-X9X8X8X/ q >.U Y Y E E R E E Y R Y E ^ 7 j =.D D G G G G D D G G S G A.7 ",
"U >X;XXXXX.XoX)..XXXXXoXXX:X).x 1.uXtX9X8X9X9X0X<XT.,XuXeXyXeX1.e >.Y ^ R T ^ R R T ^ R R ^ ^ 9 g D G @.G G G S &.&.G G &.*.S < ",
"2 ^ :.:.;.,.>.9 P :.;.;.;.;.e.f o 1.w.w.3./ ( w.e 1.Y.w.w.u.w.9 * w w 0 q 0 9 9 9 0 9 9 w 0 0 + O < < < < < < g g p g < g g < & ",
"+ : > > 8 > p i p i p > > > > O r 3.( / / i.i.7 o p p a 5 d - X = y.`.J.^.J.J.J.J.J.J.J.J.C.,.; T Y.i.w.3.u.3.3 t W K K H L H $ ",
"> c.H.F.N.F.F.H.H.L.G.M.F.F.H.u ].iX<X3X9XiXpXi.s o.O.O.X.V.` . U 7X>X;X:X:X:X:X:X;X;X:X:X>XOXr.2XpXiXtXtXuXtX/ 7.Q.E.E.P.!.9.3 ",
"6 m.H.b.b.n.b.h.h.h.h.b.n.n.F.h '.=X-XqX6X<XtXT.s X.} _ { X.X., Y :X/./.).).)././.(./.)././.`.y.,X4X<X2X4X4X9Xw.7.9.8.9.I.I.9.9 ",
"; f.b.f.f.f.h.h.h.h.h.h.k.b.b.h Y.@X,X2X1X1XrXY.s X.{ { { ) } 5 U oX`._._.)._.`._.`._.).`.`.`.y.&X4X4X1X3X4X9Xe.7.9.9.9.p.9.P.t ",
"* g.m.f.h.h.x.h.j.f.f.f.g.$.M , ~.$X&X4X1X1XrXE.s O.{ { X.s s 5 z oX`.`.`._.`._.`.`.`.`.`.`.).y.,X<X#X4X1X4X4X3.5.9.9.8.9.I.9.9 ",
"+ C M.f.h.h.h.h.v.v.j.f.g.%.C , ~.=X,X4X1X1XrXY.s X.{ { { ) { 5 l .X.X`.`.`.`.`.`.`./._.).`.`.y.,X#X#X4X2X2X5X5.7.9.9.p.8.I.P.7 ",
"o B N.h.z.h.h.j.c.k.v.b.n.F.F.h ~.tX1X2X3X1XqXY.s ..{ _ { { O.5 f .X X_.`._._.`.`.}./.`.`.`.`.y.&X4X1X1X1X4X4Xw.5.P.p.8.6.P.8.7 ",
"# b F.x.h.h.h.h.f.v.f.k.f.j.f.u ^.iX1X2X2X2XqXs.s X.{ { ..s | 5 f  X`._.`._.|.`.J./.`.`.`.`.|.y.#X5X1X2X1X4X4Xw.5.9.9.9.9.P.P.7 ",
"# h F.h.f.v.h.h.h.h.f.k.h.v.h.p ~.iX<X2X1X1XqXY.s O.{ { { { ..5 f {._./._. X`.A.K.|.).`.`.`.|.y.{.<X4X2X2X2X4X5.5.9.9.9.9.I.9.9 ",
"# i N.h.h.f.j.h.j.h.j.k.h.v.l.u ~.rX1X1X2X1X0XY.s O.{ { { { ..5 f `././. X`.y.[. X_.`.`.`.`.`.t.*X5X<X2X<X4X4Xw.7.0.9.9.9.0.P.9 ",
"O k N.z.j.h.f.h.j.h.h.f.k.k.b.h ~.rX<X1X2X2XiXs.s ) { { { { ..p k K.J. X`.r.}. X).`._.`.).`.|.t.*X8X<X1X2X2X4Xw.5.0.9.9.9.p.P.7 ",
"O c F.h.h.h.v.f.h.h.h.v.h.g.h.p T.iX1X<X2X#XwXY.a s { { { { ..5 e K._.oX,.^..X_.`.`._.`.).).`.r.*X9X2X2X1X4X4X1.7.9.9.9.9.p.I.t ",
"o V F.f.v.f.k.h.j.j.k.k.f.v.V X T.iX3X4X,X[.8XT.s X.{ { { { X.4 T oXJ.,.C.OX).`.).).).`.(.|./.e.=X9X3X1X<X4X9Xe.5.0.9.9.9.p.I.t ",
"- z.H.v.n.b.n.m.M.n.F.j.k.L.n.u T.uX8X9X,X3XtXT.s O...{ { X.O.a f z q y..X|..X|..X|..X|..X.XJ.:.,X9X4X<X<X4XtXu.7.I.9.9.p.p.I.0 ",
": c g.g.C g.$.B ] C %.M V f.f.u Y.pX3X=XeX8XaXT.a X.X.....{ ..a     ,.K.y.J.J.J.J.J.J.J.J.J.r.x &XuX0X0X9XyXtX6.2.7.U.I.U.R.I.7 ",
"* + * = @ = $ @ o + + + + & - $ a 3./ Q / ( w.r $ a a 5 a 0 5 2 + = 8 8 ; ; - - ; ; ; ; ; , 4 o P e.3.3.3.3.3.3 t f K K K K H - "
};
