/* XPM */
static char *_492a8b21aee4c9fee058241704612a1O25K1FeajqCxaOJB[] = {
/* columns rows colors chars-per-pixel */
"64 64 184 2 ",
"   c #040100",
".  c #150400",
"X  c #180700",
"o  c #1B0C04",
"O  c #1D0F0A",
"+  c #1E1006",
"@  c #1D110A",
"#  c #220D02",
"$  c #2A0F06",
"%  c #210F08",
"&  c #251306",
"*  c #2A1406",
"=  c #24140C",
"-  c #29160C",
";  c #26180D",
":  c #2C190D",
">  c #391D0F",
",  c #251611",
"<  c #281710",
"1  c #2C1B12",
"2  c #321E14",
"3  c #391F11",
"4  c #321F18",
"5  c #35200F",
"6  c #2E2016",
"7  c #362213",
"8  c #392113",
"9  c #352318",
"0  c #3A261C",
"q  c #3C2A1D",
"w  c #3D2C22",
"e  c #3F3126",
"r  c #442C1D",
"t  c #422E23",
"y  c #492E22",
"u  c #443225",
"i  c #4B3425",
"p  c #453329",
"a  c #4A362A",
"s  c #45392D",
"d  c #4D3A2D",
"f  c #503627",
"g  c #523827",
"h  c #513728",
"j  c #523B2C",
"k  c #5B3F2E",
"l  c #4E3D31",
"z  c #523E32",
"x  c #5C412E",
"c  c #554234",
"v  c #594436",
"b  c #574439",
"n  c #5B4639",
"m  c #5E4A3C",
"M  c #624632",
"N  c #634834",
"B  c #684934",
"V  c #624C3D",
"C  c #694C3C",
"Z  c #65503F",
"A  c #6D543E",
"S  c #5F4E40",
"D  c #634E41",
"F  c #694F41",
"G  c #665243",
"H  c #6B5444",
"J  c #6D5846",
"K  c #675348",
"L  c #6B5648",
"P  c #6D594A",
"I  c #715645",
"U  c #725946",
"Y  c #725748",
"T  c #735B4B",
"R  c #795E4C",
"E  c #755E51",
"W  c #74604F",
"Q  c #7C624E",
"!  c #766252",
"~  c #7C6453",
"^  c #7E6956",
"/  c #7E6759",
"(  c #7E6959",
")  c #82634E",
"_  c #816653",
"`  c #836A56",
"'  c #896C57",
"]  c #826658",
"[  c #846C5B",
"{  c #8A6E5B",
"}  c #906F5D",
"|  c #85715E",
" . c #8D725D",
".. c #927057",
"X. c #92735E",
"o. c #8B6F61",
"O. c #877361",
"+. c #8C7462",
"@. c #8E7965",
"#. c #8F7D69",
"$. c #937562",
"%. c #987764",
"&. c #957A65",
"*. c #9A7C66",
"=. c #947C6A",
"-. c #9B7E6A",
";. c #A17F6B",
":. c #95816C",
">. c #9D826C",
",. c #958271",
"<. c #9D8472",
"1. c #9E8974",
"2. c #A2846E",
"3. c #A9866F",
"4. c #A6886E",
"5. c #A38671",
"6. c #A58A74",
"7. c #AA8B75",
"8. c #A48C7A",
"9. c #AC8E79",
"0. c #B28E7A",
"q. c #AC9077",
"w. c #A6907B",
"e. c #AC927C",
"r. c #AF9A7F",
"t. c #B39177",
"y. c #B2937D",
"u. c #B2987E",
"i. c #BB987F",
"p. c #AD9681",
"a. c #AE9883",
"s. c #B39681",
"d. c #B99682",
"f. c #B59A83",
"g. c #BA9C85",
"h. c #B69E88",
"j. c #BE9F8A",
"k. c #BF9E89",
"l. c #BB9E89",
"z. c #BAA086",
"x. c #B7A18B",
"c. c #BBA18A",
"v. c #BDA189",
"b. c #BCA08B",
"n. c #BEA38A",
"m. c #BEA48B",
"M. c #BCA48A",
"N. c #BEA28C",
"B. c #BFA58D",
"V. c #BDA58D",
"C. c #BDA28C",
"Z. c #BEA590",
"A. c #C29E86",
"S. c #C2A087",
"D. c #C1A48D",
"F. c #C2A98F",
"G. c #C2A691",
"H. c #C7AB95",
"J. c #C7AF97",
"K. c #C6AC95",
"L. c #C4AA92",
"P. c #C9AD97",
"I. c #C9AD95",
"U. c #C9AD95",
"Y. c #CBAF99",
"T. c #C9AF98",
"R. c #CBB196",
"E. c #CEB297",
"W. c #CBB196",
"Q. c #CEB49B",
"!. c #CDB199",
"~. c #D1B69E",
"^. c #D1B69D",
"/. c #D4B99E",
"(. c #D3B7A1",
"). c #D2B7A0",
"_. c #D5BAA1",
"`. c #D7BBA5",
"'. c #D4BBA3",
"]. c #D8BDA2",
"[. c #D9BDA5",
"{. c #D9BFA5",
"}. c #DDC1A6",
"|. c #DCC3AA",
/* pixels */
"5.h.V 8.y.' 9.K H 9.e.V.~ z l.q.>.h.V 7.r.' 7.G I 7.e.B.! c k.9.>.h.D 8.e.' 9.D I 9.9.V.! c k.9.2.f.S 8.y.{ 7.G I 7.e.n.! c j.e.",
"2.f.e.c p.6.X.s.m Q y.e.V.H m V.6.g.w.c a.5.$.y.m Q e.e.D.G m V.5.g.e.c s.6.$.p.m ~ 9.s.n.H V D.6.g.8.v a.>.X.u.m ~ e.r.n.F V V.",
"g.+.k.>.m L.5.>.e.b $.9.p.v.c ! L.X.m.,.K P.2.2.e.b  .e.r.k.c E J.X.V.,.H J.2.2.9.b %.9.r.k.c ! L.+.m.:.V J.2.2.q.b $.9.p.x.c T ",
"#.W. .'.O.u H.*.g.*.1 &.6.q.^.p ~ E.+.^.Z u P.*.f.8.0 $.6.e.Q.p ~ !.&.T.m a H.*.j.&.1 *.6.9.^.t ^ !. .`.[ p J.*.k.=.1 *.7.e.(.z ",
"9 1.{.e.D ; G [.t.v 9 z 6.g.&.q 9 8.'.X.r 1 H '.S.T q z 2.g.#.0 1 q._.) r 9 J {.y.c 9 j 3.g.=.q 0 8.'.e.V 1 J {.y.M 9 c 6.k.$.w ",
"-.: e.v T ~.7 +.` r D.n c -.2 h.$.$ e.q T '.2 | @.p d.j N *.9 f.^ o 7.0 / G.* =.Q r F.n n &.2 h.X.$ a.c E H.* =.` y g.y N &.1 8.",
"v.,.X D P.g.y.0 0 2.7.L.G o <.!.s.Q . D ^.f.y.w 0 >.6.y.x + <.Q.9.I . K Q.d.*.1 u 2.7.D.G X <.!.y.Q X G !.y.*.: u 6.7.7.g @ <.^.",
"L.8.n n.2.6.h.z ' 7.8.J.G R P. .G.=.b B.2.3.h.z ` 9.9.H.v ~ J. .D.:.m G.-.9.y.a | 7.7.P.H ! U. .L.=.b V.2.0.q.a ' 6.e.L.v ! T.*.",
"<.z G.7.*.f.c ] e.e.n.V D D.*.g.8.v V.7.*.a.c _ e.y.n.m H G.&.l.8.n V.7.*.s.b ' 9.r.j.m D G.*.h.8.n G.7.*.s.n ' 9.p.n.m H G.&.7.",
"m p.6.{ e.V R 9.y.F.L v B.8.d.a.b q.6.} y.m R 7.r.F.L n B.6.f.a.c e.6.{ s.V T e.r.D.L n V.6.f.f.c e.5.{ p.m T 9.p.G.H n Z.6.f.h.",
"e.y.{ y.S F 7.9.P.` a f.e.2.s.m 1.u.X.y.m H 7.e.H./ a d.e.5.y.m 8.u. .u.V F 6.e.P./ a f.e.2.r.m 8.r.X.y.m H 3.e.P.^ d h.e.2.s.K ",
"2.>.G.H H 9.>.H.:.p 6.7.2.9.G =.t.>.V.G H 9.>.H.=.u 6.9.2.7.G =.7.>.m.H H 7.2.H.=.i 3.9.2.7.G =.7.>.V.K H 9.2.L.&.i 6.9.2.9.G @.",
"6.G.U K D.*.7.8.u &.y...8.V | d.>.G.J G B.*.q.8.u *.y. .7.m O.f.2.D.P Z D.&.q.8.t *.y.X.6.V +.f.2.G.J H D.&.y.8.t *.y.X.4.m O.h.",
"D.U V Z.8.2.7.u ~ k.>.2.V E f.7.G.T D G.6.2.6.u _ l.>.2.V E d.7.L.U m L.6.5.6.u / v.2.*.V E d.7.F.U D G.5.6.6.t ] l.>.>.V R i.8.",
"P c f.>.-.9.a _ d.>.7.I H g.r.G.U c f.2.*.0.a ^ y.5.9.H K g.s.L.U c f.5.-.0.i ] y.<.7.I K g.y.H.Y c h.>.-.7.p ] y.<.7.H G l.e.g.",
"b q.7.X.y.n / f.*.9.T H h.8.G.{ d 7.6.$.y.n / d.*.7.T H f.9.D.{ d q.8. .y.n ( y.*.0.T H f.7.V.| a 7.6.X.y.n [ f.*.q.U H h.7.n.&.",
">.7.| 7.H ! f.&.7.R G s.2.f.&.d -.q. .7.D E h.&.7.T K d.2.f.=.d >.q.{ 9.D E h.*.7.T L f.2.f.=.a <.q.| 9.V ~ f.&.7.T K s.2.h.&.z ",
"5.5.7.L J m.$.7.` z a.2.9.1.l @.y.5.8.L J D.$.7.' z f.>.e.1.d $.y.>.q.H J B.X.9.` z p.2.9.8.l $.e.2.9.H P S.$.9.` z s.5.e.5.a @.",
"8.F.&.m f.+.2.y.z 5.y.-.g.m ~ d.5.G.=.S f. .3.0.z <.s.>.g.m ~ f.5.H.&.S h. .6.9.z 5.y.-.h.m / d.8.H.&.D f.| 3.e.z 8.y.>.h.n ` y.",
"G.1.1 9.7.$.B.a +.g.&.P.c a A.-.H.1.1 7.7.$.D.s $.g.$.H.l j A.*.H.1.1 9.7.$.A.s @.g.*.L.j j S.*.H.,.1 9.7.$.B.s $.g.*.L.l j A.5.",
"x.w o j 0.U.m O H y.!.! ; 8 ' /.x.r o j y.P.m O L y.!.! = > ' (.x.w o g y.H.m O H y.!.E = 8 { _.x.q o j 0.H.n + H y.^.! = 5  .G.",
"% I '.X R E o d.z R =.= V.( : h.: H '.X R T o d.j W =.= G.[ : x.; I ).X R T o i.z E &.= G.^ : x.: I ).X R T # i.l W =.= G.( - f.",
"k e.!.a.= * ..t.B.a % 2.y.T.P   k y.!.a.= & ..y.g.d o 2.y.P.P   k s.!.s.= * } 0.B.s % >.d.K.P   k y.Q.a.% - } 0.n.p + >.y.J.J X ",
"{ d.*.P.@.a k.$.*.r.c 8.9.-.B.z T g.*.J.@.d k.$.-.r.v 8.7.>.k.l R g.-.P.@.a S.$.-.e.n 8.7.2.l.l R d.*.W.@.l k.$.;.e.c 9.e.>.v.n ",
"d +.d.7.G.^ K x. .y.*.d p.6.6.e.z o.y.9.G.^ K h. .y.*.d p.6.3.p.j { y.9.G.! L d.X.y.*.a p.7.8.q.d +.d.q.G.~ H h. .y.*.d p.7.6.r.",
"&.z &.e.*.6.V ~ n.X.9.R m h.*.s.=.l &.y.>.2.V ^ g.X.q.R S h.;.s.=.l *.y.:.6.V ( g. .9.R m h.*.f.=.d =.e.:.5.V / g.X.7.R m g.*.6.",
"v.| d 8.6.X.7.n ( d.*.6.Y P f.2.v.+.l 5.7. .7.n [ d.*.7.I P d.2.v.O.d 6.6. .7.n [ f.&.6.H T f.5.n.| d 7.5.X.7.n ( d.*.8.Y P g.5.",
"9.F.~ j s.-.%.r.d O.d.-.7.H U l.7.F.! c y.>.%.y.d O.s.*.9.H J l.9.F.! c y.>.&.y.z +.y.>.7.H J k.q.D.! c y.>.*.0.z O.s.*.7.H L l.",
"r.y.G.Z m B.>.4.5.p ' d.5.7.V R x.y.G.Z V n.>.2.5.p ` s.8.3.V R g.y.L.V V B.>.2.5.p ' y.5.7.V R g.y.G.V S B.>.5.<.u ' d.6.9.D T ",
"| f.7.D.H H G.>.7.<.w  .n.=.*.n ( f.7.D.H L H.-.7.>.w +.k.*.*.v [ f.7.G.H P J.*.7.>.q +.v.*.*.v [ h.7.D.H J L.-.7.:.w +.k.*.*.D ",
"V =.e.6.Z.D U k.$.g.:.p 6.7.*.6.m =.e.2.V.S J B.&.g.:.u 6.7.*.6.m =.e.>.V.D J D.$.d.:.p 8.5.*.6.n =.r.5.D.m T S.&.g.=.u 6.8.%.6.",
"8.V <.7.2.l.S Y 7.6.Y.[ a 9.7.2.8.D >.q.2.l.D U 7.6.T.' a 9.7.6.8.D 5.7.2.l.m Y 7.6.!.' a 9.6.6.6.D <.7.<.v.m U 7.6.E.[ h 0.7.;.",
"e.a.v p.9.} y.c R 7.r.K.J c B.6.8.a.n p.7.X.9.b T 7.r.J.J c S.8.7.r.n a.7. .q.c T 7.r.J.H c D.6.7.a.n a.7...w.c R 7.r.L.H b A.q.",
">.S.8.v s.2.$.e.c _ 7.f.B.V G D.5.v.7.v h.;.$.e.b _ 9.y.B.V G Z.2.n.1.n f.>.&.e.n _ 9.s.B.V K G.2.A.8.b f.>.*.e.c _ e.p.B.V K Z.",
"f. .V.=.K J.;.5.e.z X.7.a.l.v ^ F. .D.=.V P.-.6.9.z %.7.a.l.c ! F. .D.=.H H.>.2.e.l $.9.s.h.z ~ F.$.v.=.G P.*.5.w.c $.e.s.h.c ~ ",
"=.K.$.^.Z a P.*.g.8.q &.6.f.v.2 | J. .'.^ d H.*.g.8.q $.6.e.!.u [ J.$.Q.D z P.*.d.8.q &.6.y.E.u [ P.$.Q.H z E.&.g.1.0 *.2.h.n.w ",
"i 8.^.X.g t T ~.k.` u z 7.t.H 9 d 8.^.q.R 2 P _.k.] s c 2.d.=.a q w./. .i w T ~.l.] u k 6.d.=.a t e.~.$.x 9 E /.l.` u z 7.y.H q ",
">.q e.i ! [.t O.#.z y.r D ' & J.e.0 r.D [ m.# =.=.j k.H G *.q G.{ * f.t ] [.r @.=.k y.u V >.q G.{ - f.i [ v.# :.@.k y.y H ' - u.",
"g.8.O L !.y.h.a t 2.3.0.i 1 e.L.f.8.= L P.y. .2 d 2.2.L.J < 9.L.y.R X T !.y.f.u u 2.7.e.i 1 9.L.e.U X ! !.y.' = l 2.3.y.a 1 e.!.",
"P.:.D V.*.9.e.z { 7.y.B.c ( K.{ L.=.D B.*.e.7.a +.7.q.L.V ^ L. .K.| D Z.*.9.w.c  .6.y.V.d ' L.+.J.| V G.*.s.<.a } 7.f.V.j | K.$.",
":.c G.2.>.p.z { e.s.g.n T G.&.B.>.n G.5.>.r.c  .9.f.z.c H H.$.n.>.m L.>.>.p.z ' e.a.h.c T G.&.V.>.V G.5.>.e.n { 9.s.v.c E G.&.e.",
"m h.>.X.e.n R e.y.F.G V G.2.z.e.c f.>.X.e.n Q 9.s.D.S D G.2.l.e.n a.>.X.e.n Q q.a.D.V G G.2.z.q.c f.>.} e.n Q e.r.D.V V G.>.g.a.",
"p.q.$.y.n I 7.9.U.W j f.w.2.e.m 8.e.$.y.b Y 7.e.P.! j f.7.6.q.V 8.e.&.y.v U 9.q.T.E z g.q.6.9.n w.e.%.p.b U 9.9.!.R z g.q.2.q.G ",
"2.2.D.D U 0.>.U.+.a 9.7.4.8.Z >.9.5.n.m U 9.>.W.@.a 7.7.5.5.G ,.7.5.Z.S T 9.*.!.+.a 7.7.2.5.D <.7.2.x.D U 9.>.!.O.a 9.8.2.6.D ,.",
"8.D.H H G.&.y.,.t >.e.$.5.n $.s.5.D.G J G.&.y.,.u >.e.X.6.v @.s.2.D.G J G.&.y.>.u >.t.X.6.v &.r.6.D.G J D.&.y.-.u <.q.$.6.n &.s.",
"n.H H F.5.4.>.u { g.2.*.n / f.q.Z.H G K.5.3.-.u { h.2.;.n / f.q.F.H H K.2.4.-.u { g.>.>.n / f.9.D.K G K.2.6.-.u { g.>.2.n ] f.7.",
"H v h.-.;.6.a ` y.6.7.F T k.y.G.H n z.*.;.7.s { y.5.7.C T k.s.G.F n h.*.2.8.i | y.5.8.F R g.s.L.H n z.*.2.7.p [ y.5.7.C T g.r.h.",
"m y.6.$.9.b O.d.-.7.H J f.8.G.` c e.2.%.9.z o.s.*.9.H J d.8.G.` z e.2.&.9.c | y.*.7.I I f.6.D.^ c e.2.&.7.c +.d.&.9.H P l.7.D.o.",
"2.6.{ 7.m ^ f.*.7.Y H h.>.g.@.a 2.6. .3.V ( f.&.7.Y P f.2.g.+.d 2.7. .7.m ] d.*.7.H P h.-.h.@.l 2.6.{ 7.n [ f.*.6.I J h.>.h.+.c ",
"5.8.7.D W m.X.7.~ c f.;.e.>.d &.e.8.7.H T V.+.9._ z h.-.e.,.d &.e.6.7.G ! x.%.9.Q c h.-.y.-.l *.e.8.7.D ! D.$.7._ c g.*.y.-.l *.",
"7.L.&.G d. .8.e.c 8.e.2.f.b [ d.5.L.$.G h.{ 7.q.c 7.t.2.f.n ' d.5.H.+.G h.{ 9.8.c 8.9.5.h.n ` d.8.H.$.L f.' 9.7.z w.9.6.f.v [ y.",
"P.:.@ 7.8.*.g.w $.g.*.H.p j S.*.Y.:.@ 7.7.*.l.w +.k.*.H.p j n.*.!.=.= 7.6.*.v.w &.d.*.H.u g S.=.U.=.@ 7.8.*.h.w $.d.-.H.u j A.<.",
"p.q , r t.H.c : V 0.^.H 1 2 ) }.p.0 < u t.L.z : V y.).L 6 8 Q }.p.q = i t.H.c ; D y.Q.L 4 2 ) }.r.q , y t.H.z < V e.Q.H 1 3 _ !.",
"o Q |.O H H # S.n K O.; J.@.: w.& R }.o U F # S.n G [ : J. .1 8.= W |.o I D # S.n J [ = J.@.: w.$ Q }.o I D $ S.n P | ; Y.+.- 1.",
"B t.L.V.= & *.7.D.c o 8.9.L.!   B u.L.V.= * *.7.D.c O 8.e.H.Q   B y.F.m.= - *.7.D.d = 8.9.H.!   N y.K.n.= - *.6.F.d O 7.9.J.! . ",
"[ y.*.J.>.z f.*.&.f.D <.y.*.Z.m U d.-.H.,.j h.=.*.f.m >.e.*.B.n T d.-.L.:.j h.*.&.f.m 2.e.*.B.n T d.-.L.>.l g.*.*.s.V 2.e.*.V.H ",
"l | y.7.B.[ S g.$.7.>.a 8.e.2.s.c ^ y.7.D.( V g.*.7.>.a 8.9.2.s.z ` y.q.D.` S h.$.9.-.a 8.9.2.f.z ` u.7.V.^ V h.$.7.>.a 9.9.>.s.",
">.j &.e.&.6.J T z.X.7.Q n f.2.e.>.z &.e.&.6.L W g.$.7.Q n h.-.p.>.z &.q.=.2.H P l.$.9._ n h.>.y.>.z &.y.&.6.L T g.$.7.Q m f.-.8.",
"v.&.d >.7.+.9.V ! d.*.7.R K s.6.l.@.l <.7. .e.V ! g.*.8.W H s.5.l.&.a 1.7.X.9.Z ~ d.-.6.R K s.2.v.@.d <.7.X.9.V ~ f.*.8.R K f.6.",
"8.Z.[ d e.5. .d.c ] u.>.7.U K g.9.F.] j e.2.X.y.c ` f.-.7.U H g.9.G.[ d q.2.$.y.z ] s.*.7.U H h.9.G.^ l e.2.$.y.c [ d.*.7.U H d.",
"y.r.G.U c V.8.>.7.p ~ y.6.7.H H g.y.H.H c v.6.-.7.i ~ d.6.7.H L d.s.L.H b x.5.>.6.i ~ s.8.7.H L h.r.G.H n B.8.>.8.p ~ i.5.7.H H ",
"[ f.3.F.T D F.>.4.6.t ' k.&.*.V ! f.8.F.T G L.<.6.5.w [ D.*.*.V ^ s.7.F.T G L.2.5.6.t o.A.&.*.m ^ d.8.G.J G G.>.3.5.r | B.&.-.J ",
"m =.e.>.D.H H v.&.d.8.u -.9.*.7.m #.y.>.G.G H k.$.g.1.u 2.8.$.7.m =.y.>.G.H G k.$.g.1.u ;.9.%.9.V #.y.-.G.H G l.&.d.<.p 2.8.%.7.",
"7.L >.8.2.h.G J 2.4.P.O.z 6.7.3.7.J >.7.>.l.G U 2.4.Y. .j 6.6.5.7.L >.8.>.l.D U 2.6.T.O.z 5.3.5.8.P >.3.>.g.G U 4.5.P.{ z 3.8.>."
};
