/* XPM */
static char *_0ab96ce535945b4816cbedc9339a446Szjrh1q2pp3FBPOM[] = {
/* columns rows colors chars-per-pixel */
"64 64 232 2 ",
"   c #000200",
".  c #020C01",
"X  c #0B0D0A",
"o  c #041201",
"O  c #091403",
"+  c #061901",
"@  c #0C1B03",
"#  c #0F1A0A",
"$  c #0D1609",
"%  c #111E06",
"&  c #121D0B",
"*  c #161B0B",
"=  c #0D2503",
"-  c #14230B",
";  c #19240E",
":  c #192A0E",
">  c #132706",
",  c #1C3908",
"<  c #1A2612",
"1  c #1D2B13",
"2  c #1B2714",
"3  c #1E3415",
"4  c #212D15",
"5  c #242E1B",
"6  c #223315",
"7  c #25331B",
"8  c #2A351E",
"9  c #283C17",
"0  c #213B0E",
"q  c #2C3622",
"w  c #2E3923",
"e  c #323C26",
"r  c #353E2A",
"t  c #333726",
"y  c #373F30",
"u  c #403F3A",
"i  c #194903",
"p  c #1B5501",
"a  c #165501",
"s  c #244B09",
"d  c #255807",
"f  c #315E0E",
"g  c #2A4516",
"h  c #2E5715",
"j  c #335818",
"k  c #296407",
"l  c #356C15",
"z  c #3E6D1D",
"x  c #366418",
"c  c #397217",
"v  c #316D0F",
"b  c #2F4321",
"n  c #35412B",
"m  c #3A432D",
"M  c #374827",
"N  c #3B5725",
"B  c #3C4432",
"V  c #3D4A33",
"C  c #354030",
"Z  c #3E6523",
"A  c #3E7122",
"S  c #41711D",
"D  c #435D2C",
"F  c #414635",
"G  c #424A36",
"H  c #44443B",
"J  c #454C3A",
"K  c #494C3D",
"L  c #48453C",
"P  c #46523C",
"I  c #4A533E",
"U  c #475636",
"Y  c #505A3F",
"T  c #436428",
"R  c #457627",
"E  c #4B6834",
"W  c #50693A",
"Q  c #4F7A34",
"!  c #54763B",
"~  c #4C4D41",
"^  c #4D5442",
"/  c #4D5944",
"(  c #525545",
")  c #515B46",
"_  c #54554A",
"`  c #555A4A",
"'  c #5A5C4D",
"]  c #595748",
"[  c #5D5D51",
"{  c #5A5750",
"}  c #615E53",
"|  c #5C614E",
" . c #576645",
".. c #597444",
"X. c #5E6253",
"o. c #5E6A56",
"O. c #626355",
"+. c #626A57",
"@. c #656559",
"#. c #69655C",
"$. c #656A5B",
"%. c #6B6B5E",
"&. c #6D7B5B",
"*. c #68745A",
"=. c #697D51",
"-. c #6D6D61",
";. c #716E63",
":. c #756C68",
">. c #6E7163",
",. c #6D7864",
"<. c #737366",
"1. c #747C65",
"2. c #75746A",
"3. c #7B746C",
"4. c #76796B",
"5. c #7B7A6D",
"6. c #7C7571",
"7. c #7D7D71",
"8. c #767C70",
"9. c #7A6F73",
"0. c #807B6E",
"q. c #837D74",
"w. c #897E77",
"e. c #857E78",
"r. c #897F79",
"t. c #807772",
"y. c #73885D",
"u. c #698851",
"i. c #7C836C",
"p. c #7E8374",
"a. c #769060",
"s. c #838175",
"d. c #898177",
"f. c #858479",
"g. c #8B837C",
"h. c #858A7C",
"j. c #8B8A7D",
"k. c #858875",
"l. c #91847F",
"z. c #90897F",
"x. c #8B9179",
"c. c #80916F",
"v. c #8E8581",
"b. c #8D8B82",
"n. c #918683",
"m. c #938A84",
"M. c #998B86",
"N. c #968C89",
"B. c #9A8E8B",
"V. c #94858A",
"C. c #8E9285",
"Z. c #8F978A",
"A. c #939286",
"S. c #95948B",
"D. c #9B938C",
"F. c #95998D",
"G. c #9C998E",
"H. c #9D8E92",
"J. c #9E9491",
"K. c #9D9B93",
"L. c #979B93",
"P. c #A19A8F",
"I. c #A0938F",
"U. c #A29593",
"Y. c #A39B94",
"T. c #A59D99",
"R. c #A99E9B",
"E. c #A99799",
"W. c #A28E99",
"Q. c #9FA297",
"!. c #A3A296",
"~. c #A5A39B",
"^. c #ABA39D",
"/. c #A5A89D",
"(. c #A9A69A",
"). c #B0AC9E",
"_. c #ADA4A1",
"`. c #ACABA3",
"'. c #A7A7A2",
"]. c #B1A6A3",
"[. c #B2AAA5",
"{. c #B5ACA9",
"}. c #BAADAB",
"|. c #B7A8A8",
" X c #AEB1A6",
".X c #B5B2AB",
"XX c #BAB3AE",
"oX c #B5B6A9",
"OX c #BCB5B1",
"+X c #BEBAB3",
"@X c #BAB7B5",
"#X c #B8AAB1",
"$X c #C2B5B5",
"%X c #C2BBB5",
"&X c #C5BDB9",
"*X c #CABEBC",
"=X c #C4B7BA",
"-X c #C0B1B2",
";X c #C5C1BB",
":X c #CAC3BD",
">X c #CCC8BF",
",X c #CBBFC2",
"<X c #C5BAC0",
"1X c #CDC5C2",
"2X c #CCC9C3",
"3X c #C7C7C2",
"4X c #D2C5C4",
"5X c #D2CAC5",
"6X c #D5CCCA",
"7X c #DACDCC",
"8X c #D6C6C9",
"9X c #D5D1CC",
"0X c #DAD2CE",
"qX c #DCD3D2",
"wX c #DAD8D5",
"eX c #D9CFD0",
"rX c #E1D5D5",
"tX c #E2D9D6",
"yX c #E4DBDA",
"uX c #E9DDDC",
"iX c #E7D7DA",
"pX c #E0D6CD",
"aX c #E6E1DD",
"sX c #EEDFE2",
"dX c #EEE4E3",
"fX c #E7E1E3",
"gX c #F1E5E5",
"hX c #F9ECEC",
"jX c #F4E8E8",
"kX c #FEF2F1",
"lX c #FFFDFF",
"zX c #FFEEF6",
/* pixels */
"4.4.3.4.k.m [ D.g.M.D.g.2.:.<.-.5.m.U.m s.rX:X;X:X4X6XM _ E.r.l.n.v.g.n.v.n.n.B.( X.p.4.4.2.<.<.>.%.-.#.@.<.P J A.4.5.s.s.p.q.4.",
"XXXXXXXX6X@.K D.r.#.X.%.2.5.f.B.M.v.2.4 h.yX:X:X&X>X6XB U x.H.n.g.n.V.g.d.f.g.v.[ Y._.Y.R.T.U.I.D.B.M.m.m.|.#.-.rXXX-X&X;X:X:XXX",
"G.Y.P.Y.|.) ( D.' P h.m.U.N.w.q.g.w.O.4 b.gX0X5X;X;X=XU s &.H.B.B.B.H.N.z.M.B.B.[ 7.q.q.t.5.3.2.2.<.*.$.X.^ H ' {.P.U.I.Y.T.R.^.",
"Y.P.Y.Y.XX] ] <.F.`.b.V.v.g.g.g.B.g.@.t r <.%.+.@.` >.V p R | #.-.} [ } $.-.:.;.G j.r.v.D.g.w.f.g.f.g.S.(.1.>  .}.Y.P.P.G.D.D.Y.",
"Y.Y.Y.P.-X( 8 Y.<X+X/.b.M.g.g.g.e.-.[ B J @. .| +.$.7 , j v j H 7 e n b n n n n V %.%.` K f.B.l.n.w.w.w.n.B.h z d.|.^.].).^.).R.",
"].R.!.^.].! d &.} { 7.4.#.X._ ] ^ J ^ y +XgX2X0XuXuX~ *.A d x ! &.{.|.].|.[.[. X[.T.(.(.m w g.q.6.5.w.g.q.<.D d l A.#XP.I.Y.T.].",
") } X.O.( S c g H B C V V V P J ~ P ~ w oXwX%X;X5X:XF A.a.3.c.a i.$X|.`.^.^.).^.Y.^.^.].%XJ n X.| X.^ G ' ~ N l k j ) I _ ^ X.O.",
"6 3.;.:.O.j k ! +X3X@X3X3X3X;X5X3X;X9X,.Q.rX%XXX;X:Xe G.8X|.=Xm.A.|._.^.I.G.U.P.G.^.(.G.[.f.b.;X X:Xp.w p.V.,.k E Z a X.v.e.g.J ",
"F B.v.g.m.) i E @X,X<X.XK.'.1XeXqX1XeX,.5.2XOX+X1XOXe F.&X^.R.{.{.R.].^.I.Y.P.Y.K.D.P.P.].4.[.5X+X6XF.n 0.m.v.2.r.V. .t.E.E.#.4 ",
"F n.f.q.J.' , y.{.[.@X XK.8.-.8.2.7.3.J &.;X4X:X5XOXw F.%X^.T.^.].).^.R.Y.Y.Y.P.Y.Y.P.Y.XX5./.9X+X4X>.7 0.g.v.B.N.V.E.D.q.B m X.",
"B z.w.g.m.J $.;X{.'..X@X+X:.-.-.X.7.0.K 5.>X5X;X2X[.w G.$X^.^.^.^.^.].^.T.Y.P.P.^._.^.^.}.0.(.6X;XtX+.: s.N.m.n.l.M.m.( 7 ' oXY.",
"B M.g.2.f.B S.qX'.'.[.N.{ 2.J.B.m.V.U.( 1.:X1X;X;X`.q S.$X].|.[.R.^.^.`.].).(.[.).^.).{.$Xs./.9X:XdX<.1 g.B.N.J.m.' q ^ C.XXT.2.",
"F M.p.q.B.G s.{.g.j.q.@.<.M.g.v.m.m.m.J 5.>X4X;X6X.X8 S.=X).Y.S.s.4.5.5.7.h.d.A.g.m.m.G.].5.~.5X%XrX4.6 g.v.r.3.B V 7.[.T.3.v.<.",
"V d.s.f.M.J 1.D.3.0.4.q.v.q.g.f.w.g.t.m i.>X1X;X6X+Xw d.].p.<.X.) | | ' | | | | @.$.<.<.k.$.`.5X%X0Xk.7 -.O.B B -.K.^.0.3.w.m.:.",
"r g.g.w.U.J 2.R.r.n.g.g.m.v.r.g.g.m.s.n i.5X5X:X9X4Xe 8 P m r b e e b e e e e e r n n U K B oX6X;XuX0.= q V $.m.R.g.3.w.s.w.m.;.",
"m U.v.M.R.B p.$XV.B.N.n.m.m.f.q.5.3.2.G s.5X7X0X0X:XB       O O O O O O O O O O O O o .   & 9XyX6XyX_ % I r.~.B.r.v.z.m.m.V.U.%.",
"8 @.O.@.' 6 B ) B G V B m m M r e w m 8 w ^ _ _ ~ J 2 - : : & $ # # # # # # $ & & & & $ . & 4.A.k.5.n 6 X.' y H _ _ ~ ^ _ _ { t ",
"K.F.L.(.G 8 K r q q w q t t w t e e t r e r y r r B 5 # A S - $ & & & & & & & & & & & & $ - h.s.I ) $.X.>.K.~.G h y.K.b.b.C.b.Z.",
"0X0X7XdX@.e -.O.[ [ [ O.X.X.' X.O.@.X.' [ O.$.O.O.-.B . j S & $ & 2 & & & & # - & & & & o < 9X9XK.(.(.`.%XuX6X! k u.1X6X1X>X3X1X",
">X1X;XuX@.F @.' ' ' ' ' ' | ' [ { [ ' ` ` ' ' _ ^ #.K . , c g X # $ # & # # # # $ # # & o -  XqX5X:X5XqX>X6X+Xj d E {.4X2X>X=X=X",
"5X2X6XrX/ J M.<.O._ ' X.@.O.} @.$.-.%.>.-.:.<.<.:.v.K = h z g : # & - - : - - - - - # @ o - +XtX1X5X5X5X1X1X@XN p ! #X&X&X&X&X>X",
"o.X.@.-.: o ' m.g.w.w.g.v.g.r.l.m.v.M.M.N.N.M.m.J.D.N h R x f v g 3 3 3 6 6 3 3 7 : 3 3 1 : P ^ ' $.+.X.X.[ _ b i U ' ^ I ^ ` X.",
"K.L.~. X{.G   7 %.<.w.A.N.g.g.j.v.g.v.v.v.v.m.v.m.g.M h c f ..=.x 1.'.L.J.S.S.L.7.<.Q.S.T.+Xn n %XQ.'..X.X`.'. Xp.K.`.`.(. X[.`.",
"XX%X$XOX1X*X%.+ - J [ t.B.N.m.V.m.m.m.v.m.n.v.n.D.M.G ..j N t.W.f.v.U.U.J.U.H.R.r.A.].B.U.XX~ $.hX+X`.~.+X1X+X.XXX&X&X&X=X%X&X+X",
"^.^.R.!.!.].4X2.s j 5 ] 0.q.g.v.v.m.N.m.m.m.g.w.v.3.r r.n.7.v.n.B.V.g.v.m.v.M.g.#.K.U.s.v.H.^ m M.R.I.g.0.s.z.Y._.^.R.R.!.!.R.R.",
"[.{.|.[.].|.$XY.j R 2.8 K X.( ' O.@.@.@.O.O.[ ' X.` r g.H.N.n.n.n.v.g.g.l.v.f.2.S.U.g.v.n.U.[ 1 | U.^.].}.A.s.3.m.}.=X{.[.-X|.}.",
"s.k.d.s.q.h.j.9.M f u.E - 8 t 8 w 8 7 q 8 8 8 8 w w : X.v.m.g.n.v.v.m.n.v.m.w.b.B.r.v.v.n.U.` 8 *.D.^.).^.{.{.D.7.<.2.5.s.k.s.s.",
"A.z.D.A.D.D.~.q.T l a ..@./..X`.`.[.[.`.[.`.`.[.Q.@X| / U.v.m.n.v.v.g.v.v.n.v.v.g.v.n.l.l.U.` q 2.E.].R.^.).^.XX[.-.h.+.5.j.D.A.",
").^.|.{.|.).-XM.D d E !.g.wXyXtXyXtX0X0X0X6X0XqX6XkXp.[ J.n.m.v.m.B.I.Y.U.U.T.U.U.B.N.v.n.Y.' 8 <.T._.^.^.Y.T.^.%.D.>X|.~.^.^.].",
"].].^.^.].R.R.2.h h A.*X>.&X1X.XOXOXXX+X%X*X5X6X1XwX[ ' R.B.D.B.m.g.:._ [ { { } :.t.v.N.B.R.' 7 2.^.].^.^.Y.[.4.<.-XR.[.!.Y.Y.Y.",
"^.R.^.^.!.^.m.O.6 ) lXOX7 7 r 8 7 q w 8 w m m B m r - 7 m e y n q 5 % O @ @ + @ - 4 8 F F J 2 B <.Y.|.|.^.S.s.@.!.T.P.P.P.R.[.).",
"^.^.R.!.R.R.4.<.t O.OX2 q r w q q t w w 8 q q q w q G B r q - - : % n ) U U P I U G M M n V 7 0 E !.|.!.M.j.k.).XX^.R.Y.Y.R.R.].",
"v.q.5.3.4.3.3.6.n - 4 t ` ( [ -.r.r.r.g.7.w.g.g.v.v.v.v.m.r.:.<.t.8 I 4.X.O.o.O.O.o.O.O.X.-.K p ..|.D.5.2.w.v.m.S.D.S.I.P.G.m.j.",
"$.#.-.@.O.@.( 7 ; w K ' [ ;.0.m.D.N.v.m.m.m.B.N.m.N.N.m.m.D.U.T.U.7 ( b.4.5.4.<.>.>.<.7.q.v.I d ! <.;.>.@.O.X.O.O.O.%.:.<.<.%.@.",
"[ [ _ _ ~ q @ : V ' -.e.B.B.v.g.g.f.f.n.v.v.n.v.n.n.v.m.N.N.v.w.@.; ) k.<.%.%.j.S.g.7.3.g.&.j h f h n H H H K H H K L K K ~ _ ' ",
"* % % * 5 < t ( $.w.B.m.g.v.v.8.g.g.v.v.n.m.j.v.m.m.B.m.f.:.J n I 8  .f.%.<.].4.' ( X.E x d f A z k 0 $ - * - ; ; & & & * & & * ",
"S.A./.,.+ P ;.r.N.m.g.w.v.D.-.g.l.V.z.l.g.g.V.B.N.v.t.' e C ^ $.j.n I k.O.{.m.  q =X,Xa.d T M i l Q &.L.F.A.A.S.A./././.!.~./.K.",
"0X5XjX'.O ' B.I.n.s.n.v.3.-.^ b.n.r.g.z.r.n.l.f.#.B q B | 4.C.C.h.8 ^ <.G.d.V 9X/ 7.zXx. .|._ P y.*.+XqX9X6X6X9X6XtXwXuXtXtXyXyX",
"XXXX6Xh.@ ' n.g.g.5.5.5.5.b.J.4.7.g.w.g.v.N.@.3 w ~ -.p.b.5.-.#.f.b J F.D.n 3XkXfXb 7.5XY.8X' 2.jXx.XXXX.X.XOXXXXX{.{.{..X.X[. X",
"XXXX5Xh.@ ' g.w.5.7.7.v.T.D.N.g.2.7.g.w.b.g.J / 4.h.p.$.O.O.' ] #.8 ^ {.V `.gX.XwXwXJ m.4XOX_ o.jX1X%X%X&X+XXX.X+X+X.XXX.XXX+X%X",
">X&X6Xj.@ ' n.g.g.v.r.q.r.r.q.n.N.7.g.g.U.O.m g.@.' ' ' } | O.O.#.< p.%.h.jX$X%X.XqXyX` b.7X( +.dX:X>X:X1X>XOX X+X1X&XXX{.XX1X:X",
"&X>XtXA.+ O.N.g.v.v.f.w.g.g.v.v.g.m.m.B.-.q n @.O.' O.X.O.O.O.O.@.8 w h.iXXX[._.}.XXtXwX$.(.@.X.tX$X%X;X&X%X&X+X%X:X:X%X.XXX&X%X",
"&X>XrXA.+ [ B.v.v.v.w.g.g.f.g.v.g.n.U.} V Z.+.e @.O.X.} ' O.| O.@.: V 2X}.R.R.].R._.`.0XwXC.n $.tXOX.XXXXX XXX;X>X:X:X:X;X.XXXXX",
":X;XtXS.@ ] g.g.g.g.w.g.g.t.g.g.n.D.} ^ h.7.k.G K @.O.O.O.} O.O.O.- C.4XR.^.^.^.^.^.!.T.:XdXJ o.gX;X;X&XOXOX.XOX&X;X;X>X&XXX.XXX",
"+XOX6Xm.@ ' n.g.w.t.s.d.g.g.q.m.N.^ / F.@.~ -.-.J %.X.' O.X.O.O.O.- k.7X]._._.^._._.R._.U.8X-.X.dX;X:X:X+X.XOX.XXX.XOX;XXX.XXXXX",
"XXXX0XS.@ [ m.w.g.g.d.g.g.g.j.s.( B ,.2.^ } $.` I %.X.O.| O.O.O.O.; U (.|.OXXXXXOX}.OXXXOX4X` *.aX$X;X;X+X+XXXXXXXXXXX+XXXXX.X+X",
".X;XtXA.+ } g.w.g.f.w.g.r.m.q.~ / -.O.' [ } -.^ G %.} X.O.[ O.O.} w s c i.E.G.G.G.D.D.D.G.^.F <.hX4X5X>X1X;X:X2X:X;X+X.X+XXXXXXX",
":X2XuXG.@ O.n.s.v.g.m.V.D.3.~ ' -.[ O.@.O.O.<.P F ;.O.@.O.O.@.$.} b x c , # & & * & % % & @ . J 0X>X!.k.-.^ X.>.v.~.+X;X;X;X>X:X",
"A.s.S.<.@ O.Y.U.D.I.B.m.-.B _ } ` ' ' ' ` ' $.r m O.[ O.X.} [ [ _ g l A >   . . . o X o . . O o n -.( J J ^ ~ B B ^ $.-.5.v.N.F.",
"@ + % % + e K m B B m 7 % w e 1 1 1 1 1 4 2 1 - - 4 : w 4 3 1 < 2 - s s o O @ @ + 1 @ + - = % = O > 8 q w e e w 8 7 < > = - - - ",
"O.F.C.| ,.J ^ Q.C.b.A.'./ 9 F. X/.`. X/.~.~./.~.(. X!.+ $.oX!./.~.'.&.=.@XoX X XwX+.3 L.K.K.J.L.F.v.p.k.k.f.p.f.p.f.f.g.h.f.S.$.",
"Y.rX5XC.+X$.Z.lXtXyXyXhXoXx Q  X7X:X%X0XdXgXaXgXjXkXjX; !.lXhXkXkXjX:X>XkXhXhXkX/.V @X8XXX,X&X&X+XOXOX}..XOX@XOX@X+XOX+XOX@X6XS.",
"h.=XY.5.$XB h.yX&X&X;X8X/.z d h g.`.K.A.C.G.K.G.j.h.4.- P p.$.X.@.X.[ X.' `  .B   p.7XK.~.~.`.'.'.{.'.T.Y.U.K.D.D.B.S.N.M.m.U.>.",
"h.4X7.s.*X7 h.yX%X&X:X>X5XE a W 8XdXwX6X+X`.`.~.!.`.`.7 V p.<.;.>.>.,.$.*.#.o.7.V i.OX'.Y._.T.T.~._.Y._.S.s.q.7.0.0.t.7.7.t.l.@.",
"m.4X5.A.$X8 x.uX&X:X:X:X7X(.p T {._.~.'.~.U.Y.~.~.`.S.+ b.sX4X>X:X:X%XXX=X$X+XiXO.-.=X_.~._.(.^.K.L.T.Y.f.q.w.q.w.w.w.s.w.w.M.#.",
"b.4Xs.S.$Xt b.dX%X;X&X:X;XuX&.= < 1 2 < q e w w w w q O s.$XT.R.Y.T.R.^._.Y.Y.^.B F v.n.n.N.m.m.v.n.V.m.t.2.g.w.w.s.w.s.w.s.S.O.",
"j.8Xh.j.*Xm x.0X:X:X;X;X;X7X*X7 . o o . h.0X+X+X+X+X0X/ >.$XG.G.U.Y.^.^.^.Y.!.D.n 4 #.g.q.q.5.3.t.3.9.7.H $.R.3.s.w.s.f.w.r.m.' ",
"h.*Xf.z.,XU E oX8X:X:X:X:X0X7Xr . & $ o !.dX:X2X5X5XuX) @.XXG.R.Y.I.P.P.P.I.(.M.r 8 ;.g.s.s.s.s.p.f.f.b.8.-.k.n.q.q.q.w.w.g.D.( ",
"z.$Xg.D.T.9 s y.6XiXpXqX0XqX}.q . $ $ o A.tX%X%X;X;X2XI @.{.Y.Y.!.U.Y.Y.P.Y.^.M.e 8 ;.n.g.d.g.m.M.U.U.R.].D.4.8.n.v.g.g.v.N.B.` ",
"m.4XA.T.4., d l =.9.#.' ` K r $ . .   . S.6X+XOXXX&X1XG *.$X^.^.).].^.R.[.[.[.M.r 8 <.g.q.q.d.m.g.f.v.r.q.n.J.k.5.v.B.v.n.m.B.( ",
"m.OX!.^.-.b z k i 2 7 y B V ~ ^ ^ / ' 1 j.6X.XXX:XOX>XG $.[.M.j.k.s.s.5.s.k.7.4.M q 3.B.f.g.l.B.V.g.g.m.v.g.g.I.m.2.<.g.m.n.g.I ",
"C.%X}.^.[ b x W R c j.-X[.[.`.`.{.[.,X| >.4XXX%X&X%X;XI 2 F 8 8 q 7 7 8 8 8 q e 4 e 2.B.n.d.g.d.f.3.<.;.;.2.<.:.k.m.2.$.2.w.r.( ",
"Y.7X}.Y.@.6 @.U.t.N 2.N.v.g.v.r.v.B.M.B p.9X%X&X;X1X4XF G 3.F F H F G F H F B K q 8 ' <.;.%.%.@.O.} } ' O.X.} [ [ -.q.-. .O.:.^ ",
"I | G F F < 2.Y.V.n.g.v.g.v.v.V.e.:.q.m k.tX>X;X;X1X6Xm ' Y.t.6.q.t.7.t.7.7.q.v.K > w t t e r e e r n n r r e r e w q e e t r 8 "
};
