/* XPM */
static char *_b0812b682574c7ce0059ed0740dc734q4o99knheBfPDA6q[] = {
/* columns rows colors chars-per-pixel */
"64 64 161 2 ",
"   c #110C02",
".  c #181107",
"X  c #1C150B",
"o  c #1F180E",
"O  c #1F1A11",
"+  c #20170E",
"@  c #20190F",
"#  c #241C13",
"$  c #262116",
"%  c #282117",
"&  c #262119",
"*  c #2C251C",
"=  c #2F281E",
"-  c #30271E",
";  c #30291F",
":  c #2E2A20",
">  c #302720",
",  c #332C23",
"<  c #382F26",
"1  c #382F28",
"2  c #373026",
"3  c #383127",
"4  c #363128",
"5  c #3C352B",
"6  c #3F392E",
"7  c #3D3930",
"8  c #40372E",
"9  c #40392F",
"0  c #443C33",
"q  c #483F36",
"w  c #483F38",
"e  c #464036",
"r  c #484137",
"t  c #474139",
"y  c #4C443B",
"u  c #4F483E",
"i  c #50473E",
"p  c #50493F",
"a  c #504740",
"s  c #544C43",
"d  c #584F46",
"f  c #584F48",
"g  c #575046",
"h  c #595047",
"j  c #575049",
"k  c #5C544B",
"l  c #5F584E",
"z  c #60574E",
"x  c #61594F",
"c  c #605750",
"v  c #645B53",
"b  c #685F56",
"n  c #685F58",
"m  c #676056",
"M  c #696056",
"N  c #666058",
"B  c #6C645B",
"V  c #6E685E",
"C  c #70665D",
"Z  c #71695F",
"A  c #706760",
"S  c #746B63",
"D  c #786F66",
"F  c #786F68",
"G  c #777066",
"H  c #797067",
"J  c #7D736B",
"K  c #81776E",
"L  c #81786F",
"P  c #817770",
"I  c #857C73",
"U  c #887F75",
"Y  c #8A7F79",
"T  c #878076",
"R  c #8A8077",
"E  c #8D837A",
"W  c #90867D",
"Q  c #92887F",
"!  c #918680",
"~  c #958C82",
"^  c #998E85",
"/  c #998F89",
"(  c #9A9087",
")  c #9D938A",
"_  c #9F988E",
"`  c #A1968D",
"'  c #A2988F",
"]  c #A19791",
"[  c #A59B92",
"{  c #A99E95",
"}  c #A99E98",
"|  c #AAA097",
" . c #ADA39A",
".. c #AEA298",
"X. c #ADA49B",
"o. c #AEA49B",
"O. c #AEA49A",
"+. c #AFA59C",
"@. c #ADA399",
"#. c #B0A39B",
"$. c #B1A49B",
"%. c #B2A59D",
"&. c #B1A79D",
"*. c #B3A69D",
"=. c #B4A69D",
"-. c #B4A79F",
";. c #B2A59C",
":. c #B3A99F",
">. c #B5A89F",
",. c #B6A89F",
"<. c #B4A89F",
"1. c #B6A7A0",
"2. c #B6A9A0",
"3. c #B4AAA1",
"4. c #B7AAA1",
"5. c #B6ACA2",
"6. c #B6AAA1",
"7. c #B8AAA1",
"8. c #B9ABA2",
"9. c #BAACA3",
"0. c #BAADA4",
"q. c #BBADA4",
"w. c #BDAFA6",
"e. c #BAADA4",
"r. c #BEB0A7",
"t. c #BCB0A7",
"y. c #BFB2A9",
"u. c #BEB2A9",
"i. c #C0AFA7",
"p. c #C0B2A7",
"a. c #C0B2A9",
"s. c #C0B3AA",
"d. c #C1B4AB",
"f. c #C2B4AB",
"g. c #C2B5AC",
"h. c #C4B6AD",
"j. c #C5B7AE",
"k. c #C2B4AB",
"l. c #C8B7AF",
"z. c #C5B8AF",
"x. c #C6B8AF",
"c. c #C9B8AE",
"v. c #C6BAB1",
"b. c #CAB9B1",
"n. c #C9BBB2",
"m. c #CABDB4",
"M. c #CFBEB6",
"N. c #CBBCB4",
"B. c #D0BFB5",
"V. c #CDC0B7",
"C. c #D0C2B7",
"Z. c #D0C2B7",
"A. c #D2C4BA",
"S. c #D8C7BD",
"D. c #D6C9BE",
"F. c #D6C9C0",
"G. c #DCCBC1",
"H. c #DACDC4",
"J. c #DCCCC3",
"K. c #DDD0C6",
"L. c #ECDBD3",
/* pixels */
"! ( [ ) h v O.) ) ) ) ) ) ~ ( ( ^ ^ ( ( ` ( ` ~ s ( c.{ { ' { [  . .{ [ [ { ( ' [ d d M.y.' ' | ' { [ { { { [ | ' { { ` | [ ( ) ",
"( ) [ ^ m E ` [ ) ) ` ( ( ( ( ~ ^ ^ ( ( ( ( ) ` s J H.{ ) ' ' [ ) ) [ ] ) 3.' ) } y E J.) { | ' ) ) ) ) ! [ ) ) Q ^  .[ ( ^ ) ) ",
"W [ | I B ~ Q ) ( ( ~ ( ) ( ( ' { [ { [ ` ( ) ^ 8 @ H ' ' { [ ) [ [ @.[ [ { { ' ' 0 [ N.) | | ) ( ) ^ Q ) [ ' _ { 4.O.( ( ) ) ) ",
"( [ ~ B v O.' ) ) ) ) { | { { ( E L A v z s d t 3 * @ 9 i x k l V I B V ! R W ) H > #.Z.^ [ [ ) ^ _ ) ( ) [ ) |  .[ E ^ ) [ ` ) ",
"/ W U 0 5 I R E E R J l k k e 6 3 < h H R E R W ` ~ K E U H D S V N s s x j a s - 0 ) V.{ } :.) ) [ ) [ [ _ ) ) ( ^ / [ ) ~ ^ [ ",
"n l 0 $ % , 9 u s s a y t y y < @ s [ m.d.s.j.d.s.s.s.s.j.j.l.f.q.%.O.:.[ Q R F , * F ! +.d.[ R ! ! ! ^ ^ ~ ~ ^ ~ ! ! Y I B A H ",
"l c B L E W Q Q ^ [ Q ! { | | T - B N.i. .} 4.=...' ,.,.=.,.[ $.9.=.9.9.r.y.v.` d t t l l B q 6 l j j s a a y y y g q w f d n B ",
"[ %.=.5.:.$...| | | ' ) _ ) ) | B < ^ w.[ { @.$.$...=.{ {  .[ { ` ^ [ ' { @.{ R x n t d k f h j x k g c c v v N t . , S ~ [ 3. .",
") ' ( ` ` ) ) ~ ~ ) ) ` ( Q ( ` R 5 s [  .^ ^ ( ) ` ' ` ) ( ) ' [ @.{ [ ( ( / l q J [ [ [ | @.@.@.[ ( | @.| | u.I , ~ q. .{ ` ) ",
"~ ) ' { ` ( ) ( ( ) ' ` ) ( ( Q ^ E t A 8.y.{ ] ) ` ~ ^ ' ` ~ R I K Z v p p y o 0 ( +.) ) ) ) ) ( _ _ ( _ ^ Q @.l t %.` ( ( ! ( ",
"~ ^ ` ) ^ ` ` ) ( ' ' ( ` Q ( ( ' 5.V q D I P V N v h j B H J H c j v B B H H r 5 R X.] ( ~ ` ) ) ) ( ) ^ ~ ) ~ y 0 ' ^ ( ' ( ( ",
"^ ' ) ` E ~ [ ~ ) { ) Q Q ` ' ` E S y # $ O u Q E R ^ ' { ..:.y.%.@.3.%.9.O.9.{ y R 3._ ) ( ` ' _ ^ ^ ^ ^ ^ ~ ~ I s ^ ) ) ) ) ) ",
"^ ` ^ ( ~ ^ ^ ( ' ` ) ~ W L Z x j v J T y 6 d.S.d.x.N.x.5.{ ' ) { ....{ { ` [ ..a l W ~ E ( ' I ~ | ) ( ( ( E ' ^ p W | ) ) ( ) ",
"W ~ ~ ^ ) ] ' ` / P D V x x m H W { %.5.J k 4.[ ' ~ [ ' _ | ' ) :.5.| [ ' .. .` l # , 5 6 e 9 , y G E ) _ _ { ( J 6 C ' ~ ! ( ( ",
"( { { | [ ( J v d v S J R ^ ' ' [ ( ~ | J H | | [ ' | { ' | { | ..O.{ { ) ' ) O.R t D E I J b - # e u g x N k 0 * 4 ( ' U ^ ) ( ",
"` ^ K B c k c V S ^ { ` ` ' ( ( ) ( ( ..J E 4.' | | [ { | ' { { ' ) ) ' ) ( ~ ' W l { A.N.N.V.( Q O._ E J B k 2 $ 4 | k.$.9.:.:.",
"g d s c H R ( [ ' ( ^ ( ` W Q ' ) ) / ( V L q.' { [ [ ` ) [ ) ( ' ' ` ` ' { | 4.{ s ~ j.#.#.$.y.d.9.9.r.d.9.x...K 0 ^ s.=.' W S ",
"v H Q ' { ( Q ) ) ` ) ) ' Q ~ ' ) ' _ G % A K.' ~ ^ ^ ^ ) ` { %.,.$.$.[ ^ W I H l , U N.=.:.:.#.$.:...{ =.%.4.d.q.l j n i t y f ",
"! ( ) ( ( ) ) ) ) / ^ ) ^ ( ) ( ) ) | k . y 5.A.A.Z.=.[ ^ P H J x 0 x B k 5 5 5 < O b d.#...:.` { 9.:.,.q.( R %. .V + y N J E / ",
"' { { _ { | | ' [ ) ` ) { { { ' ) ' H 0 N , X v J C v k j h k 5   s [ ( ' Q ~ ` ) V q [ ' Q ^ ) ` ) { O.| ! E { ) f s ) %.{ [ [ ",
"R ^ ) | J M ^ ^ U J A v b b h i r 0 > > g k k m w = J ^ ' #.r.[ i b n.} ` { { ' { ` d v ^ { { { [ ) ) E ^ [ ) R s % y j V S A I ",
"t t u k e % 5 2 1 b B B B m Z D H K E ` ..9.x.x.w.' r.j.i.9.#.s.) 0 ~ 9.^ ^ ( ` [  .b # Z ^ ! ~ ~ E v V S S V l y l v d > y l a ",
"J R I P ~ H $ $ ~ M.d.r.j.s.l.N.N.c.N.l.,.:.:.O.,.p.=.#.$.=.=.9.q.a Z { ` ( ~ ! T B 6 , r v v x j p 5 , , j I ^ ] +.4.3.D U [ U ",
"[ &.[ | [ { e S J.^ [ q.=.=.=.#.=.:.{ { q...{ r.p.' [ s.` ^ 9.w.y.s q I L p 0 l v C I E ~ ^ ~ ) Q L ~ p 4 ) 3.[ [ ) / ) ) ) ` [ ",
"~ ( _ _ ) ..v R V.^ ' 9.$.=.=.#.{ p.Q Q t.[ ` @.{ [ { 1.) Q 4.=.[ H , , 0 d Z E | :. .) ^ [ ` ` ` ) %.~ 9 I { ( ( ) ( ( ' ) ( ) ",
"R E _ ( / ! h ( y.4.9.=.,.:.:.:.,...) ) ) ( ) ^ ^ ) ) ) ) [ ) ) ) ~ 7 t ) o.%.[ E ~ ) ( ! ) ) ( ( ) { Q 9 N { ) ) ) ( ( ^ ^ ( ) ",
"~ ( ^ ^ ) J r [ s.%.=. ...{ { [ ) ~ ) ` ( ) ( ) ) ) ^ ^ ( ( ) ' [ ( w F y.) ( ` R ~ ` ` ' ) ) ( ) ) ' E q E O.) ) W ! ) ( ( ( ( ",
"~ ' ) [  .I 0 x I q.q.{ ` { { [ ' ) ) ( _ ) ( ^ ) [  . .| [ ' ` I k * k 3.) ) ` ) ( ( ( ^ ( ` ` _ ' ) ! 8 J 5.| @.[ [ ) ( ( ( ^ ",
") ' R D v 5 - O 5 Q ..4.w.%.' Q ! ' [ [ ] [ { %.%.[ ) ( ` ^ L k = g L 3 P t.@.[ ' { { | { { [ ' ) ( ( E 5 - g M J ) E ~ | ) ( ' ",
"d y j r B ' U m s 9 , 5 s k j d A H E ) ( ! I V s 6 < 8 6 5 = o o e k % > H H v S S B B N N m h r t 6 3 * $ X . % 2 , a B B A v ",
"k = I %.9.H.J.S.w.` U z 5 , * % 2 4 4 7 y 2 # 2 5 0 p d q 0 v A Z x c J D Z D H k 9 p 0 3 * o 0 B q J E ^ W S U ~ I I v t j k c ",
"E 4 [ d.( ` [ { :. .w.N.5.( E I D J I H : % T :.' [ =.$.) (  .%.%.4.4.4.:.+.} o.{ ! { ) W W 6 Z S.` =.N.s.x.x.c.j.N.v.1.` ) { d.",
"v , ) V.' { [ $...) ' ' { :.4.:.$.&.9.d.8 m K.| ) ' ( ~ ' ' ' ' ( ( ) ( ( ) ( ( ` ' ` ` [ %.l x j.9.{ #.[ =.$.$.,.' ` w.=.4.r.{ ",
"Q r v Z. .| t.| ' | | { | [ {  .@.' @.( ; g 9.{ ! ^ ( ( Q ' | _ ) ( ( ) ) ( ) ) / ` ^ ` ) { c t :.f.7.#.=.w.( ) f.$.#.9.=.=.,.' ",
"' e B N.~ :.=.( ' | { ' ' ` ) { _ _ ) K 2 5 $.:.~ ' { ` ( ) _ ~ ^ ) ( ) ^ H ) ' ^ ^ ^ ( ^ ` c A N.=.{ =. .=.{ [ { =.$.` ( ` ` ` ",
") e K G.` ( ` ) ) ) ` ( ( ) ) ( ^ ) ' ' u 8 ,.' ) { ' ( ) ( ^ Q ~ ( ~ ( ~ E ' ~ ^ ^ ^ ~ ^ { l b Z.=...s.[ ~ { ) ) ^ ~ ( ) ) ` ( ",
"R 4 d r.y.` ( { ( Q ( ( ( ` { [ ' | | { e * $.4.( ^ ^ ~ ! ^ ^ ^ ^ ` ' ^ ) { ' ' / ^ ^ ) ` ^ 9 t w.l.5.%.{ ) [ ` ) ` ) [ ` Q ) ) ",
"4 l a d ^ O.[ | V.r.y.d.r.( Z I P m k y , X S r.' { W Q ( { _ ' ^ Q {  .{ ( ~ ..=.=. .) E k . % 8 a k v ! ( ^ ~ ~ ^ ^ W L h p g ",
"% m c # 2 h x t C J A D B e # - 9 Z I L Q J > p J p.f.=.q.| ) ! v 0 s B j t r t s s y t d y k B d t = # 4 0 d s a y t 9 5 % % % ",
"~ E J J 0 0 k q 5 < = o - D ^ Q ` N.x.d.j.A.E k 8 K :.L l g h q h b S W x . - q d c b v W  .s.c.v.{ b D G y # @ v I H J U V I ( ",
") {  .:.Q ~ | { ^ W ^ N a A.A.x.s.:.$.,.{ ..,.l.` u 5 j S I Q I ' %.+.t.N 5 ) d.t.Q O.9.j.4.{ #.8.` ) M.M.S o y { y.@.[ [ [ [ } ",
"~ ) ` ( { I E | ~ ( 3.S 6 ) w.{ ....[ #.' ..w.9.m.B y %.:.%.{ { ) ` :.J 0 ^ n.t. .^ 4.w.4.%.%.[  .4.r.d.~ = 0 ^ { ) ) ) ) [ [ ) ",
"( ) ( ) ) ( ) [ ) ) ^ D 0 E s.$.{ [ ^ Q { =.#.:.[ v E t.) I E ~ ( ) T q I m.=. .9.#.{  .+.%.%.4.%.#.4.+.p % J [ [ ( ( ) ) ( ( ( ",
"Q ( ^ ( ( ) [ ( ) ) ' ' y ( F.d.' E [ ,.{ ` W K m 4 s v l y x v a q $ v S.4.%.q.[ ^ ^ ( ( ) { ] ( ` [ J # p ^ W E ) / ^ ( ^ E ^ ",
"Q ) W Q ( ` ) W ^ ) ' ' i s I V v 5 y M r y i y s l x m H T W W R r   S 9...q.4.~ ~ ( ) ( ) ) ^ Q { ) 0 5 [  .W I ) ( ~ ^ ^ Q ( ",
"^ ( ^ ^ ( ( ( ^ ~ ^ ) { k X , t l Z J H Z L ~ ' | | O.| | | ' { { I 2 , U d.=.' ^ ) ) ( ` ` ) [  .[ l # V %. .[ [ ) ) ' ) ) ` ( ",
"( O. .{ ' ) ( ) ( ( ( ( g k [ [ ' @.| | %.) ( ' _ _ _ ( R ^ ( ^ Q E t * | 9.) ' 9.w.9.4.@.) R R K y o # 0 D U I J Z I ^ ^ ( ) ) ",
"u v Z I ~ ' I R { ` ' ) s S d.` ) [ ) ~ ^ ` ' ( Q ^ ^ ^ ^ ( ( ( ) { Z 0 ' 5.) I ~ ` K v a q 7 4 , 3 e 0 = $ , , % $ 5 q t u p s ",
"Z Z x 5 = 6 5 6 j m J ~ s c 5.5.[ ~ [ ) ) ' ( ` { ' | ' [ [ ^ ~ ) / E a y s 0 = % % = 0 p x C L ^ ` ) ! R V 5 , v K I I I J V A ",
"{ 5.^ , e V d J J m 5 e 2 6 g h r 5 a l N k p l v l k l g s a s s t 6 < * 5 a V H B ) 5.%.%.4.9.%.{ [ [ [ :.k t [ y.@.[ @.@. .[ ",
"( ` ( x m n.' $.5.:.^ P R E J m v N w 7 j r K U H S Z S k p H A m j y = 9 ..V.q.| +.O.' ` ) ^ ~ ( ( ) Q ( @.v 6 R @.( ^ ( ) ` ( ",
"! ( @.^ s ( ..~ ~ ) { { O.' | $. .4.{ i q ) 9.| O.O...| [ [ :.| [  .{ y = K 4.{ ( ) ) ( ( ) ) ~ ( ) ) ) [ | c a { { ( ` [ E Q ) ",
"^ ( {  .k I :.) _ W Q ~ ( Q ( _ ) ) { q l u.) Q ( ) ) ) ) ' ) Q E { ` Z o B 5.! ) ) ) ) ) ( ' { [ ) ( ( ) [ r % A U ( ~ ) ' ' ` ",
"E Y Z E B s ' Q ) u.$...| { ' _ ' ' ) l c ( ^ ) ) ) ) ) ^ ) ) ( ) ) W S % l q.[ ) ) ) ^ ( ( ^ ` ` ^ ( ! E m 5 a y t a i 9 l L ) ",
"q h e 0 5 = 0 , 5 m v B S J H J I ) ( g 3 J [ ' ) ) ) ( ( ( ( ) ( ) ) ^ a = ) :.~ ) ( ^ ( ' { ^ E ! ' ( D 5 K d.%.) R S B h 9 e ",
"H  .[ ) K ^ ) R e ; r x v v m m v x t % y [ { ! ! _ ( Q Q ( ^ ~ ^ ~ ^ { J % N 5.&.^ W ! ~ ) ' %.:.| [ Q t B m.d.p.d.x.r.j.N.` , ",
"9.D.v.s.u.4.$.N.R L u.|  .O.| { ( ) l o g | [ ^ ` ` ( ( ) ` _ _ ( ( ( ` ` 0 1 ` _ R 5.%. .[ P J ~ I v y @ B | ) ~ Q _ [ } +.{ d ",
"j J J I _ [ { { Z p ^ $.) Q T I E ^ J o 5 T ( ) ( ` | | ' ` ( ) { ' ^ ^ ( x # < 0 k ^ ! G n s > < , - - 2 5 5 5 t y a k v N A a ",
"j y y j 0 a s y 9 - e h c x k x v y 0 s t p r q g 9 0 y y y y u l v s x c # 6 c s y , * h ( #.` Q E L L G Z x p b v c c v v N V ",
") P ' ' y o y S R ( T m R ^ ( ) _ ~ E | ) I V 0 + y J R R L J v 8 j k s y 6 t d S R = # ) H.h.c.c.Z.S.B.h.,.$.$.%.%.3.%.$.o.@.o.",
"^ ` 4.@.P v &.| [ [ [ [ [ ' ` [ ) [ { ) ' { &.( ; [ S.,.V.u.u.5.^ &.:.@. .| ) H 0 = 6 x ^ h..._ ) ' $.4.p.p.q.,.O.O.&.$. .{ } @.",
") O.{ 3.R H O.~ ~ ' ) ) ` ' ( P ( ' ) ) _ ) ' ` 8 Z c...' ' | [ &.{ ' _ ' 4.:.u.| 5 e A.L.Z.r.| { _ ) { ( ` | ` ..:.' ' o.o.[ { ",
") [ | [ A P @.) ) ( ) ) ' ) ~ I ) ) ( ~ ( ( ` ` y W h.| [ | | [ ' | :.{ ' | [ | t.v y h.J.( _ ) _ | { @.W ` | ' d.$.{ ) E 4.[ ` ",
"^ _ [ E t J +.( ) ) ) ) ) ) ) ` ) ) ^ Q _ ) ` ` p Q ,.| @.' ' { | 5.&.| | _ ^ | { d 5 ..Z.` [ ( _ [ | [ | ,.:.h.q.` O.) I +.) ( "
};
