/* XPM */
static char *c3cad3800a3a4bb3f1ddcfec42c79082Gt0FPr6eyR8owUnB[] = {
/* columns rows colors chars-per-pixel */
"64 64 192 2 ",
"   c #3F2A22",
".  c #463427",
"X  c #45342C",
"o  c #4B362C",
"O  c #4D3A2C",
"+  c #523B2E",
"@  c #5B3F2D",
"#  c #4D3B31",
"$  c #473134",
"%  c #533D32",
"&  c #5A3E32",
"*  c #554134",
"=  c #5B4435",
"-  c #5D4933",
";  c #564339",
":  c #5C4639",
">  c #5D4A3B",
",  c #614635",
"<  c #644936",
"1  c #684E37",
"2  c #62473B",
"3  c #634B3C",
"4  c #6A4D3C",
"5  c #714E3A",
"6  c #66513D",
"7  c #6D523D",
"8  c #72543E",
"9  c #7A5A3F",
"0  c #5E4D44",
"q  c #644E42",
"w  c #694E42",
"e  c #644741",
"r  c #655142",
"t  c #6C5343",
"y  c #6F5945",
"u  c #64544A",
"i  c #6C554A",
"p  c #6E594A",
"a  c #725643",
"s  c #745A45",
"d  c #7A5B45",
"f  c #72574A",
"g  c #745B4A",
"h  c #7B5E4B",
"j  c #755E51",
"k  c #7A5F51",
"l  c #76614C",
"z  c #7C624D",
"x  c #776152",
"c  c #7D6352",
"v  c #815E43",
"b  c #825E4A",
"n  c #856247",
"m  c #82634D",
"M  c #89654C",
"N  c #87684C",
"B  c #8E694E",
"V  c #956847",
"C  c #956A4A",
"Z  c #9B6D4C",
"A  c #926643",
"S  c #9D704F",
"D  c #836552",
"F  c #896552",
"G  c #856954",
"H  c #8C6B54",
"J  c #816659",
"K  c #876B59",
"L  c #8C6D59",
"P  c #926E53",
"I  c #986E56",
"U  c #926E5A",
"Y  c #8D7156",
"T  c #8E725C",
"R  c #947156",
"E  c #9C7354",
"W  c #94725B",
"Q  c #9B755B",
"!  c #9D7A5D",
"~  c #A2724E",
"^  c #A37553",
"/  c #A47957",
"(  c #A1765B",
")  c #A57B5B",
"_  c #A97D5C",
"`  c #A97B57",
"'  c #B37E5D",
"]  c #8D7361",
"[  c #947560",
"{  c #997560",
"}  c #967963",
"|  c #9C7C64",
" . c #9C7D68",
".. c #A07660",
"X. c #A47D63",
"o. c #AA7E61",
"O. c #A37F6B",
"+. c #A7805F",
"@. c #AC815E",
"#. c #B0835F",
"$. c #9E8066",
"%. c #9E816A",
"&. c #A58164",
"*. c #AD8263",
"=. c #A4826A",
"-. c #AD856A",
";. c #AE896C",
":. c #B28564",
">. c #B58965",
",. c #BA8A65",
"<. c #B2866A",
"1. c #B48A6B",
"2. c #BB8D6B",
"3. c #B8866B",
"4. c #BD916D",
"5. c #BB9066",
"6. c #A78973",
"7. c #AB8A73",
"8. c #AD8E79",
"9. c #A48570",
"0. c #B38D72",
"q. c #BA8F72",
"w. c #B59175",
"e. c #BB9274",
"r. c #BE9876",
"t. c #B59379",
"y. c #BB967B",
"u. c #BD997E",
"i. c #C28E69",
"p. c #C2916D",
"a. c #C29472",
"s. c #C59876",
"d. c #C2977B",
"f. c #C39B7D",
"g. c #CA9D7C",
"h. c #CB9974",
"j. c #CBA07E",
"k. c #BD9780",
"l. c #BE9B81",
"z. c #C39D82",
"x. c #C99D82",
"c. c #C59F88",
"v. c #C89F89",
"b. c #C5A186",
"n. c #CAA286",
"m. c #C6A289",
"M. c #CAA58B",
"N. c #CDA98D",
"B. c #D1A485",
"V. c #D1A78B",
"C. c #D2AA8D",
"Z. c #D9B18E",
"A. c #CEAB91",
"S. c #C8A591",
"D. c #D2AD93",
"F. c #D8AE94",
"G. c #D1AE98",
"H. c #D5B196",
"J. c #DAB396",
"K. c #D6B298",
"L. c #DAB59A",
"P. c #DDB99D",
"I. c #E1B69A",
"U. c #E1BA9D",
"Y. c #E8BC9F",
"T. c #DFB6A0",
"R. c #DDBAA1",
"E. c #E4BDA2",
"W. c #E9BFA6",
"Q. c #E6C1A5",
"!. c #EAC3A6",
"~. c #E6C3A9",
"^. c #E9C5AA",
"/. c #EBC5AA",
"(. c #EEC9AD",
"). c #F2CAAD",
"_. c #F8CCAF",
"`. c #F1C4A8",
"'. c #EDCAB2",
"]. c #F2CBB1",
"[. c #F3CDB2",
"{. c #F9CEB2",
"}. c #F6D1B6",
"|. c #FAD4B6",
" X c #FBD2B6",
".X c #F6D2B9",
"XX c #FCD5BA",
"oX c #FED9BE",
"OX c #FFDDC2",
"+X c #FEE2C5",
"@X c #FFE5CA",
"#X c #FFEACB",
/* pixels */
"D g z k 4 z &.2.2.2.2.,.>.:.:.*._ X.) Q E R N d g > 4 %.M.K.b.y.b.b.b.b.b.b.H.C.b.D.X.i # M p.o.3.b.N.M.N.m.M.c.r.:.3.p.X.2 3 z ",
"t.W t y a = , a N H M d s t 7 4 < = % # % * * 2 t d w.L.N.d.w.r.b.b.n.b.b.l.M.oXE.h.P a * t ,.:.o.*.w.u.z.d.f.a.3.:.) m - q D W ",
"<.L 4 | u.b.6.N g z c G T | =.8.8.7.%.W h 3 l G a P n.C.M.z.m.M.n.b.b.b.b.b.b.E.Z.#.t h t o W p.,.>.:.:.1.>.*./ R D w 3 s x Q X.",
"W 8 6.L.E.^.]./.U.J.J.!.]._._. XXX|.|.).P.6.t f w Q ,.q.n.M.c.c.S.N.N.b.b.M.b.w.,.a 3 h h ; % G ) ( Q W P H h t : - 6 a z h { X.",
"s | P.M.D.A.A.H.P.^.}.[.^.~./.'.Q.E.~.'. XoXM.a ; H 5._ *.b.M.M.f.1.1.c.A.b.4.*.5 ; D U G z > + ; > 2 : = , t z T | =.W g f z Q ",
"G M.4.o.( _ f.u.f.m.A.Q.].).Q.D.b.b.b.A.E.).oXw.2 t *.>.` *.M.y.S ^ >.A.c.p.` < ; H -.u.L g c a 3 4 h { 7.c.H.Q.].XXOX].R t h g ",
"w.f.Z *.<.<.M.l.&.w.l.b.P.E.M.t.y.c.b.u.z.P. X/.G * H 4.*.o.f.u.0.N.A.f.2.R ; q Q *.=.W a < 6 H t.D.~.XXOXOX@XOXXX}.+X XQ < x l ",
"r.d.1.b.V.V.m.m.f.f.b.z.u.u.K.Q.H.M.u.z.b.u.Q.{.Q : t ( 4._ <.l.b.y.2.,.H * r D K L s , h 8.A.Q.[.(.U.H.J.J.K.[.XXoX].C.Q 3 h G ",
"w.A.M.M.b.b.b.b.M.M.c.b.b.z.M.J.E./.P.l.b.l.A.Q.:.6 i 4 *.p.@.X.@.>.,.n % g L k t 3 m c./.}.E.M.r.u.y.l.R.).d.P.OX(.M.n.P 4 g E ",
"d.M.m.b.b.c.b.b.b.n.b.b.b.b.z.z.z.A./.~.b.b.b.M.1.a h r > Q i.i.2.! 4 % K 0.-.a s t.[.oXK.u.u.b.m.b.b.b.M.N.m.n.D.z.n.n.b 4 j Q ",
"y.M.b.b.b.b.c.b.b.b.b.b.b.b.b.b.b.f.z.L.N.z.m.z.>.g s G r + a c t = 3 } =.-.Q 8 ;.P.U.z.u.b.b.b.b.b.b.b.b.z.c.z.k.c.m.4.g t g X.",
"0.N.c.n.b.b.n.b.b.n.b.b.n.b.b.b.b.b.c.z.z.n.M.z._ a g z m g % % 3 x z Q =.X.s s n.N.d.b.b.b.b.b.b.m.b.b.b.b.b.M.M.N.d./ i s a o.",
"*.b.M.b.m.b.n.b.b.n.b.b.b.b.b.b.m.b.b.z.M.b.M.s.C 3 c z h h s 8 a t 3 7 H R : G C.n.b.M.b.b.b.b.n.b.b.b.m.b.m.y.u.z.2.H - X.D P ",
"_ e.M.b.b.m.b.b.n.z.c.b.b.b.n.c.b.b.b.b.b.M.g.4.d r c 6 6 h G } =.6.w.[ 7 s > E s.N.b.b.b.b.m.b.c.b.b.b.c.n.M.w.y.:.,.a q 0.{ M ",
"-.*.f.N.m.b.b.b.b.b.b.b.n.b.b.b.b.b.b.m.m.M.d.Q 3 y 4 Q z.K.Q.!.). X|.'.} > 2 +.#.u.M.M.M.M.b.b.b.b.b.c.n.M.n.f.+.2.( % G X.O.m ",
"H 2.@.u.M.M.c.n.b.b.c.b.b.b.b.b.b.b.b.b.M.g.e.d : h M.[.].^.).).].'.(.oXM.6 3 *.*.f.4./ y.b.A.N.b.b.b.n.M.n.>.` 5.1.= ; ! *.| h ",
"= F 4.` 1.c.N.M.b.b.b.b.b.b.b.M.N.M.n.m.M.a.P : t H.|.D.c.f.M.A.K.P.P.Y.m.p w _ @.f.d.Z ~ ` *.w.n.b.M.N.d.:.>.i.| = * h W L z d ",
"f % Q p._ +.w.f.M.N.M.M.c.m.b.f.y.d.S.N.a._ a * ;. Xf.&.w.M.l.l.l.l.b.b.t.h a _ :.-.N.d.-.*.` :.N.A.b.f.e.o.P D , = i g g s a t ",
"D - % Q a.*._ *.>.e.d.b.M.C.b.*.-.f.b.1.>.N & z Q.N.) ) l.M.b.b.n.b.b.N.u.z i Q 2._ 1.N.N.M.V.N.b.g.a.E m s q : i H =.y.b.b.l.O.",
"M.Y - O P a.>.@.+._ *.:.1.e.r.y.r.y.#.5.H 3 t r.J.u.w.n.N.b.b.b.b.b.m.M.j.B > P 2.@.o.=.1.4.e.a.*.B a 3 2 6 t R u.P.(.).).(.(.^.",
"[.P.&.q + m 1.2.*.:.*._ _ ` X.-._ @.4.H 4 3 L L.b.m.N.b.b.b.b.b.z.z.b.S.g.( t 7 >.a.,.2.,.*.Q b 4 ; > t t L f.).XX].(.(.).(.~.(.",
"/.).U.0.f % t E e.2.:.@.*.:.*.:.4.2.d : x 4 0.D.b.b.b.b.l.u.u.b.M.b.b.l.f.*.G : a Q E H b t ; & i g y Y b.). X(.L.D.D.H.K.Q.).~.",
"(.).(.J.y.c > 2 9 R <.2.2.2.2.>.R e O z t d s.M.b.b.b.n.D.H.P.^.XX[.(.!.N.*.M p > 3 w t p c } R a 8 =.L./.U.b.-.*.:.#.1.d.b.L.~.",
"D.E.[.(.L.0.d x e = 3 s N G z 3 o o h z + H 2.c.M.b.b.M.F.H.H.H.J.(.oXOX[.d.C i D x z z X.=.0.X.8 7.L.M.b.0.^ ^ ` ( C C z.b.z.M.",
"u.d.N.^.(.H.( a D z t % .     . : g G r o X.>.>.N.M.m.c.b.u.l.z.u.y.D..XOXD.( a h z h 6 1 H =.h T H.b.b.M.y.) @.*.1.y.b.b.c.b.z.",
"b.c.u.b.P.L.e.d 6 G h s D L L K G s 7 t O h p._ 1.M.M.M.m.b.b.b.b.b.w.J.OXJ.( t z a t [ %.m m i &.H.b.b.b.n.r.t.u.n.N.M.b.b.b.b.",
"b.m.m.M.u.0.p.Q 3 h s k.!.`.[.).Q.H.t.K t O H a._ q.n.r.b.N.M.b.b.b.b.z.D.n.E 0 t a c.(.OXR.a 3 -.C.b.b.u.b.N.M.M.M.b.b.b.b.b.b.",
"b.M.N.d.@.:.2.m p 3 =.U.C.M.C.P.(.oX+Xf.s g + G e.*.e._ ~ 1.M.n.b.b.b.b.m.g.d % g M.E.b.F.}.T : &.N.M.~.K.u.b.j.b.b.b.b.b.b.b.b.",
"b.N.d.*.2.) 8 i i d C.M.c.c.z.l.b.H.R.e.a d t o b 2.,.r.*.V 1.N.M.n.c.M.B.o.& t w.D.z.b.l.L.} > R n.M.R.|.N.y.b.b.b.b.b.b.b.b.b.",
"M.e.,.*.m 2 t c 4 X.C.M.b.b.b.b.b.b.d.E w W W t o a 1.s.d._ +.n.d.z.M.n.a.d ; -.s.z.m.n.z.D.[ = B 4.n.b.K.(.K.b.b.b.b.b.M.M.N.m.",
"s.1.W 4 < x c t z ,.<.b.M.z.n.n.u.V.s.d w 6.x.{ 6 $ < ) f.n.N.y.X.f.N.r.C * K B.n.n.n.z.m.D.L * G ,.>.z.b.H.K.M.b.M.b.b.b.y.0.b.",
"*.m - i D h J : m h.>.<.n.y.1.z.r.n.P , K X.;.0.R y % + m 1.B.n.r.g.2.E 6 0 ! g.A.m.z.c.b.D.L - h ,._ &.e.u.u.b.M.M.b.n.e.-.y.a.",
"6 4 c z s 7 t 2 * a P ( 2.j.g.j.e.m % p W W 7 a a 7 g u % @ d *.4.&.g 6 p i :.' w.M.n.b.M.C.G > 4 o.>.*._ _ *.:.1.y.m.M.M.z.h.X.",
"f x t a s G W | T h a w 8 m M v 1 ; g G s d } 6.;. .z t f t * > a < 2 h c 3 R 2._ z.N.M.N.n.h t : R 2.@.*.o.*.@._ _ >.0.2.2.Q 2 ",
"g 7 U t.H.R.^.(.`.!.R.l.c + ; % 3 c z s s y.). X|.(.P.0.G 7 t r : i m b z g 1 :.:.w.u.j.D.g.d f 3 7 a.3.@.:.:.*.*.*.@.,.>.m ; t ",
"Y u.!.|.XX|.[.(./.(.[.XX).=.i D m z z t ( !.|.'./.}.}.XX~.d.X.W G s 6 t h J 4 4 >.e.e.+.n.a.n s x : d >.e.2.:.,.2.4.1.H 4 * t s ",
"P.(.Q.P.D.D.L.~.(.^.(.~. X X] 3 h c i 9 d.P.P.H.H.H.N.K.(.XX}.^.P.D.y.W t p c 2 d ,.j.1.0.r.m p c x : 4 H Q X.( R m 6 ; 2 a D t.",
"M.N.l.w.y.u.y.m.H.N.N.M.M.P.w.3 c g , *.M.N.b.z.l.z.l.u.l.K.(.(.`.}.XX(.k.a s c 3 v 1.n.g.-.c f 4 4 t r 0 3 7 t 3 2 f g a  .D.M.",
"-.d.z.D.~.{.{.P.l.l.b.r.z.M.:.a c * b f.C.1.>.M.b.b.b.b.c.u.L./.Q.~.Q.(.XXr.t g c 2 t &.4.C t d 6.t.$.m 7 l x h D D p s y.N.:.~ ",
"z.P..X+XXX(.W.M.y.b.M.m.M.j.I s r 2 :.j.y.Z V e.A.b.b.b.b.b.l.Q.].(.Q.~.(.). .6 z c 2 < g 7 & 8.#XoX|.Q.-.4 f x h g 9 w.P.+.Z <.",
"].OX].F.m.z.u.;./ ` f.N.b.4.m t * G p.b.>.@./ _ A.b.m.n.c.b.d.b.P.Q.(.~.!.[.N.s f z c c 2 - =./.K.M.K.}.oXu.6 f k i Q N.N.w.w.M.",
"E.D.z.u.z.c.m.M.d.*.y.A.4.) t i 2 ' e.M.;.*.' ` x.m.b.m.b.z.M.D.b.u.K.(.^.)./.W 7 z c 3 6 8.E.M.u.u.u.A.[.OX7.1 i z ,.f.N.N.M.M.",
"u.l.b.b.b.b.n.z.e.b.D.0.>.M r r m ,.-.N.<._ <./ a.N.b.c.b.z.b.'.P.y.u.H././.|.6.6 c : a M.J.f.c.b.m.b.u.J.XX'.G : a 2.*.1.l.M.M.",
"m.b.b.b.m.b.n.m.e.b.e.*.+.7 x 3 W 2.&.g.M.o.o.) e.N.b.b.b.b.z.J.P.u.b.u.D.(.}.b.t s & d.P.b.m.b.n.b.b.m.f.N.oXt.2 @ R 4._ +.1.b.",
"n.m.b.n.b.b.n.c.D.z./ 2.m t x 6 X.,.X.<.A.b.&.^ >.C.m.b.b.b.b.z.R.N.u.m.u.F.}.P.d 3 d 2.N.z.f.M.b.b.m.b.b.f.H.z.a 3 - :.>.+.` *.",
"<.N.m.c.b.b.b.b.M.*.:./ 4 x s 6 *.>.*.) 0.H.b.` ) M.m.b.b.b.b.z.M.E.b.z.b.u.E.).N r a Q 4.y.y.N.M.m.b.b.z.z.m.d.d j 2 8 e.:.:.*.",
"_ <.N.m.b.b.b.M.y._ e.d w D a ; | 2.:.' _ w.D.f.w.M.b.b.b.c.b.m.l.D.E.M.b.l.N.(.L 3 6 L ,.e.f.1.f.n.N.M.u.0.a.s.B w J : G p.#.@.",
"*.X.0.M.M.b.m.M.>.,.R 2 x s z = h 4.&.>.*._ w.A.M.l.n.b.b.b.n.b.b.z.N.N.l.M.M.J.( 3 l a >.:.y.-.:.y.z.q.p.e.e.<.d a z x - H e.:.",
"*.@._ >.M.M.N.u.:.@.3 i m m s g + ) 2.&.:.*._ r.x._ u.M.b.b.b.b.b.b.z.f.N.f.d.D.*.3 D - F a.,.c.r.2.>._ +.Q M 4 t g 7 7 f & N e.",
">.*.:._ *.n.M.>.2.h ; z =.y.U h 0 q 2.1.o.:.@.o.c.u.z.v.b.b.c.n.b.m.b.b.N.+.^ N.*.w h i + L :.:.( P H N a ; . @ t g L %.Y t o L ",
"( e.*.*.o.&.*.i.Q ; p H O.q.z.W h < s p.<.o.:.` 1.C.b.c.m.c.n.m.b.b.b.M.c.@.Z e.1.a s D 4 * i s 8 t > : 3 z  .t.A.W.XXOXZ.M w % ",
"= | p.*.*.@.>.0.- w D } { W ;.w.M j : d 4.0.o.*._ u.M.c.m.b.b.b.b.M.b.M.y.@._ r.>.t i m m x p t 6 t G 6.D.'.+X@X+XOXXXOX).+.z i ",
"u O P a.2.p.4.5 : x H X.! { Q X.L g c 2 s ,.2.*._ <.N.m.c.n.b.b.b.b.b.n.-.E 4.f.o.p i z h g 6 h X.M./.XX X/.P.D.D.m.N..XXXf.z s ",
"G 6 # s Q W 3 ; m g W X.Q { ..O.D s z D > : ! p.:._ y.S.b.b.m.b.b.b.N.f._ e.C.1.' t a z s d  .M.T.E.F.b.z.u.u.r.d.t.V.OXoXC.B a ",
"z z g % o + 2 z z g L X.X...[ h 6 6 t s D q o b q.>._ z.N.M.m.b.M.b.b.b.n.N.q.*.:.6 a h d y.U.x.z.x.z.c.c.b.b.b.l.N.OXP.Q.E.R a ",
"W 0.;. .D f c z h z k D z 7 6 z W [ L s 3 h f # 4 1.,._ y.z.M.n.M.M.M.b.u.<./ ,.X.2 f a ) C.d.^ E r.M.b.b.b.b.b.z.'.!.0.K.!.) d ",
"L =.o.=.0.W g l z g 3 3 D 8.L.[.XX|.].E.8.d 4 f : 3 <.2._ @.2.w.e.e.1.*.o._ >.a.h : z 7 *.e.l._ S @.N.m.m.b.m.b.M.D.d.u.P.!.) z ",
"z L  .{ o.| s t 6 l =.H.XX+X+XoXXXoXOX+XOX(.0.a 7 q 3 ) p.:._ _ ` +.+.*.>.2.e.C * i h : E #.c.z.` E b.b.b.b.b.m.b.l.b.l.K.Q._ d ",
"h d W Q G 5 z W =.y.J.!.P.C.A.M.N.F.P.].XXOX#X].=.6 e 2 m :.2.2.4.p.2.>.*.W s = t W W ; n ,.1.M.j.t.m.m.z.z.z.z.c.b.b.c.N.C.&.s ",
"c p 4 m U 6.w.>.2._ V ^ y.b.l.l.f.u.u.m.E.U.D.OX+XH.F r - - a h h a a 7 q : > h Q y.=.* a 2.` y.A.m.l.z.m.z.b.b.z.u.u.u.b.z.*.8 ",
"x a X.m.D.H.f.e.q.1.>.-.u.M.n.b.b.b.b.l.l.b.<.*.N.].K.m h i ; * * ; ; e t h z ! &.X.L 3 t ,._ 1.b.N.P.Q./.}.}.(.(.(./.K.M.z.) 7 ",
"t B g.f.V.M.n.N.N.M.M.M.m.c.b.b.m.b.b.b.m.M.z.( o.x.V.=.d x x g t t f s s t < 8 W Q z t q @.*.:.b.N.D.D.H.K.(.oX}.E.J.P.D.j.P 3 ",
"d d ) :.1.c.m.N.M.M.M.N.M.M.N.M.M.N.M.n.m.b.M.M.b.u.4.:.s r 4 z =.l.D.P.R.G.l.| z 4 s g : ) >.<.M.b.l.b.z.u.u.H.N.;.&.u.n.a.d : ",
"c g a R X.*.3.0.0.w.w.q.e.1.0.q.y.u.f.x.z.c.z.f.w.*.( v y [ d.E.].(.[.XXXX+X+XOX~.7.h g * R >.*.z.b.b.b.b.n.b.w.0.b.f.1.1.) : a "
};
