/* XPM */
static char *bdbd4b98e9104ba9c4fa98d71ba507547jXEZ721m1ZTqJQA[] = {
/* columns rows colors chars-per-pixel */
"64 64 147 2 ",
"   c #190E0A",
".  c #191007",
"X  c #1D130C",
"o  c #200F07",
"O  c #231707",
"+  c #23150C",
"@  c #25180E",
"#  c #2C1C0E",
"$  c #301D0F",
"%  c #251B11",
"&  c #2C1D12",
"*  c #311F11",
"=  c #2E2014",
"-  c #342314",
";  c #3A2615",
":  c #372815",
">  c #3C2916",
",  c #332419",
"<  c #3A2718",
"1  c #3D2A19",
"2  c #422C16",
"3  c #492F16",
"4  c #422D19",
"5  c #482F1A",
"6  c #453016",
"7  c #45311B",
"8  c #4B341C",
"9  c #4E391D",
"0  c #52361C",
"q  c #553A1D",
"w  c #5A3D1E",
"e  c #603E1E",
"r  c #4C3620",
"t  c #4E3820",
"y  c #523720",
"u  c #553B21",
"i  c #5B3E21",
"p  c #603F21",
"a  c #5D401E",
"s  c #5E401E",
"d  c #5E411F",
"f  c #5F411F",
"g  c #5E421D",
"h  c #5E411E",
"j  c #61401D",
"k  c #61431D",
"l  c #61401F",
"z  c #62411E",
"x  c #62431E",
"c  c #68471E",
"v  c #554021",
"b  c #594021",
"n  c #5B4120",
"m  c #5B4022",
"M  c #5B4023",
"N  c #5D4020",
"B  c #5F4021",
"V  c #5E4121",
"C  c #5D4022",
"Z  c #5C4123",
"A  c #5F4023",
"S  c #5E4123",
"D  c #5F4222",
"F  c #5E4423",
"G  c #5A4025",
"H  c #5C4124",
"J  c #5E4024",
"K  c #5F4125",
"L  c #5F4224",
"P  c #5E4123",
"I  c #5C4028",
"U  c #5D4328",
"Y  c #624120",
"T  c #604220",
"R  c #614321",
"E  c #634221",
"W  c #604122",
"Q  c #604323",
"!  c #634223",
"~  c #644320",
"^  c #634521",
"/  c #624422",
"(  c #634523",
")  c #654421",
"_  c #664620",
"`  c #674721",
"'  c #654723",
"]  c #614225",
"[  c #604325",
"{  c #624324",
"}  c #644324",
"|  c #614424",
" . c #634425",
".. c #624525",
"X. c #614426",
"o. c #604527",
"O. c #634427",
"+. c #624527",
"@. c #654425",
"#. c #664524",
"$. c #644624",
"%. c #644725",
"&. c #654725",
"*. c #644526",
"=. c #664526",
"-. c #654627",
";. c #624424",
":. c #684621",
">. c #694523",
",. c #684724",
"<. c #684723",
"1. c #644821",
"2. c #654922",
"3. c #664A23",
"4. c #664826",
"5. c #674927",
"6. c #664825",
"7. c #6B4A21",
"8. c #684822",
"9. c #694922",
"0. c #6B4B25",
"q. c #694827",
"w. c #684A26",
"e. c #694B27",
"r. c #6C4C25",
"t. c #6F4C26",
"y. c #6A4A25",
"u. c #644528",
"i. c #664728",
"p. c #644628",
"a. c #694729",
"s. c #664829",
"d. c #6A4928",
"f. c #684A28",
"g. c #694B29",
"h. c #6B4A29",
"j. c #6A492A",
"k. c #6C4B28",
"l. c #6D4C29",
"z. c #6D4C2B",
"x. c #6F4E2B",
"c. c #6C4B2A",
"v. c #704F2C",
"b. c #6F512D",
"n. c #75512D",
"m. c #73512D",
"M. c #785430",
/* pixels */
"C ,.i & C f.%.p { { ` } u.u.%.y.f.z.f.z.c.z.z.v.: 8 f.w i i i w w 9.: - %.i p p u p W %.f.> 8 ` w w i C i q { c.1 7 c w w i %.w ",
"q y.H @ 1 r 0 8 5 8 7 7 8 8 t 9 0 u u y u 0 y u & 8 a.i i i w q e 7.: X 2 > 4 4 < 4 4 2 ; # u ` w q w i H w C f.> 8 c w q w o.C ",
"u %.I @ @ * * - - - - - * - - - $ - - = = # # @   t %.q i i w w w t.: # 9 4 5 7 8 8 2 t 8 - u %.w w w q { u i f.< 7 >.w i w W { ",
"i %.y < f.` o.` o.W x W W } W w W w w s a i n w * 8 6.i i q w w x 9.- 4 t.w { { f.%.{ z.n.5 8 9.w w q w H i i %.< 2 x x i q n { ",
"i %.8 < W i w g w e W p W j g w e w s w q w p i & 8 ,.i i i w w x 2.% > 2.9 q w o.H i +.z.1 7 2.e w w q H i i %.< 7 c s w q i p ",
"w W r : n s w q q q w w w w g s w p W W x w i i * 7 %.i p q w i x z.: < ^ q w w W C u +.c.1 8 2.w s i q i n i { : 2 ^ s w q i { ",
"i W 0 : o.w i i w q q w w q w w w w i i i i u p - 8 } w H q u p i y.- < >.w w w { C i H %.7 9 c s w w 0 i { w O.< 2 ^ C w 0 u { ",
"i C t < { { G H C C i i i i i w q 0 q q 0 q q q * 7 W i i q u e s ^ & > c s w w i C u i +.: 7 >.W w i 0 H i w O.< 7 W s C q u { ",
"i C 8 1 s.%.o.+.W C H o.W o.W W H i i i q q w w & 8 p w w 0 i i C ` # : ` w x w q H C i { < 7 >.w i w 3 q i i } ; 3 s u C q 0 p ",
"w W y < i u u u i i u i w i i i i { { p i i i C - 8 u.w w 0 y w w k # > ` w s w q C C q H < 3 W i w i 0 i w w u.< 2 s i i q y w ",
"i %.y 1 %.o.s.F n H o.i i i w i w w w i q w p W * 8 d.W i q q w p ! & < ! q p i q w w q W : 2 C p w q 0 q i p f.< 2 ` w e q q w ",
"%.j.0 > v.v.z.z.z.f.v.z.f.j.k.f.%.%.} ! } a.j.k.- 5 { i w 0 q w q i + : >.w x i q W W C y.2 2 ,.p p p w p } ,.k.; 3 { i p w i %.",
"- - @ @ 4 8 4 7 5 7 5 7 7 8 7 4 4 4 7 7 6 5 5 5 % + # @ # # # & * & X & 2 4 4 4 < > 2 4 : % & - - * * * - - - - X + * & ; - * - ",
"2 2 & % > : < < ; ; ; : < & X - * ; < - - < < > + - 5 8 8 9 8 0 8 8 q q 8 8 8 8 0 8 8 8 y % & 7 5 5 4 4 4 5 4 4 4 4 4 1 1 4 > 4 ",
"j.v.0 2 t.0.2.c c ` c ^ %.i < w p p i w i { %.a.- > >.x F s s s ` W x k ! ^ c ` 9.9.` ^ m.< 5 m.k.j.v.z.v.v.z.k.j.k.a.,.@.@.%.,.",
"i W 5 : i w w g s w w w w 8 - w i i w 0 w i { u.- > i w q w s e i x s w w e w w w q w a H - 4 z.W { { o.W W C i i i i w w q i w ",
"w ! 8 ; e w q w w w e p p q ; q w i i 0 q i i o.- 2 w w i i i i w w w w q w q q q w w C o.= < W u q u u u i q w i i i i p p i i ",
"q w 5 : W i i i w w w q i 8 > i q p s 0 a n w W - 2 i w w i i i w i w i w w w w w i i i o.- < 6.w i i i i H H H H i p p i u u i ",
"0 q 2 ; y.u.{ ! o.i w 0 q 8 < q w W i 0 i H w { - ; i 0 q 0 0 q w i i i p p o.o.{ W o.%.t.- 4 t.{ o.{ H C C C w i q u 0 0 0 0 0 ",
"w i 5 < G i u i C H H { i q 5 w w x i 0 i i i { - 5 p w w i { i { i } +.i { C i i H G n %.- 4 6.i i i C i w w w q i w i i i i i ",
"i i 5 : o.n i i w w i i i q 4 n w x i y H i i { - 5 C q i i H i i i i i q q i u u i i u C - > O.i w q q q q w w w w a i w w C w ",
"i i 5 4 b.c.f.j.,.o.H W } G 2 s x w i q { i i } - 5 %.i w w w w i i i i C o.+.o.+.o.%.o.t.< < ` w w q w w e s w w w s s s x x w ",
"e >.0 - u u u u u 0 8 8 y 4 < C w x w i { i H a.- 5 z.6.o.W W %.%.f.6.j.z.z.z.z.z.z.z.v.v.- 7 m.c ` >.,.c k c c 9.9.6.6.y.2.%.>.",
"> > * X & & - - - - - - - O : W g i w i { i i f.- @ 4 4 4 4 4 4 4 1 4 7 7 4 4 4 4 4 4 4 5 X & 8 2 5 4 2 2 ; 2 7 8 8 4 2 r 2 > 4 ",
"5 8 - % w q w w q w i { %.0 : ^ x w q w ^ u C j.; - 2 2 5 ; ; 2 > ; ; . # ; ; 2 > 2 > 2 2 2 7 2 4 4 7 2 2 > 8 , & 2 > 6 6 5 7 : ",
"f.M.i $ x C i i q q w i u.i 4 C w w w x F q H f.; 8 y.W { i i p p ` W $ 0 %.x x W c ` ! k c 2.c ` ` c 9.0.9.b.0 > y.w k ` u.z.{ ",
"{ j.y # W w w w q q w w W u 1 s x w w i C u o.z.< 5 i i i q q i w w w - 8 i q q w w w w s s w w w s w w w w s 7 > o.q w n C o.u ",
"H f.y * i w H i 0 q i i w u 1 p w w i i n w o.z.; 4 p i { w q i x i w - q W i w C C s i w w w w w q q q q w { 8 : ` w 0 w C H i ",
"{ ,.y - W w s C 0 q O.i i u 4 i w q q { G u u.z.; 7 ^ u H H q i s s i ; 0 w i i i i w i w w w i w w C w i w { 8 > k s w w i { i ",
"H { 8 - i w x C q w } i w u 4 o.w q w { H i u.j., r %.q i { w w g e i ; 5 q q 0 0 u q w i C C H C o.o.o.+.o.f.r 1 x s w w i { i ",
"i O.5 - ^ w j w q i p u p q > W g q w ^ H u +.f.- r s.i i o.w w q x i ; y i w i i { i C H { C C i H i i C i H 8 1 x w ^ w i i { ",
"i p 4 - ^ i x w q i p i { q < W g q w W H i s.z.- 8 c.G i o.i w w w i ; 0 p q i C C C w u i u u i i q w i i C 8 1 e w C i 0 i { ",
"w C 3 ; x w w w w C H u o.u 1 W i w w C i i s.c.; y z.i i %.i w 0 w x < q o.i w i i w i H C H { %.u.o.%.u.c.f.u < C w s i 0 0 C ",
"W %.y ; W e g w q %.C q ` q 1 t.%.` f.t.%.%.z.v.; u b.u.p v.o.! ^ s o.: u ,.,.W i { { { u.u.f.f.a.c.f.f.f.f.z.y ; %.W p { w w x ",
"2 5 # - 6.x q w i { w i W o.& , : - , - : < 1 < % < 9 8 5 8 5 7 7 6 7 @ @ ; - - - - - - - - - : ; ; ; * , - : % @ 2 < 2 4 2 2 5 ",
"8 8 2 > e x w q i { i u o.y.@ O * % - - # & * * X % - * = # * * # # X = 0 8 r 8 8 8 7 8 8 0 y y u y y y t y u ; % 3 5 5 5 8 7 8 ",
"9.7.^ 8 w k s w i o.i u s.H - H y.` f.j.6.{ z.f., 9 %.W i i i e i p < 2 j.9.W W W ! ! %.u.6.y.y.c.j.f.j.j.z.m.0 > ,.C ^ W c c ^ ",
"q w 0 4 C ^ q w i +.i w y.+.- y w i i ! i i %.+.: u s.s i u q w i c ; - ! p i i i i w i i q q w i u G G H C { 7 > W i s s w w w ",
"q u q 7 s s q q n +.u a s.I - 0 s w w { u u %.u.- u C w i 0 w i q W 2 < ! w w i { H H C C H i i i u i u i i F 4 4 W s i i w w q ",
"C F q 1 W s q u C u.u n u.{ * w x q i { i i %.u.- 0 i w i 0 w i w W 2 - w 0 0 u i u w C C C F W O.+.+.+.%.o.z.9 < w q 0 q i i n ",
"{ u.H 5 C g 0 w i u.u G f.H = q g q w W i u +.u.; t n i o.q q x w ^ 4 ; w q q w q w q i w q w a w w a w i i o.7 ; w q i i { o.o.",
"u i t 4 C x q i n u.i G c.H * q x q q C i i %.s.; 0 i i { q q w w c 2 < W w i W C i w w w w w w w w 0 0 u q %.7 2 ! i { H i w i ",
"H ^ u 4 W x w C C 6.i H z.+.& 8 c w w C i q o.f.: 8 W u H i i i g ! 2 - i i u q w w i w s s w w a w w w q C H 4 2 { w w i i i i ",
"z.n.s.4 { C q F n s.i s f.i * i x w w C H i { u.: 0 o.i H i w w w c 2 - { ^ ^ g W s c c s 9.9.2.^ c y.0.9.c m.y 2 v.! ! %.f.z.v.",
"4 5 4 @ - : , ; - < - : : & = W e w q i G w i u.; t { i H i w w w c 7 O 2 > 4 5 5 7 8 5 5 7 7 4 1 2 4 7 4 > 8 & @ 4 4 > 4 4 7 5 ",
"4 5 & = q w u y 0 0 8 0 0 2 : H e w w u H w p o.; u o.q W i w w g >.7 & 8 4 4 4 7 7 4 r r + # r 8 7 7 7 8 8 7 7 7 2 4 4 4 1 4 1 ",
"y.c.0 2 F g s s c x ^ w p i < n c p w q i i i { - i f.q i { w w w c 2 4 n.C ` ` k.` C z.v.- 5 m.z.z.z.z.z.z.z.j.f.f.a.` } ` { o.",
"w +.7 > F 0 0 w w j s W i q : 0 >.w i i G i { i - i f.u i { i w w c 2 1 >.w w i W H i a.z.- 7 y.o.o.o.H W H i w i i u i i q i i ",
"w W 5 4 o.w w q w w i C w w < i x s i q u i i i - G y.i u %.n q w %.> 4 k.w w i %.i i o.z.: 1 H w i q i i u u q i i i p { H H i ",
"u w 2 > H i i w i w w u w 0 : v c s i q i { i i < C 6.u i o.i q w 9.2 1 7.q q w +.i i %.z.- 7 f.{ H o.H H { { o.o.o.{ i i i u q ",
"0 w 2 4 z.+.o.o.W C w 0 u 0 - 0 2.C i 0 u W w i ; u f.i i +.i q q c 4 4 c w q w O.i i o.z.- 1 y.i n H C i i i w w w q u q q q 0 ",
"w p 8 > { i w i i H { o.i i ; q W w i 0 q i w i , u j.n i 6.i 0 w t.4 2 2.w q i H i u +.z.- > 2.i w i i w w w w w w w w w C i i ",
"w w 5 ; { i u u i i i H i i > 8 e i i 0 q w i { : u f.i i u.w w a 9.2 > ` w w i { H i +.z.: < o.i w q q q w i w w w x w e W W W ",
"i W > 4 v.%.{ O.p i i q w i - y W w C q w C 6.o.: I m.C { f.F F C t.4 1 ` x w w H p i H z.- 1 } w w w s x x s x j g w x w w q w ",
"q w ; 4 z.%.a.O.U i u q i i # 2 0 8 0 5 8 0 q 8 & 8 u 8 8 u 0 0 8 { : 4 7.w w i C H q H f.- 1 k.^ ^ o.W x s s W 2.w w W w w q w ",
"> ; & @ < : < < < < < < 5 2 % # - - * - & * - # X - 4 < < > < : : < . 4 >.w q w i H i p f.;   : - * - - - - - - $ < : : ; ; ; < ",
"H H y + > 0 0 0 0 0 w q 0 w C w q w i i i u u o.- 8 v.i i y.o.C i j.$ : ` w s w i C w i s.: 1 i 7 8 y y 8 7 u u @ 4 H 8 u u U 0 ",
"%.z.H # 8 { w w a C C s s g k ` x x x c x C W y.; 7 j.H i { x i i k.* ; c s w i i { i i W : r a.^ { ` y.H { z.z.1 0 9.i C C c.w ",
"{ j.i & 0 w w w s F s s j w w w e w q q q w w n = 8 j.i u W w w w 7.* < c s s w w H C i } - 8 c w w w o.q i { u.1 7 2.w w w +.i ",
"H s.i & u i w i C C C w w w q w w q q q w w C ` - 8 z.i u { i q w 9.$ < ` w C w 0 G C q { < 5 ,.q q C W u u O.c.1 8 ` w q C o.v ",
"H f.i & 0 q q q y 0 q w w w w i i i H i H i i %.= 8 j.i i F C q w >.= ; W w C i 0 C C w W < 8 c q q s H u i +.f.< 8 c q q i F u ",
"{ +.i & 8 w q 0 u q i i s F { o.{ +.O.u.+.%.y.z.: 8 z.i i C i q g 9.# ; k w i i 0 i i w W < 3 >.w 0 i o.i i +.c.> 7 ` q q i %.u ",
"C s.I * q w w i { { F C C i i i i i i i i u w i - 9 z.q i o.w q g c & < ^ q C w 0 q w w u.< 2 9.w q w ^ i u ^ t.1 5 ` w q i u.u ",
"{ s.H * u { q w i i i i i i w u i i i H H H W o.: 8 z.n i C w w g x & - W w i w 0 w w C 6.- 2 >.w w i H i q o.z.1 2 c w w i 6.w "
};
