/* XPM */
static char *b84ce5b1c78b48cde059dd14d75d566aSnY6pDLn87ZuyHif[] = {
/* columns rows colors chars-per-pixel */
"64 64 223 2 ",
"   c #0B0A00",
".  c #080501",
"X  c #110F03",
"o  c #1B1A0D",
"O  c #16150A",
"+  c #1D1C13",
"@  c #1A1F18",
"#  c #0D1108",
"$  c #271E15",
"%  c #291E13",
"&  c #1E2117",
"*  c #242215",
"=  c #25231B",
"-  c #29251B",
";  c #2C2A1E",
":  c #2A2812",
">  c #3B2D1C",
",  c #32291B",
"<  c #34361A",
"1  c #2A2D14",
"2  c #2C2B23",
"3  c #292826",
"4  c #322B24",
"5  c #3C2C29",
"6  c #392C26",
"7  c #2E322B",
"8  c #333222",
"9  c #34332C",
"0  c #3A352C",
"q  c #3C3A2D",
"w  c #393724",
"e  c #3D3C33",
"r  c #363A37",
"t  c #2D3835",
"y  c #1C2721",
"u  c #4C371B",
"i  c #4A3E2A",
"p  c #463626",
"a  c #473735",
"s  c #553C39",
"d  c #4B372B",
"f  c #3C4230",
"g  c #464828",
"h  c #58442B",
"j  c #51572F",
"k  c #434235",
"l  c #45443A",
"z  c #4A493E",
"x  c #4A463B",
"c  c #5A4638",
"v  c #545A33",
"b  c #575C35",
"n  c #4D5430",
"m  c #624B2D",
"M  c #644D34",
"N  c #654A36",
"B  c #6B553A",
"V  c #6B5539",
"C  c #75593B",
"Z  c #6E532F",
"A  c #5B6137",
"S  c #666D3E",
"D  c #686E3E",
"F  c #62673E",
"G  c #6A713F",
"H  c #343D41",
"J  c #413A41",
"K  c #3A4646",
"L  c #3E5054",
"P  c #494A47",
"I  c #554A44",
"U  c #545246",
"Y  c #565449",
"T  c #58564A",
"R  c #5B594D",
"E  c #5A5849",
"W  c #4D4A54",
"Q  c #524D55",
"!  c #435353",
"~  c #47575A",
"^  c #5E5D51",
"/  c #55525C",
"(  c #58555A",
")  c #654A4C",
"_  c #6A4D4E",
"`  c #624645",
"'  c #635A4E",
"]  c #755D41",
"[  c #7B5E42",
"{  c #6C4F51",
"}  c #674D50",
"|  c #6D5052",
" . c #615E52",
".. c #725355",
"X. c #755559",
"o. c #7B5A5B",
"O. c #78575A",
"+. c #666D41",
"@. c #686E41",
"#. c #63604F",
"$. c #7A6244",
"%. c #7A6346",
"&. c #6C7242",
"*. c #737B46",
"=. c #757D49",
"-. c #737A45",
";. c #636255",
":. c #66645A",
">. c #6C695D",
",. c #686759",
"<. c #716F5E",
"1. c #5B5862",
"2. c #4C5F64",
"3. c #615E66",
"4. c #7D5D60",
"5. c #53686C",
"6. c #5A6E74",
"7. c #546D72",
"8. c #5B7276",
"9. c #5D747A",
"0. c #5D777C",
"q. c #4D6468",
"w. c #64636B",
"e. c #6A6768",
"r. c #726E65",
"t. c #747265",
"y. c #79766B",
"u. c #6C6A73",
"i. c #726D75",
"p. c #60767C",
"a. c #61787E",
"s. c #797677",
"d. c #84643B",
"f. c #8D6D4D",
"g. c #856748",
"h. c #916F4D",
"j. c #8E704E",
"k. c #92704E",
"l. c #9B744F",
"z. c #8D6F50",
"x. c #906F50",
"c. c #8F7151",
"v. c #947352",
"b. c #9A7652",
"n. c #9D7954",
"m. c #9E7B59",
"M. c #A17C56",
"N. c #A47E59",
"B. c #A17653",
"V. c #815E60",
"C. c #807D73",
"Z. c #846967",
"A. c #7B834B",
"S. c #818A4F",
"D. c #858E52",
"F. c #A5815B",
"G. c #AA835C",
"H. c #AC895F",
"J. c #88867A",
"K. c #918E7E",
"L. c #B18B63",
"P. c #5E7981",
"I. c #627C83",
"U. c #677E86",
"Y. c #7B7784",
"T. c #817E89",
"R. c #67828B",
"E. c #6C8791",
"W. c #6D8993",
"Q. c #728C96",
"!. c #75929D",
"~. c #85838A",
"^. c #969385",
"/. c #999686",
"(. c #9B9887",
"). c #9A9788",
"_. c #9B9889",
"`. c #9C998A",
"'. c #8D8B9B",
"]. c #898794",
"[. c #918E9B",
"{. c #98949C",
"}. c #928F81",
"|. c #A19E8E",
" X c #A29F90",
".X c #A5A294",
"XX c #ADAA9B",
"oX c #A9A698",
"OX c #B1AC9D",
"+X c #B2B09F",
"@X c #928DA2",
"#X c #9D99AA",
"$X c #9A96A4",
"%X c #9F9CB1",
"&X c #A29EAC",
"*X c #A09CA5",
"=X c #A19DB2",
"-X c #A8A5AC",
";X c #B2AEA2",
":X c #B5B3A5",
">X c #BBB8AB",
",X c #A6A2B2",
"<X c #AAA6B5",
"1X c #ACA9B6",
"2X c #AEAAB9",
"3X c #ABA6BA",
"4X c #B2ADBC",
"5X c #B5B1BD",
"6X c #B9B6BF",
"7X c #C5C3B6",
"8X c #B2AEC3",
"9X c #B6B2C2",
"0X c #BAB6CB",
"qX c #BDBACB",
"wX c #BAB7C6",
"eX c #B8B4CB",
"rX c #C1BDCE",
"tX c #C0B7CC",
"yX c #C2BED1",
"uX c #C5BFD9",
"iX c #C8C4D7",
"pX c #D2CEE3",
"aX c #D3CFE6",
/* pixels */
", c %.$.$.$.$.$.] $.] ] C ] ] p @ 0 e e e k x x x l a a f e 0 @ w ] [ $.] [ $.$.[ $.$.%.] $.C $ P t.Y y.>.:.:.t.y.t.r.:.;.:.U & ",
"w G.L.F.M.F.M.N.F.F.N.F.F.F.G.M 2 :.>.,.>.>.>.>.>.>.,.>.,.>.^ 3 C L.N.N.F.N.N.N.N.N.N.F.j.f.G.u ,.:X:X>X:X:X:X>X>X>X:X:X;X>XXXf ",
"* f.M.h.f.j.f.h.f.f.f.x.f.v.g.h 9 ;.^ R R Y Y Y Y Y T R R ^ T 3 B N.f.f.f.k.f.f.h.f.f.h.h.v.h.p Q ;XoX^._._.).^.^.^.).`.`.oX|.k ",
"* B F.f.f.v.h.h.f.j.k.f.z.v.f.h 2 ;.;.E R Y Y E E T E P U R U 3 B G.f.z.h.z.j.k.j.h.k.j.f.b.g.> y.:X^.)._.).`.).`.`.).).`.`._.f ",
"+ B F.h.x.h.v.f.k.f.k.k.h.k.b.h 2 l k z U Y T T E E T U Y T Y 3 V G.f.k.h.f.v.h.j.k.f.k.k.b.[ > y.;X/.).)._.`.`._.)._._.`..X`.l ",
"o $.N.h.h.h.k.k.h.h.h.k.h.h.m.N 3 U U U Y T R R Y T T R T R T 3 V G.f.k.h.k.k.f.k.k.h.k.f.h.[ > y.XX).).`._.`._._._._._.`. X`.k ",
"w F.b.l.l.l.l.b.l.b.l.l.l.l.F.V 3 ;.>.^ ^ R R T T T U T T R Y 3 m M.b.b.l.b.b.l.F.B.B.h.h %.l.u y.-X_.`._._.`._._._._.`._..X`.l ",
": u M M M M c m M M M N V B Z , 2 R R Y Y Y T T T T T T T T T 7 % i B V M M M M u h N h i m s : A.1X_._._._.)._._.`._._._.`.K.e ",
"2 u.$X'.'.].].].].'.'.'.[.'.~.W ; ^ ^ Y R Y E E T T T T Y R Y - I =X$X'.'.'.[.].( e.'.].[.[.Y.@ y.;X).`.`.`./._._._.`.`._.|.K.q ",
"( aXrXqXqXqXqXqXqXqXqXqXqXwXyXQ.- R R E Y R U Y U U T T R R U * ~.aXqX0XqXqX0XiXiXqXrXrXrXiX3X2 t.XX).).`.`.`.`._.(.`.`./.oX^.q ",
"P 3X9X1X1X1X1X1X1X2X1X1X<X4XtXY.; ^ R Y E R P I Y Y E T U R Y * Q wX5X1X1X1X2X<X2X1X1X1X1X2X4XQ <.OX(.).`.`.`.`._.|.J.K..X|.^.e ",
"P 0X9X2X1X1X1X1X1X1X1X1X1X2XqXi.4 ^ R R Y Y Y E T E E I U R U 2   ~.rX1X<X2X2X1X1X1X1X1X1X4X8XW t.OX(._._._.`.`._.`._.>.oXy.C.P ",
"Q qX1X<X1X2X1X1X2X<X3X3X1X<XrXs.2  .R Y Y R Y Y T ^ U z ^ R Y - $ &XqX<X1X2X1X1X2X1X1X1X2X4X8XQ <.OX(.(.`.`.`.(.`.(.|.C.,.U C.' ",
"Q iX1X<X4X,X&XwX4X2X2X8X4X9X,X1.0 ^ R R R R R R ^ Y l E R  .Y + s.pX<X2X1X2X2X2X2X1X1X1X1X2XyX( R XXoX.X.XoXoXoXoXoX|.XXJ.w x k ",
"/ pXrXqXqX0XqX$X8XrXqXqX0XiX3X3.6 R ^ Y Y Y Y ^ U a Y E Y R P $ ].aXwX0XqX0XqXqXqXqXqXwXqXrXiX1.% ;.,.;.;.;.;.t.t.r.r.>.y.R X O ",
"; 1.u.e.e.u.i.e Q u.w.w.3.3.s.P O 3 4 3 7 2 2 2 + 2 8 ; 4 8 - o e i.e.u.e.e.w.w.w.w.w.w.e.u.w., X = - ; * $ = O o o o + + = : * ",
"o d _ N ` ` N _ ` ` ` ` s s s $ 5 N j n g h n : l y.r.r.;.;.<.< @ K ! ~ L ~ ~ 2.2.2.2.! L L K o s.*X~.Y.@X1X#XJ h g.g.g.C l.g # ",
"4 Z.V.O.O.O.O.O.O.X.X.O.V.V.V.5 b S.-.=.=.=.A.f J.7XoXXX.X;X>Xk t Q.!.Q.W.Q.Q.Q.W.W.E.W.Q.!.R.f &X9X8X8XtXrXyXi.d.F.F.n.F.H.g.- ",
"0 4.{ { { _ } } { } _ _ _ _ X.a b -.+.F S S G g J.oX(./.`.`.XX' 3 R.0.6.8.8.6.7.8.6.7.8.0.P.7.P ].'.4X8X<X<XtXs.d.k.h.f.f.h.N.i ",
"5 X.| { } { { { { { { { { { X.s b -.+.+.S G G g C.oX(.`._._.XXR y P.0.9.0.9.p.8.9.9.0.9.P.P.7.K ].@X<X4X2X3X0Xr.C b.h.h.b.] ] h ",
"4 X...{ { { | { { { { { { { X.a b &.A +.S S &.g C.XX/.`.(.(.oX' @ P.P.9.9.9.9.9.9.9.6.6.5.~ K 4 [.[.4X2X<X2XwXi.d.k.h.x.m.N [ c ",
"4 ..O.{ { { { { { { { { { _ X.a A &.A &.S S &.g C.XX/.(.`.(.XXE O P.U.8.9.9.9.9.a.I.p.p.9.a.5.r {.,X2X2X1X2X0Xs.d.x.h.h.h.b.b.i ",
"4 { O._ { { { { { { { { _ { X.a v *.S S S G G g s.XX(.`.(.`.oXR X 7.U.8.9.p.8.p.9.9.9.9.P.I.7.r  XeX3X<X2X2X0Xi.d.k.j.k.f.$.b.i ",
"4 { X.{ { { | ..` _ { { { { X.a j *.S G S &.&.g C.XX(.`.`.`.oX' . 2.R.9.9.9.9.9.9.9.9.9.9.I.7.H $XtX<X2X<X2X0Xe.C l.h.x.f.] b.i ",
", } | } ..{ ..I ) { { { ..{ X.a j G S S S S G g A.OX(.|.(.`.XX;.. ~ E.8.p.9.p.9.8.p.p.9.9.a.7.r {.wX1X1X3X4XtXe.C l.h.h.z.b.n.g ",
"4 ) { { { { ` ` ..{ { ..{ { X.a v A.+.F G S G f E.OX(.(.`.`.XX;.. ! E.6.9.9.9.9.9.p.9.8.0.a.7.r  XtX2X1X3X3XeXe.d.N.h.h.k.k.b.i ",
"2 ) _ _ ..` I ..{ { { } { { X.a n *.S S S S G g C.XX/.(.(.`.XX;.. ~ W.8.9.p.p.9.p.8.9.p.9.I.P.K {.tX2X1X<X4XeXi.Z V b.h.h.h.n.i ",
"4 ` { X.` I O.{ { { { { { ..X.a j A.+.+.G S *.g s.XX(.(.(.(.XX;.  1.E.9.9.6.9.9.9.9.8.9.9.9.! - *X0X2X4X<X@X8XC.Z C b.f.x.x.b.i ",
"4 X...s s X.{ { { { { { { { X.5 v *.S S F S G g C.OX/.`.(.`.XX' O 9.R.8.9.9.9.9.8.9.p.6.9.U.K + *XtX2X1X&X$X8Xi.d.n.h.f.h.v.B.i ",
"5 c p c X.X...X.| | X.....O.} 5 A A.S S F G *.g J.:X|.|.|.`.+X#.@ R.Q.I.U.R.R.R.R.U.W.6.U.W.E.K {.uX2X1X4X8XuXC.g.n.b.b.b.B.n.i ",
"& O 6 _ } } } { { ..{ { { ..` 5 g A.S S G G G g r._.`. X.X.X+XR O K ~ L P ~ K K K K ! r K ~ W 3 Y.8X[.'.#X#XeXQ Z h.f.g.g.f.g.6 ",
"* O % , $ % $ % % % % % % % % $ & : 1 : 1 1 1 # o > 0 0 q f w ; O . . . . . . . . . .   . . . o = 3 4 3 3 3 3 O O $ $ * $ * $ * ",
"; K ~ ! ! ! ! ! ! ! ! ! L L L 3 $ W / W Q ( 3.e. .Q W W W W W = , M V V B B B B B B ] B B B M * 1 < 1 u < 1 1 g g f f < 1 8 1 & ",
"7 W.!.R.W.E.E.E.E.E.E.E.E.W.W.K W uXuXrXyXiXpXiXiXiXrXrXeXuXeXW m L.G.G.F.F.F.F.F.N.F.G.c.c.L.p n =.A.D.A.A.A.D.S.A.A.A.A.A.&.; ",
": 8.R.8.9.8.9.8.8.8.8.8.8.0.7.t 3.rXqX6X9X4X1X1X4X4X4XqX8XrXeX2.m G.g.f.f.z.z.z.h.f.f.h.z.f.v.p w A.*.A &.&.&.+.S F D G &.A.*.8 ",
"= ~ W.8.9.9.8.9.9.8.0.9.9.a.8.H Q qXrX4X4X<X1X1X2X3X2X$X,X4X8X/ m G.f.k.h.h.x.x.f.h.h.h.z.b.f.5 v A.G G S S +.G D D D S S +.S < ",
"* ( W.8.9.9.9.9.8.0.8.0.9.0.a.f Q ].[.$X=X1X1X1X<X4X<X&X<X5X8X/ m N.z.z.h.f.k.h.h.h.f.x.x.b.g.6 n A.A &.+.@.@.S S S S S G &.@.8 ",
"O q.W.8.8.0.9.9.9.9.p.8.9.P.I.K Q T.C.[.*X1X1X2X2X1X3X4X1X5X8X/ m G.f.h.h.h.h.x.z.x.h.h.b.x.[ p n A.S +.+.+.S @.@.+.+.@.S @.G 8 ",
"7 E.R.I.I.I.I.I.I.R.I.I.P.P.E.L Q yXiXwX5X2X1X4X2X<X1X1X2X4X8X1.h N.B.b.b.b.n.n.B.n.M.l.N g.b.p n *.A +.+.S S S S +.+.G @.&.G < ",
"3 K L L L L L L L L L ! L ~ ~ = Q 8X9X<X<X1X<X1X1X2X2X1X3X4X3X1.: m C C C C B V Z B C M i N B ; v A.+.@.S @.+.S S G @.+.+.&.A 8 ",
": U C.t.y.t.<.t.t.y.y.y.y.y.<.< W 9X9X<X4X1X2X2X4X2X1X2X1X5X8X1.$ z x z l P x l 9 q f z P x 9 @ b =.S @.S +.S S +.S S S S &.A 8 ",
"P >X+XXXOXOXOXOXOXXXOXOXOXoXOX#.Q 9X5X2X<X4X<X<X&X,X1X2X4X5X3X( q r.^ R ^ ^ ^ ^ ^ ^ ;.;. .:.Y $ b =.S +.S S S S S S S +.&.&.A 8 ",
"k `.oX(.)._./.(.(._._.(.|.(.oX#.Q 0X4X2X<X4X$X$X<X-X4X4X#X<X1X1.; R R Y R Y Y Y Y Y Y Y Y R U 2 b =.S S &.S S G +.S S S +.&.A 8 ",
"k XX.X`.).(.(.(.`._._._.(.|..X' / 0X4X1X1X2X,X1X4X1X4X{.{.5X2X1.X x ;.Y Y Y R R R Y T Y Y R R 3 b =.S S +.+.S S +.+.S S S &.+.< ",
"z XX`._.(.(.`.`._.(._.(.`.(..X#.( qX2X<X2X1X4X1X1X0X$X~.0X8X3X1.X Y ;.Y E Y Y Y T T Y Y R R Y 3 v =.S S D D S D D D G G +.&.A.1 ",
"P ;X_.^.|.}.}..X|.(._.`.`.|.(.z 3.yX4X4X4X4X4X2XqX1Xs.-X9X8X8X/ q >.Y Y R E Y Y T T Y Y Y Y ^ 6 j =.@.D G G D D S D G G +.G A.7 ",
"U >X:XoXXX.XoX/..XXXXXXXXX:X/.x 1.yXtXwX8X8X9X0X<XT.,XuX0XyXeX1.f ,.Y R R R R ^ R R ^ ^ R R ^ 0 g G D &.G G D G &.&.G G &.*.S < ",
"2 ^ ,.;.;.,.e.9 P :.;.;.;.;.r.e o 1.w.w.3.( ( w.r 1.Y.1.u.u.w.5 * w q 9 0 q w 9 w 9 9 w 0 q 9 @ o 1 < < < < < g g p g < g g < & ",
"+ : > > 6 > p i p i p > > > > X e 3.( / / i.i.3 o p 5 a p a $ X = y.).J.K.~.J.J.J.J.J.J.J.J.>.; R Y.i.w.3.u.w.3 t W K K H K K $ ",
"> v.H.F.F.F.F.H.H.H.F.F.F.F.H.u '.yX<X3X9XiXpXi.s V.V.O.X.V.` . U 7X>X:XOX:X;X:X:X;X;X:X;X:X+Xr.<XpXuXrX0XiXtX/ 8.W.E.E.P.!.P.3 ",
"4 m.H.b.b.b.b.k.k.h.j.b.m.n.F.h ].=X-XwX6X<XrXT.s X._ _ { ..O.$ Y :X^.^.(.^././.^.^.^.(.^.^.`.y.,X5X<X4X4X4X4Xu.7.7.9.8.I.I.9.7 ",
"; f.b.f.h.f.f.h.k.h.h.h.k.b.n.h T.@X,X4X<X2XrXY.s X.{ { { _ } 5 U oX`._._._.`.(._.`._.(._._.`.y.&X4X2X<X<X4X4Xw.7.P.0.9.9.p.P.t ",
"* g.n.f.f.k.h.h.j.k.f.g.g.$.M , ~.$X=X4X2X2XrXE.s X.{ { X.s a p z oX`._.`._._.)._._.`.`.`.`.(.y.,X,X&X4X1X4X4Xw.5.9.9.9.9.P.p.4 ",
"+ C M.j.k.j.h.k.v.v.z.f.g.%.C , ~.=X,X4X1X1XrXY.s ..{ { | ) { 5 l .X.X`.(.`.`.`.`.`.^.`.`.`.`.y.,X&X#X4X<X2X4Xw.5.9.8.9.9.I.P.7 ",
"o B F.j.z.h.k.j.z.v.l.b.n.F.F.h ~.rX1X2X1X1XqXY.s ..{ { { _ O.5 f .X|._.`.(.).`.`.}.^.`.`.`.`.t.&X4X1X1X1X4X4Xw.7.0.9.p.9.9.P.3 ",
"O c F.j.h.h.h.f.f.v.f.j.h.j.f.u ~.yX1X1X2X1XqXY.s X.{ { | I { p f |.`._.`.).|._.J.^.`.`.`.`.|.y.#X4X2X1X2X4X4Xw.5.9.9.9.9.I.P.7 ",
"O g F.h.h.v.h.h.f.k.f.k.h.v.h.p ~.yX3X2X1X1XrXs.s O.{ } { { X.5 f {.).^.)..X`.s.K.|.(.`./.`.|.y.{.1X4X2X1X2X4X3.7.9.9.9.9.I.9.9 ",
"O i N.x.f.f.z.h.j.h.j.k.h.v.l.u ~.rX2X2X1X3XqXY.s o.{ } { { X.5 f _.).^.`.`.t.^..X/.(.`.`.`.`.t.*X4X1X1X1X4X4X5.7.9.9.9.9.0.P.7 ",
"O a N.h.j.h.h.h.j.h.h.f.k.k.l.h ~.yX<X2X2X4XqXs.s ) { ..} { O.5 k }.J.`.`.<.K..X_.`.`.`./.`.|.t.*X8X1X1X1X4X4Xw.5.0.9.9.9.p.P.t ",
"O h F.h.h.h.x.z.h.h.h.v.h.g.h.p ~.yX2X<X4X#X0XY.a s } { ..{ X.5 f }._.oX,.J.oX/._.`./.`.`.`.`.t.*X8X2X2X1X2X2Xw.5.0.9.9.9.p.I.9 ",
"+ B F.f.h.f.h.f.j.j.f.v.f.v.V X T.iX3X2X,X[.4XT.s X.{ { { { X.5 ^ oXC.:.C.OX/.`.(.(.`.`./.|.^.e.&X8X2X<X<X4X9Xw.5.0.9.9.9.p.I.t ",
"= z.H.b.n.b.n.N.M.m.N.f.k.L.M.p T.uX8X5X<X2XyXT.s O.....{ X.O.5 e z e y.oX`..X.X|.|..X|..X.XJ.:.,XwX4X<X<X4XtXu.7.I.P.9.p.p.U.9 ",
"; c g.g.C f.] ] ] C %.M V f.f.u Y.pX3X=X8X8XaXT.a X.....X.{ ..a     ,.K.y.y.J.J.J.J.J.J.J.J.t.x &XuX0X0XwXtXtX6.2.7.P.P.R.U.I.7 ",
"* o $ = @ = @ o o + $ + + * 1 o a 3./ / / ( 3.r $ a a 5 5 p 0 ; & * 8 9 < ; ; ; 2 ; ; ; ; , , O W e.3.3.3.3.3.3 t f K K K P H - "
};
