/* XPM */
static char *_8fc0530af3545f9a3323b4cb6b142967cP8qj6o90Cr0bCb[] = {
/* columns rows colors chars-per-pixel */
"64 64 221 2 ",
"   c #2E2C1E",
".  c #2E2E21",
"X  c #3C3A2D",
"o  c #373529",
"O  c #3D3C31",
"+  c #312E25",
"@  c #413D31",
"#  c #413B2C",
"$  c #434135",
"%  c #464539",
"&  c #49463A",
"*  c #4B4B3D",
"=  c #4A483A",
"-  c #52503D",
";  c #4A4836",
":  c #4D4D42",
">  c #514E41",
",  c #4F5247",
"<  c #555344",
"1  c #5C5945",
"2  c #535449",
"3  c #5B5A4C",
"4  c #595647",
"5  c #5C5D52",
"6  c #555C53",
"7  c #615B4B",
"8  c #615F51",
"9  c #5C6459",
"0  c #67654E",
"q  c #636354",
"w  c #6A6653",
"e  c #6C6A56",
"r  c #6B6B5C",
"t  c #656658",
"y  c #716E5D",
"u  c #78745C",
"i  c #5F6B60",
"p  c #6C6E63",
"a  c #656C64",
"s  c #716F61",
"d  c #6B746B",
"f  c #6C7569",
"g  c #757363",
"h  c #7A7664",
"j  c #7C7A64",
"k  c #7D7B6B",
"l  c #75786D",
"z  c #6F7A71",
"x  c #727C73",
"c  c #7D7F73",
"v  c #827C65",
"b  c #807E6B",
"n  c #817F70",
"m  c #768279",
"M  c #7A857B",
"N  c #7C897E",
"B  c #798175",
"V  c #7E8068",
"C  c #84826C",
"Z  c #8A856D",
"A  c #8A856A",
"S  c #858474",
"D  c #8A8672",
"F  c #8C8A74",
"G  c #8B8B7C",
"H  c #83877B",
"J  c #928D75",
"K  c #928E7B",
"L  c #959174",
"P  c #999375",
"I  c #94927B",
"U  c #99957C",
"Y  c #9B997D",
"T  c #918F72",
"R  c #7E8B82",
"E  c #828C83",
"W  c #898E85",
"Q  c #918F80",
"!  c #859186",
"~  c #8C948C",
"^  c #8A958B",
"/  c #949382",
"(  c #9B9682",
")  c #9D9B84",
"_  c #9D9B8B",
"`  c #95978A",
"'  c #8F9990",
"]  c #8E9591",
"[  c #909790",
"{  c #949C94",
"}  c #9B9D92",
"|  c #989F98",
" . c #969E99",
".. c #A19E85",
"X. c #A19E8B",
"o. c #A29E92",
"O. c #A09F9A",
"+. c #9EA086",
"@. c #96A199",
"#. c #9BA39C",
"$. c #9BA399",
"%. c #A4A186",
"&. c #A4A38B",
"*. c #A9A58C",
"=. c #A6A98E",
"-. c #ABA98E",
";. c #A9A487",
":. c #A4A393",
">. c #A9A694",
",. c #A7A991",
"<. c #ABAC93",
"1. c #A4A59B",
"2. c #A9A699",
"3. c #ACAA9C",
"4. c #A5AC9F",
"5. c #B1AD93",
"6. c #B1AE9C",
"7. c #AEB196",
"8. c #AEB199",
"9. c #B3B296",
"0. c #B4B39A",
"q. c #B9B59B",
"w. c #B5B99D",
"e. c #BCB99E",
"r. c #9FA9A1",
"t. c #9CA5A0",
"y. c #A1A7A1",
"u. c #A4ACA5",
"i. c #ABADA4",
"p. c #A6AEAA",
"a. c #A8AFA9",
"s. c #B1AFA1",
"d. c #A6B0A8",
"f. c #ACB4AC",
"g. c #AAB1A6",
"h. c #B5B3A4",
"j. c #B9B6A4",
"k. c #BCBBA3",
"l. c #B5B5AA",
"z. c #B9B6A9",
"x. c #B5B9AE",
"c. c #BCBAAB",
"v. c #B7B9A1",
"b. c #ADB6B0",
"n. c #B1B7B1",
"m. c #B3BAB3",
"M. c #BCBCB2",
"N. c #B8BDB9",
"B. c #C1BD9F",
"V. c #C3BEA5",
"C. c #C2BEAA",
"Z. c #C1BDB1",
"A. c #BEC1A5",
"S. c #BEC1A9",
"D. c #BCC2BB",
"F. c #BAC0B6",
"G. c #C5C1A6",
"H. c #C5C2AA",
"J. c #C9C4AC",
"K. c #CAC9AF",
"L. c #C8C7AB",
"P. c #C5C3B3",
"I. c #CAC6B2",
"U. c #CCCAB3",
"Y. c #C3C4BB",
"T. c #CDCBBB",
"R. c #C8C7BA",
"E. c #D1CCB5",
"W. c #D2CEBA",
"Q. c #D4D2BC",
"!. c #D9D4BD",
"~. c #D7D5BB",
"^. c #CED0B8",
"/. c #BEC8C1",
"(. c #C3CDC5",
"). c #CACCC4",
"_. c #C5CDC9",
"`. c #C9CFC9",
"'. c #C7C7C1",
"]. c #D1CFC1",
"[. c #C6D1C9",
"{. c #CBD4CD",
"}. c #D5D3C3",
"|. c #DAD6C3",
" X c #DCDAC4",
".X c #D4D4CD",
"XX c #DDDCCA",
"oX c #D7D8C4",
"OX c #CED9D1",
"+X c #CFD5D1",
"@X c #D2D7D2",
"#X c #D4DBD5",
"$X c #DADEDA",
"%X c #D9DAD6",
"&X c #E2DECA",
"*X c #E1DCC7",
"=X c #E1DFD0",
"-X c #DCE2DC",
";X c #E3E2CC",
":X c #E9E4CE",
">X c #E6E4D2",
",X c #E9E6D2",
"<X c #EDEAD4",
"1X c #EDEBDB",
"2X c #E5E5DC",
"3X c #F1EDDC",
"4X c #F5F2DD",
"5X c #DEE7E2",
"6X c #E3E5E3",
"7X c #E9EBE6",
"8X c #F0EEE7",
"9X c #F9F6E4",
"0X c #FCFAE6",
"qX c #FDFBEA",
"wX c #F5F4E7",
"eX c #FDFDF2",
"rX c #FFFFFF",
"tX c #FFFFFD",
"yX c #FDFEFE",
"uX c #F4F5F3",
"iX c #E9F1EB",
/* pixels */
"rXrXrXrXuX6X#X#X$X{.[._.(.(.(.(.(.(.(.(.(.(.[.(.[.(.[.[._.[.[._.[._.[.[.[.[.[.(.(.(.(.(.(.(._.[._.(.{.-XrXyXrXrX7XoX.X=X7XuXrXrX",
"rXrXuX@X/.(._.{.OX#X@X+X{.{.[._._.(.(.(.[.(.(.(.(.(.(.(.(.(.(.(.D.(./.(._.[.OX#X#X#X#XOXOXOX{.{.{.OX2X[.l S 1.Y.|.2X=X}.*Xz..XrX",
"rXiX(.(.{.-X6X6X$X$X$X5X-X7X7X-X#X#XOX{.{.[.(.[.[.{.[.{.{.{.+X+X-X-X-X$X#X.X[.Y.D.n.f.f.f.u.u.u.f.b.m.d.* h P.=X2XZ.z.s.T.:.l 7X",
"rX(.(.#X8X@XN.u.#.#.t.p.f.D.{.@X$X$X6X6X-X-X-X#X#X#X#X#X#X@X{.{.{._.D.n.p.#.[ ~ ~ {  .#.$.{ [ ~ [ ~ R 9 8 R.oX=X0._ 3.s.s.1.x Z.",
"2X(.$XiXm.{ ~ ] ~ { { ~ ~ ~ [ #.u.u.a.p.f.l.n.n.m.b.n.b.f.p.u.r.$.@.u.#.#.{  .r.d.d.d.d.u.p.#. .#.] x & &.XX3XC._ 3.Z.C.6./ S M.",
"{.OX-Xp.~ {  . .1.u.y.#.|  .#.u.y.y.1.#. .#.#.@.#.#.#.#.#.t.r.u.x.b.u.u.x.p.a.a.u.f.$.a @.f.$.t. .M O C >XwX|.X.2.c.o.Q R.s.G '.",
"[.[.y.~  .y. .y.d.d.u.a.a.f.f.1. .{ a.m.f.u.u.u.p.f.f.f.b.f.f.f.' d a d ! d.y.a.d.d.#.~ d.f.n.r.d o V T.}.T.:.s.c.c.K G W.h.W R.",
"[.m.~ $.{ z ~ p.a.p.f.f.f.N.y.] ] { f.m.b.f.f.f.f.n.b.n.n.N.F.[ 6 d N N m #.N.x.n.b.b.b.f.f.~ 2 . G wXj.I i.s.s.3.z.z.h.T.l.Q Y.",
"+X#X#.@.B 9 { g.a.f.n.n.n.f.f.a.u.b.F.f ! D.b.x.n.n.n.n.f.f.n.N f ' ^ R ! n.M.4.$.@.$.{ E t o o i.qXc.o./ h.s.:.3.z.c.l.P.C.G Y.",
"+X2Xt.' m ! d.f.f.b.f.b.f.f.n.x.m.m.f.@.r.m.b.b.n.f.a. .#.p.u.u.@.@.' @.4.~ z M R R z 6 @ X 4 c.qXZ.o.c.2.6.z.h.c.h.Z.x.z.Z.Q Y.",
"{.`.{ $.#.r.f.f.n.n.b.b.n.f.n.n.f.m.D.D.m.f.b.b.n.f.#.$.a.u.r.n.^.' N ' ! E ^ R a % o $ 8 r :.qX}.o.h.C.s.3.c.z.c.s.s.c.c.P.` n.",
"+Xm.' #.b.d.a.f.m.n.f.x.D.@.d.m.m.f.! #.N.b.x.b.d.y.p.p.r.f.F.M.! m N ^ E d , & < u S g a k P.2Xz.2.2.s.z.h.c.h.l.s.2.C.:.h.2.l.",
"#X(.{ #.a.y.a.f.f.f.f.N.n.E n.n.F.N 6 @.D.f.f.u.u.u.d.b.n.l.u.E R R z , $ * h 5.|.,X&Xk.w h }.XXh.3.K h 2.M.z.z.h.z.s.Z.G o.s.i.",
"#X@Xa.{ d.a.a.b.' #.N.n.~ n.N.n.x.M M d.f.#.4.u.b.n.f.4.#.E d a 9 % & w ) U.4X0X3X3X,X:X0.3 c.XX6.3.X.` s.C.z.c.Z._ k C.z.c.s.x.",
"-X@Xn.{ d.d.r.f.f.f.D.E @.[.f.b.n.d.r.n.r.f.m.m.g.#.' z 5 2 - < t I k.;X<X,X*XW.H.W.1X,X&XK s oXP.3.2.h.h.s.h.2._ / K 2.c.Z.z.M.",
"@X+X).' @.d.d.f.m.m.#.4.D.n.x.b.b.m.n.d.m.M.d.@.N 9 , 3 r D >.U.~.Q.U.U.Q.W.q.-.5.-.V.;X;X}.y g W.W.z.3.s.6.:.:.:.s.R.h.s.R.C.l.",
"#X[.-Xt.{ { u.f.m.t.$.D.`.n.f.d.d.d.f.g.@.^ M 6 4 g X.C.&X3X3X&XJ.5.9.q.5.q.q.9.q.9.5.V.*X:XJ.< t >.I.}.T.I.z._ 3.2.s.l.z.|.X.'.",
"#X(.#Xb.~ { $.f.x.a.m.b.a.y.#.u.f.f.{ R M 9 , j V.<XqX3X:X*XJ.q.9.q.q.q.5.>.q.q.q.e.V.B.V.W.&Xq.2 % 8 G c.}. XC.c.P.E.W.T.:.H 6X",
"#X(.-XN.~ @.r.f.M.m.n.p.a.x.N.m.4.E M x 2 4 <.<X0X4X&XE.V.q.9.q.q.q.q.q.5.>.B.q.V.G.V.G.q.0.C.<XH.C e $ O q G 3.c.Z.P.h.} S } yX",
"#X(.-Xm.{ p.p.f.u.b.f.#.D.Y.[ H M R a $ e K.1X4X*XC.9.5.5.9.q.q.q.G.e.q.>.-.J.V.J.V.V.G.q.5.q.J.,X9X,XT.D $ $ = 2 r p 9 5 5 O.rX",
"#X(.$Xm.[ u.f.u.{ t.p.l.F.M d R ~ 9 @ j W.<X1XU.5.5.q.q.q.q.B.B.B.G.q.G...y C.J.V.V.V.G.q.q.6.5.k.U.*X9X3X( 3 t & @ * j _ U X.uX",
"#X(.#XN.~ u.f.y.{ $.f.D.R z ^ ] 2 X D E.:X>XG.<.9.q.q.9.9.5.B.V.J.B.q.e.( ..>.J.V.V.G.G.q.q.q.q.9.5.-.V.!.Q.r 3 D C.;X3X,X X5.j.",
"#X(.#Xm.~ u.#.| ' #.R.@.z ^ ~ , X K Q.,X&Xq.5.q.q.9.q.5.q.B.V.V.J.q.B.....!.V.V.V.V.V.J.V.q.q.9.q.q.5.V.V.V.q q ;X9XE.G.J.J.Y L ",
"#X(.#Xm.{ a.{ [ @.x.x.m R ' 4 o ` !.,X,Xe.5.q.q.q.6.B.V.E.V.C.J.V.j.V.-.V.J.V.V.J.G.V.V.C.B.5.q.q.9.q.|.5.Z * C.qXC.-...*.Z.V...",
"#X(.#Xf.' y.u.r.u.D.~ x { 5 + X.&X,X<XV.5.q.q.q.q.B.L.V.X.X.!.V.B.V.V.X.V.V.V.V.V.V.J.J.B.B.q.q.q.0.|.q.%.3 y qXW.-.V...F o.I...",
"#X_.%Xu.~ #.d.d.f.f.m ' p   :.<X3X<XV.-.q.9.q.q.G.G.E.U w C.V.V.C.V.V.*.V.V.V.V.V.B.J.U v q.B.q.9.U.k.Y C + <.qX6.*.E.K.J.J.U.;.",
"-X[.@X$.@.u.p.u.m.~ N m o ..:X3X3XV.-.q.q.q.q.V.G.V.G.q.D E.V.V.V.J.V.V.V.V.V.V.V.E.X.v *.C.q.q.K.>.L I $ * 3.!.-.C.W.C.C.V.V.X.",
"#X#X_.[ y.a.u.x.#.m R $ P <X3X<XV.<.9.q.0.9.V.J.V.G.V.~.Z ..!.V.J.B.V.C.J.V.C.V.J.C.X.5.I.q.V.I...J I O * g q V Y ;.q.|.W.5.V.;.",
"{.-XN.' a.u.a.n.R N : n 4X4X,Xj.5.-.Z 6.q.V.G.G.G.V.V.E.;.J E.V.B.n V.E.V.C.V.V.V.V.V.I.B.k.Q.+.L F @ s 3.9._ g 3 4 v 5.W.*XU.U ",
"[.#Xt.@.u.u.m.~ M 6 e 4X9X*Xq.-.q.5.*.q.V.G.V.G.J.V.V.V.V.P V.E.5.5.E.V.V.V.E.V.V.V.J.V.H.|...L Z ; ) 4X3X;X;X;Xh.w o 1 ;.q.L A ",
"OX_.[ #.u.m.{ M a * |.0XU.5.5.q.0.q.J.G.V.V.G.G.V.V.V.J.9.n V.V.B.V.V.V.V.V.V.V.G.J.q.V. X-.P D % h.eX Xk.0.0.v.E.;X>.% > J A q.",
"OXN.W $.D.1.M m o X.0XU.-.q.q.9.V.V.G.V.V.V.V.G.V.V.V.J.V.U C.C.V.V.V.V.V.V.V.V.V.q.0.|.q.U I & 3.qXS.&.7.<.<.=.%.7.*X}.8 ; h uX",
"{.p.~ f.u.M M o 7 4X&X6.9.9.q.B.J.V.V.V.V.J.V.V.V.V.V.V.K.X.>.J.V.V.V.V.V.V.V.B.q.<.U.V.L K 2 +.qXk.+.&.( 7.w.9.,.+.+.K. Xk 6 yX",
"`.p.s.#.N H &   ( 9XE.5.q.q.q.C.V.V.V.V.V.G.V.V.G.G.C.V.V...-.q.B.E.V.V.V.B.5.q.9.V.V.L K 4 I 4XK.+.v.T V 8.0.7.7.8.7.=.L.K./ rX",
"{.n.~ E x & X q >.,XW.5.q.q.V.V.B.q.q.q.V.J.J.C.G.V.B.9.q.-.0.q.B.B.B.B.B.5.B.>.J.G.T j < D :XT.+.7.w.8.8.7.,.8.w.w.7.7.v.-.( 7X",
"-XY.m a @ % p s X.E.!.V.5.9.q.9.0.5.q.9.q.q.q.B.q.q.q.q.9.5.q.q.5.;.q.q.5.B.B.Z.B.L u & S *X!.,.+.7.0.8.7.=.7.k.7.7.w.w.V.9.v P.",
"-Xc 5 o > r r q Q W.-.C.J.q.5.V.-.*.q.q.q.9.q.9.q.q.9.q.V.I.J.q.5.5.5.B.C.|.Z.5.P e $ G ~.|.0.+.7.8.8.<.&.) A.S.7.<./ ( &.<.b ..",
"%X: r 6.U.0.G t 3 :.B.P 5.J.E.C...6.H.q.5.9.9.q.9.9.V.C.I.U.5.9.B.V.C.!.W.B.;.P q o S !.XXw.+.,.8.8.7.+.I 9.K.0.w.Y _ 0.,.v.J ) ",
"@XD 3XeXwXqX:Xc.n * s Z T ;.C.W.X.E.&XE.V.V.V.V.V.E.C.Y q.|.H.G.Z.C.B.>...U v @ % 2.S.u 0.A.=.0.w.7.+.) v.I.A.7.9.<.U.G.w.B.J X.",
"%X,X3XV.e.}.<X,X:X6.8 : 4 7 e D K 6.J.W.E.E.C.C.C.C.P v h.V.0.5.*.*...K v < # s K.~.^.g X.I.7.0.7.=.( v.!.A.7.7.7.0.<.<.7.j.K >.",
"1X3X6.-.9.5.J.&XZ.W.,X].( g w 3 1 @ < w h K D J Y ;.X.J ;...Y J P b 8 @ $ t <. XK.,.7.G h.7.7.,.,.<.I c.K.w.7.w.7.8.7.w.7.e.U 8.",
">X}.-.V.J.V.B.5.) V.E.*X0XqX=X*XE.h.k @ & ; < g t - 3 7 3 8 < $ # # < n 8. X;XK.=.,.=.+.k.&.=.,.7.) I K.S.A.=.=.8.8.7.7.7.H.I l.",
"*XC.q.J.q.j.J.;.q.V.q.q.X.q.!.!.|.:X0Xh.3 H #X5X/.' 4 * < * 8 g K q.*X:X;XQ.A.7.=.A.I +.S.=.<.<.,.C +.oXA.S.+.I w.0.w.t e H.( k.",
"|.k.V.k.q.q.H.w.q.C.E.-.v X.q.q.j.5.V.Q.r N.rX(.p.(.D.f r 3.K.>XqX8X&XZ.v.,.=.7.0.w.G ) k.=.,.:.&.V 8.^.S.L.7.7.8.0.w.T g q.( 6.",
"|.H.q.9.q.V.K.6.0.R.V.X.j.U.G.H.J.J.q.B./ _./.^ { ^ d.z k !.<XwXI.6.=.&.7.7.7.0.7.7./ 0.3.-.&.) ) C L.L.S.S.w.8.7.7.7.e.w.k.U X.",
"|.G.q.9.q.V.K.j.C.J.J.J.R.H.H.G.G.C.K.B.I f.R ] d.#. .a I >XqXv.Y &.w.A.k.7.9.9.7.+.v.k.=.,.) %.F G Q.k.S.w.7.0.7.8.9.7.w.I.I U ",
"|.G.V.q.0.G.V.G.G.V.J.G.G.G.G.K.0.q.W.q.c E !  .@.' R : F 9X>X+.&.w.8.0 y 7.w.9.=.7.k.,.,.=.( =.j /  XA.w.A.A.0.7.7.0.<.v.I.Z U ",
"=XJ.k.G.k.I.L.C.9.9.V.C.C.J.C.V.k.J.W.;.4 i d a 9 6 , o I 4XoX+.<.w.w ; 7 =.w.7.,.<.,.=.<.) ) -.e ,.oXA.w.I Z 7.w.9.7.=.C.V.u D ",
"2XU.5.G.V.>.C.q.5.V.Q.E.J.J.U.W.E.W.G.u O 8 r h y - * t / ;X X=.k.Z 4 g V 0.0.7.,.=.<.<.%.) +.) e S.^.H.j ; # C A.<.7.w.W.Y u J ",
"8XE.5.I.-.( G.B.U.Q.q.-.J.J.J.G.e...0 . r 0.,X8X4X).k 3 C ^.>X8.k.C < q =.A.8.7.,.<.=.+.+.) -.j k XXA.A.C j J <.0.k.U.|.>.u A C.",
"2XQ.0.G.V.U.E.Q.R.-.P P ..I v y 7 $ @ W }.wX|.6.^.eXT.5 3 9.1Xc.=.=.D &.H.8.7.,.<.<.) ) ) &.=.< h. XA.w.v.w.k.q.H.}.L.;.u 0 1 .X",
"8X XK.E.E.Q.Q.J.-.A w u < & % - 8 G P.=X.XM.o.} _ T.qX_ X G ;XK.=.w.K.H.7.<.,.,.<.*.) ) &.-.4 S 3XA.H.v.8.7.7.K.K.=.U u r k p .X",
"8XP.K.e.V.*.v 1 3 > : t S :.3.P.}.1X3XW.:.:.X.2.2._ }.>X8 4 U.Q.7.7.<.<.0.7.,.,.<.=.( =.&.4 j qXXXv.S.v.7.w.Q.9.Z I j r '.rX5X`.",
"uXq w 4 1 - * 9 b :.}.3X3X*XQ.R.T.T.P.2.:.h.( c.h.X.h.0X1.X &.;Xw.<.7.7.0.5.=.<.-.( <.F - / ,X,X^.v.S.A.<.U.j.u Y F 4 {.yX_.t.{ ",
"yX8 8 G o.c.R.XX>X8X>XT.6.:.:.:.o.X.X.2.C.} 2.T.s.3._ |.2X* r ;XA.=.7.w.9.,.<.=.%.&.u q v.1XS.S.^.A.H.v.0.L.C J ) $ #.uX~ 9 ~ E ",
"uXi.9XqX9XXX}.Q.Z.z.:.o.2.3.2.2.6.6.i.z.h.&.P.Q k 3.o.z.0Xk & }.A.=.w.=.=.,.&.) G g F Q.;Xk.A.L.H.S.S.w.k.,.v <.7 3 5XD.x R y.W ",
"2X8X3Xz.3.6.} Q o.>.s.6.2.h.z.z.&.:.c.z.3.c.h.h D s.h.X.>Xz.@ l.^.=.7.,.=.%.I ) &.v.XX^.v.H.H.A.S.H.H.8.H.J G K # u.OX#.u.f.#.~ ",
"|.<X2._ o.3.Q D z.c.2.>.:.6.z.c._ :.c.l.c.c.s./ >.Z.z.:.Z.&X< F ~.7.7.<.7.<.<.H.Q.K.v.A.A.A.A.k.A.S.8.L.V.v ;.w l iXf. .p.f.{ R ",
"|.C._ >.s.6.s.c.z.6.6.z.3.z.z.l.c.l.s.z.z.h.c.h.c.z.z.z.2.}.k t ~.7.7.w.w.A.P.v.7.7.8.0.0.=.I =.0.7.<.E.) Z J G 7X+X{ @.4.u.' N ",
"].3.>.s.h.z.c.z.z.z.z./ :.c.z.s.z.Z.P.z.6.h.l.z.l.h.Z.c.6.l._ 3 P.w.=.+.0.0.7.7.7.8.7.7.7.D V =.8.7.W.5.v U Q _.N.{  .@.u.m.{ W ",
"z.3.i.z.3.:.l.z.z.h.>.s.|.|.*X|.|. X:X*XT.c.h.h.l.z.Q o.Y.6._ 8 <.K.+.Y 8.7.7.7.7.7.7.9.9.&.=.9.k.Q.q.C ..v n.D.] u.#. .m.#.x r.",
"l.G s.T.C.h.z.c.C.Z.T. XT.C.j.>.:._ _ h.K.T.T.P.P.C._ s.oX_ } q S ^.e.v.A.S.H.v.q.q.v.K.I.I.J.K.H.=.J ( w p /.#.p.d.u.#.{ x d D.",
"6XQ c 2.h.v.i.3.3.3.:._ ` / / W c c B Q ` } 3.h.s.0.Z.P.<.Q / * t v.*.*.-.;.Y I P U I J T I K J v u j w 2 } u.x E E E R x x E uX",
"rX2Xu.( ` } :.:.$.3.z.Y.'.`..XoX'.'..XT.(.c.s.3.1.3.i.3.i.Y.@X.X.X).>.F F F I / ( ( ( / I &.s.R.2X%X%X7XyXrX8X@X`.[.+X$X6X-XuXrX"
};
