/* XPM */
static char *_277d7f007e54efbd3887559fbaafea01iQtfwHCnAQiLm3B[] = {
/* columns rows colors chars-per-pixel */
"64 64 236 2 ",
"   c #0D0000",
".  c #130101",
"X  c #1B0001",
"o  c #1C040A",
"O  c #140F1A",
"+  c #240101",
"@  c #2B0101",
"#  c #27090D",
"$  c #330101",
"%  c #3C0101",
"&  c #3A0B0B",
"*  c #320D13",
"=  c #28151A",
"-  c #371518",
";  c #2C0C14",
":  c #37211F",
">  c #0E1C2B",
",  c #1B1A24",
"<  c #191A26",
"1  c #2C1D24",
"2  c #211E2A",
"3  c #241A23",
"4  c #331B22",
"5  c #3A1D24",
"6  c #1D212F",
"7  c #152233",
"8  c #1D2B3B",
"9  c #1B2534",
"0  c #2B232C",
"q  c #26232C",
"w  c #34242C",
"e  c #39252A",
"r  c #242532",
"t  c #2B2934",
"y  c #292B39",
"u  c #362B36",
"i  c #2E313C",
"p  c #37333A",
"a  c #440101",
"s  c #4C0101",
"d  c #4C0D0C",
"f  c #460A09",
"g  c #530301",
"h  c #5B0E0A",
"j  c #570906",
"k  c #58130D",
"l  c #491614",
"z  c #5C1915",
"x  c #571614",
"c  c #511010",
"v  c #620E0A",
"b  c #650C04",
"n  c #64120C",
"m  c #6B130C",
"M  c #641512",
"N  c #631A14",
"B  c #6A1B17",
"V  c #741C15",
"C  c #761B0F",
"Z  c #4F221E",
"A  c #67231A",
"S  c #73231D",
"D  c #78251A",
"F  c #462525",
"G  c #582A25",
"H  c #452C33",
"J  c #472D36",
"K  c #46333A",
"L  c #6B2722",
"P  c #742924",
"I  c #7B2B24",
"U  c #7D2E29",
"Y  c #762622",
"T  c #7E312A",
"R  c #793528",
"E  c #6E3528",
"W  c #551F23",
"Q  c #242F41",
"!  c #293647",
"~  c #353542",
"^  c #3C3A44",
"/  c #3D3C4A",
"(  c #363847",
")  c #343E51",
"_  c #2E3D50",
"`  c #403E4E",
"'  c #493B44",
"]  c #463F51",
"[  c #3C4454",
"{  c #3A4558",
"}  c #39434F",
"|  c #394960",
" . c #43434D",
".. c #48454B",
"X. c #454453",
"o. c #494955",
"O. c #444C5C",
"+. c #4C4B5A",
"@. c #484756",
"#. c #514D5A",
"$. c #4D515D",
"%. c #52525E",
"&. c #59575C",
"*. c #504549",
"=. c #464E61",
"-. c #4B5263",
";. c #475264",
":. c #545464",
">. c #5C5C64",
",. c #555B6C",
"<. c #5C5C6B",
"1. c #555866",
"2. c #575C72",
"3. c #615F6D",
"4. c #635F70",
"5. c #5B626C",
"6. c #5D6475",
"7. c #63626C",
"8. c #67646A",
"9. c #656373",
"0. c #6C6B74",
"q. c #6C6C7B",
"w. c #666877",
"e. c #716E7C",
"r. c #6C727B",
"t. c #72727D",
"y. c #74787B",
"u. c #605B5F",
"i. c #862F1E",
"p. c #822E2A",
"a. c #842D23",
"s. c #83342D",
"d. c #843A2D",
"f. c #89362B",
"g. c #953829",
"h. c #863631",
"j. c #893632",
"k. c #863932",
"l. c #8B3B34",
"z. c #8D3E39",
"x. c #923D35",
"c. c #923F39",
"v. c #98402E",
"b. c #8E4135",
"n. c #8F413A",
"m. c #93433C",
"M. c #9A453D",
"N. c #974739",
"B. c #A54937",
"V. c #AA523B",
"C. c #B2563C",
"Z. c #954641",
"A. c #974942",
"S. c #9B4C44",
"D. c #9D4E49",
"F. c #9E5149",
"G. c #A24E45",
"H. c #A3534B",
"J. c #AA5649",
"K. c #B55946",
"L. c #A85952",
"P. c #B35E52",
"I. c #AE6054",
"U. c #B46254",
"Y. c #BB6554",
"T. c #BE644B",
"R. c #C2654C",
"E. c #C7654B",
"W. c #C56955",
"Q. c #CE715C",
"!. c #C96C59",
"~. c #6C7487",
"^. c #757383",
"/. c #797685",
"(. c #7B7986",
"). c #7A7789",
"_. c #7D7B8B",
"`. c #757987",
"'. c #767D92",
"]. c #6C6D81",
"[. c #5E6881",
"{. c #817E8D",
"}. c #807F87",
"|. c #827E91",
" X c #7C838C",
".X c #778188",
"XX c #7C8596",
"oX c #83828E",
"OX c #86878C",
"+X c #858492",
"@X c #898694",
"#X c #868A94",
"$X c #8B8996",
"%X c #8A8798",
"&X c #8D8B9A",
"*X c #84899D",
"=X c #918E9C",
"-X c #8A969C",
";X c #8A969D",
":X c #93919D",
">X c #95969A",
",X c #868DA1",
"<X c #928EA1",
"1X c #9593A2",
"2X c #9996A4",
"3X c #9B9AA5",
"4X c #9E9CAA",
"5X c #949AA6",
"6X c #8B96A3",
"7X c #A19EAA",
"8X c #A19EA7",
"9X c #9AA4AD",
"0X c #9FA6A8",
"qX c #9AA3B1",
"wX c #A4A2AC",
"eX c #A5A5AA",
"rX c #A6A4B1",
"tX c #A3ACB3",
"yX c #ACABB4",
"uX c #ACADB9",
"iX c #A8A9B6",
"pX c #B0AEB6",
"aX c #ABB4BB",
"sX c #A5B2BA",
"dX c #B4B4BC",
"fX c #B6B5BB",
"gX c #BBBBC3",
"hX c #B7BBC4",
"jX c #ADB6C2",
"kX c #BCC5CA",
"lX c #BAC7D0",
"zX c #C4C5CB",
"xX c #C4C6CA",
"cX c #C7CBD1",
"vX c #D2D5DB",
"bX c #D1D8E0",
/* pixels */
"/ &X%X+X{.oX|.+X%X+X&X+X+.+.=X@X+X+X@X#X}._.$X$X{.X.<.1X@X+X@X+X{.{.oX@X@X~.H V l.s.s.T s.k.z.l.l.s.k d j.l.s.T s.T k.l.k.z.a.x ",
" .%X:X$XoXoX_._._.@X$X{.1.` =XwX+X+X@X+X@X{._.$X_.+.3.&X+X+X@X$X$XoX+X|.t.'.H C m.m.s.h.s.T U k.l.s.z c k.m.x.h.k.T U p.l.l.p.x ",
"X.%X1X3X@X+X@X+X_._.+X%X1.#.&X7X3X$XoX+X+X{./.+X*X+.<.<X:X@XoX+X+X+X&X{.^.'.J C b.F.z.k.l.l.T U h.j.N c p.M.S.l.j.l.k.s.U l.j.N ",
"r 1.q.:X1X@X+X@X:X=X).9.) ) 2./.4XwX&X+X$X{.q.7.<._ { 9.$X7X:X#X+X&X2X+Xw.,.* a n n.N.l.s.k.n.N.U M a @ g S m.N.l.k.k.m.x.Y h % ",
">.~ t #._.=X-X=XOXw._ > F L q _ 6.&XwX:X1XoX1.Q > G G t { ~.3X7X8X4X(.+., q 1.H + a S x.m.M.l.B % . e &.- @ g I m.b.m.s.M @   p ",
"cX&X+.u ~ <.oX^.} > 3 L Y.W.D F i { ].$X9.! > - R W.K.B 4 y =.{.@X>., ,  .OXvXsX:.- @ g p.I a . = 1.sXbX;X*.@ @ n s.S %   1 0.kX",
"8XyXpX}.X.q ` i , G V.W.J.F.U.i.g : Q | 7 = E K.W.H.L.P.v.N 1 _ ( O p 0.>XfX7XrXhX;X#.@ % @ . o..XrXuX4XyXjX X' + % X o 5.aXxXrX",
"@X=X8XuX8X+X( - N.R.J.Z.U s.m.H.b.g.R 1 G V.W.L.Z.l.l.S.L.K.g.G q r.fX8X3X8X+X&X3XiXaX-X' t ;XhX>X4X:X+X=X7XaXtX+Xw } 0XxXyX&X_.",
"&X&X%X&X4XrXX.B R.E h U z.k.c.S.F.S.x.% f.Y.Z.z.n.m.Z.m.n.Z.J.C e jXiXXX)._.&X&X$X&X2XiX,.:.gX7X_.(.@X&X&X@X=X7XrXO.^.gXt.<._.@X",
"_.+X@X%X$Xe.^ k x.I Y U k.k.k.m.A.l.j % L Z.s.l.k.l.k.l.m.m.p.s e ,X)./.+X(.(.+X+X$X=Xt.` -.%X/.@X_./._.+X@X$X$Xw.~ 5.:X].^.{.@X",
"_.).+X@X=X4X+.k c.x.l.s.T T h.k.Z.m.B a P l.p.k.j.l.z.k.s.l.s.j K ,X_.{.&X$X_./.+X@X@X7X>.+.$X/.@X%X@X_.).+X@X$X).X.<.1X$X@X{.{.",
"#X{.).+X%XXX@.k x.j.l.l.k.s.U h.h.k.P d L l.k.h.s.T T l.l.l.f.v K  X2X+X+X+X&X+X/.oX%XoX:.X.&X4X+X+X@X$X{./.+X$X_.+.<.<X@X@X$X+X",
"+X$X+XoX%X*X@.h x.l.k.d.l.j.l.j.s.L D d L m.M.l.k.k.s.I s.k.s.m J XXeX=X@X|.+X@X+XoX%X$X1.X.&XeX&X+X+X+X$X+X+X$X}.o.<.:X+X+X+X+X",
"+X$X{.e.).,X#.g a.A.m.k.h.k.s.l.l.P Y d M s.G.m.s.k.l.l.T P I b ' '.=XwX1X@X+X@XoX]./.@X,.:._.1X7X<X+X@X+X_.e.+X7X:.,.%X3X:X+XoX",
"+X&X&Xw.#./ t $ g Y A.G.c.z.Z.M.I j $ + $ g Y m.c.l.k.z.S.B.n @ 3 X.<.|.7X4X@X@X=Xt.:.{ Q ! ;.w.&XwX1X+X&X@Xw.$.{ i ( -./.4X4X:X",
"2X=Xe.^ , ^  X$.X + g p.F.J.m.M @ + #.+Xp X @ v s.c.m.I h f - 0.^.r < / q.=X4X=X/.=.y 1 T A = 8 =./.1X3X=Xq.{ 7 F T l , Q ,.oX4X",
"^.o.O t 0.pXcXfX`.p o @ n S $ . p y.kXcXtXw.0 X $ V M + . p ;XvXzX&X%.t 2 X./.5.8 3 G V.Q.Y.D l 1 Q 5.^.O.7 1 R C.Q.J.S - , _ w.",
"t 2 >.eXxXyX1XeXgXiXr.q + + 1 r.>XyXwX:XiXdX9X5.= @ + p -XcXdX=X:XuX>X8...q Q r F N.R.U.Z.D.U.K.S - r ! , E V.W.L.A.L.U.B.N ; y ",
"p 3XxXdX3X&X:X=X1XwXyXaX$./ hXhX$X4X&X&X%X2XrXpX9X~ >.kXpX:X|._.@X&XwX:XrX#Xw I R.Y.D.z.m.n.m.H.J.C.G - M.R.P.S.n.n.n.A.H.K.B.l ",
"/ rX7X+X$X=X=X:X:X=X=X3X$.:.yX=X).^.+X+X&X$X$X1X+X[ ^.uX7.1.+X$X+X=X2X1X5XXX5 a.J.l.z.m.z.m.m.c.z.S.N a G.F.l.z.Z.n.n.m.n.m.G.k ",
"~ %X=X@X+X+X+X+X@X&X:X].( %.+X^.$XoX(._.+X+X#X=X^./ 4.&X|.{.(.oXOX@X=X3X@X2.5 V b.k.k.k.k.l.k.l.Z.Y a f h.z.l.d.j.j.k.l.n.m.B a ",
"` =XoX{.+XoX+X@X@X+X$X+X+.:.@X_.@X$X$X{./.oX$X&X3X@.<.1X$X@XoX{.{.|.oX:X,X~.H V k.s.h.h.d.k.k.k.l.s.c d j.k.h.s.h.j.l.k.h.z.p.k ",
"` &X&X$X{.{.{.{.+X@X%X+X:. .=X4XoX@X+X$X+X/.+X+X^.+.4.&X+X+X@X$XoXoX{.+X_.~.H B l.l.h.U I s.s.l.z.p.N c h.l.l.T T T T k.l.l.s.x ",
"` @X1X3X+X+X+X{.(.{.+X@X:.@.:XrX:X+X+X+X@X+X{.$X|.+.3.<X%XOX+X+X+X@X$X{.e. XJ C m.S.l.k.l.s.T T k.j.N l p.M.S.l.l.k.T U s.j.f.z ",
"i ^.+X7X&X+X@X$X+X@X%X).$.{ `.:XrX>X@X@X%X_.q.t./.O.=._.3X2X@X@X@X+X$X&X^.~.5 g I S.Z.k.j.z.l.l.k.Y j a m k.F.l.j.k.l.z.k.s.D g ",
" .~ / e.&X=X@X&X1X{.:.Q u J ( ;.{.7X3X@X:X$X7.[ Q u J _ 6.-X7X2X:X4X=X9.^ r ' & $ n l.N.l.s.s.l.n + @ K $ a S x.z.l.x.m.p.g X * ",
"fXe.( t +.).=XOX5.! > l N.K.z e ) 6.%X3X_.:.y q Z K.B.l 0 { ~.2X4X{. ., i 8.hX$XH @ a S b.G.g.% . p #XlX0.5 @ g I m.f.h + . ..;X",
"yXpX3X3.~ u <.{ > 0 d.T.Y.L.K.D l t { 9.! > F b.R.U.U.V.T l t ;.<.O , #.OXfXuXfXsXq.e @ g M & e 5.>XhXuXdX9X3.* $ j %   p #XxXgX",
"+X3XyXyX&X3.~ q E C.W.F.h.h.D.S.a.D G t e d.K.Y.H.k.z.L.P.B.P F t o.>XeX>X7X@X:XrXaX9X8.l o :.tX0X8X1X%X2XiXaX6X&.* 1 `.kXzX3X+X",
"=X&X@X3XeXfXX.M E.m.A P k.l.z.H.H.M.N.$ d.W.H.m.n.m.A.l.m.S.K.C w jXfX@X$X$X:X&X@X2XrXhX6.-.xXrX+X%X&X=X$X$X3XrXuX{ r.zX+X0./.+X",
"{.+X@X$X@Xr.~ M G.B N T l.k.k.m.m.n.N $ P S.s.z.z.z.l.m.m.l.z.g w 6X@X^._./._.+X$X#X%X^.} +.1X{._.(.`.{.@X$X$X&X/.~ 4.4X9.9.{.&X",
").}.%X+X&X:Xo.h v.n.k.h.s.h.k.l.A.m.M a E x.s.k.k.k.k.k.k.n.s.g J ,X/.{.&X+X_._.+X+X$X>X&.+.@X^.$X$X{.)._.@X@X@X^.` 4.1X&X@X_.}.",
"@X_.(.+X=X6Xo.k c.k.l.l.h.T s.s.j.l.S f S z.h.d.s.s.s.l.k.z.s.b ' '.=X+X+X%X$X_./.oX&X<X1.+.@X=X+X+X$X$X(._.@X$X_.+.<.<X@X@X@XoX",
"+X$X{.{.%X+X@.h l.l.h.k.z.j.k.s.k.Y Y c L z.m.s.s.T U I s.z.s.n J XXwX%X+X+X+X$X+X_.&X+X:.` $XrX@XoX@X+X#X{.|.%X{.+.<.%X+X@X$X+X",
"+X+X{./.+X,X#.h f.Z.l.k.h.h.l.l.k.P I c B z.H.x.k.z.l.s.T s.f.m K XX4X4X:XoX+X#XOX/.oX&X1.%.%X7X4X&XoX+X+XoX`.+X%X+.<.<X:X+X+XoX",
"+X&X{.q.9.2.t % m j.F.N.l.k.z.m.j.M a @ a M l.Z.z.k.l.b.N.p.k % 4 2.w.1XrX2XoX@X+X^.9.,.) [ <./.4X7X&X@X&XoXq.5.,._ [ 9.@XwX1X%X",
":X1XoX&.q q >.u X % B m.J.G.G.U a X 5 >.= X a D k.N.c.x.A % X ' %.6 r :.}.7X2X<X#X7.! < G F 7 } 9.+X7X1X:X{.%.y q L 4 9 { t.:X7X",
"+X9.r , ..>XvX9X$.= X a I d.g X ; &.aXbX*X .o + g I Y a . = 0.cXxX0.' r y 3.+X^.} 7 : d.Q.K.x - 9 { r.+X9.! 6 F N.Q.v.l 3 Q ;.(.",
"K , ~ }.gXdX4XyXhX;Xo.X @ $ . o..XtXuX3XpXdX.X~ X % @ o >.aXcXwX3XgXOX..i < / y 1 E K.Y.G.L.P.g.x = Q } < e b.T.Y.F.L.K.a.l , ! ",
"i y.pXgXrX1X@X&X4XyXyX;X( w >XhX>XwX:X+X:XwXuXtX.X0 ..eXcXrX&X).oX1X3X=X>Xw.t G V.R.L.A.k.z.S.L.K.g.F 0 R K.Y.H.m.d.Z.F.J.V.a.F ",
"^ hXpX:X&X<X:X1X&X:X3XuX,.1.gX7X{./.@X&X&X@X=XwXrXO./.gXe.<.}.@X+X=X7X4X4X5X4 g.U.Z.z.n.m.m.Z.n.Z.J.Y a K.L.m.l.Z.m.Z.m.m.S.J.N ",
"~ @X=X+X@X@X@X$X&X=X&X^.( +.@X^.@X}./._.+X#X&X+Xw.~ 4.<X].e.).&X+X@X:X2X+X2.4 V m.h.l.l.l.l.z.m.m.I a % k.l.l.j.d.z.l.l.Z.n.V a ",
"/ &X+X{.+X+X$X@X+XoX%X|.@.:.%X/.@X%X+X_.(.+X+X=X2X@.<.1X&X$X+X_._.oX+X1X=X].H V j.U h.h.z.k.k.k.l.s.k f l.Z.U h.k.l.k.d.k.z.p.d ",
"/ %X$X+XoX_._.|.$X@X&X+X:.X.=X1X+X+X@X@X{./.@X@X_.@.4.=X+X@X@X+X{.oX|.+XoX`.H V z.k.s.T T T j.l.x.s.N f l.S.s.s.s.T s.l.l.x.p.x ",
"X.%X1X1X+XoXoX_.).+X@X+X:. .:XrX&X+X+X@X@X+X{.$X{.+.3.<X@XOX+X+X$X@X@X{.t.'.J C z.A.k.j.s.T I s.l.s.N c k.m.A.k.k.s.T I k.k.p.x ",
"/ {.=X7X$X+X+X$XoX{.@X+X:.;.|.3X7X=X+X+X@X}.e._.+X;.1.@X2X&X+X+X+XOX$X@X/.'.H b f.H.m.k.l.l.s.s.l.p.x s D m.F.l.s.l.l.s.s.k.p.k ",
"i ` :.oX1X&X+X$X1X<Xw.{ ~ ~ =.w.=XrX1X+X&X@Xw.%.{ p ( -.).3X4X=X%X2X1X).+._ w % s I m.l.l.l.m.m.S a @ & a j d.m.z.d.l.M.x.M a @ ",
"=X#.t ~ 9.@X1X=Xt.O.9 3 R l.- y =.`.2X4X&Xq.X.7 = k.d.= ! ,.+X7XwX1X3.r , ..>X8.; $ j f.m.m.p.g X X 7.5X' @ % M l.M.x.Y % . = 0.",
"fXpX_...t X.^.,.8 < G B.Q.Y.B.A 5 ! ,./.O.7 3 E V.!.U.g.z 1 _ ].^.u O ^ 8.pXzXhX-X*.@ $ B n + .  .;XcXkXjX_.J @ a D j . o &.sXcX",
":XwXpXrXt.^ p r : N.W.P.Z.l.L.N.C z u ~ 2 G V.T.P.n.A.I.K.g.l u y t 0.>XeXwX=X2XuXaX#XK $ + p OXxXgX3X&X8XdXsXr.5 $ X ..9XcXpX>X",
"=X@X:XwXyXiX@.x E.K.k.T T k.z.H.A.B.v.* R R.P.D.z.m.A.n.D.H.K.D 0 9XzX$X1X:X=X=X&X7XrXhX1.X.hXgX<X%X$X:X$X1X8XaXsX/ 5.cXwX+X_.{.",
"+X&X$X#X&XXX( M G.B j T z.k.n.Z.m.A.U $ R L.j.z.z.z.m.Z.m.z.M.v e qX1X^.^.(.oX$X&X@X&X1X+.$.rX@X^.)._.OX@X&X@X&X_./ q.rX3.:.+X&X",
"(.oX@X+X&X+XX.c c.l.s.T s.l.k.l.F.x.h % P b.s.k.k.k.h.k.k.m.U a J ,X)._.&X{./.{.+X+X&X/. .+.%X^.&X+X{.).oX+X+X&X}.` <.1X+X+X}.{.",
"+X/._.$X=X9X+.h x.z.l.s.T T s.k.m.l.B d L l.T s.s.k.z.l.s.z.s.b K *XoX+X+X$X@X/._.#X%X+X-.#.%X+X+X+X$X+X/.|.#X:X3X+.1.:X$X@X|.{.",
"@X+X_.oX@X'.o.k x.l.k.j.l.l.s.s.s.U Y d L x.b.s.s.U U T l.l.s.n K  X7X@X+X+X$X$X_.{.&X/.:. .&XwX+X+X+X$X+X(.|.$X).@.<.=X+X@X@X@X",
"@X+X+X_.+X<X+.h x.l.k.k.k.k.k.b.s.L I c A m.F.n.k.l.s.T U s.k.m K XX4X2X$X+X+X+X+X_.@X3X5.@.&XwX1X$XoX+X@X+X{.@X@X+.<.=X=X+X+X+X",
"+X@X{.q.e.~.^ s V N.S.b.j.k.k.b.l.S h % j S M.M.k.k.k.n.x.k.S s u ~./.7XwX&X+X+X+X^.q.$X,.O.r.@X7X3X@X+X%X}.q.e.].{ -.^.1X4X$X+X",
"&X1X&X3.p r  .# @ j s.F.S.M.G.l.n @ @ K + $ h T m.l.n.v.s.j X * ^ 6 ^ w.=XwX:X&X1X0.[ 7 e u Q $./.3X7X%X=X&X<._ y F r ! <.+X7X4X",
"<X_..., t 0.gXXXu . @ n l.A.D $ X K #XlX6.0 X % B l.l.n + X ..tXuXX.u r X./.1X+X:.8 q G K.v.& 6 ! ,.{.1X_.O.9 0 E K.Y - 6 ) 9.@X",
":.2 , &.eXzXyXdXtXw.t X a g . 0 5.5XgXyXfX9X1.= X g % . p OXzXgXyXfXw.^ r q <._ > Z N.R.U.P.V.S - < [ 2.8 3 G V.W.P.U.B.N = 7 O.",
"t #.>XzXdX3X+X1XrXdX9X5.4 ; 8.tXwX0X1X@X3XiXdX-X+.; 4 y.xXzX2X{.@X8X>XOXt.} t F d.R.U.H.k.m.L.P.B.A e r G N.R.U.D.k.A.L.K.g.z w ",
"~ fXfX3X&X:X2X1X=X1X7XhX,.-.cXeX@X@X$X>X@X%X4XyXaX{ `.xX+Xq./.+X&X=XrX3XeX4X1 g.W.H.m.l.A.Z.n.m.F.P.S % K.Y.F.z.n.N.Z.b.A.H.K.z ",
"~ 1X1X+X&X+X#X&X:X=X&X+X` +.1X_._.).`.|.@X@X+X@X9.~ w.2X3.9.oX&XoX%X1X=X<X[.- D Z.k.z.l.l.z.m.Z.l.k.d % c.Z.h.z.l.l.z.n.m.b.s.s ",
"^ =X@X+XoX+X+XOX+X+X&X).X.%.$X^.&X$X{.(.{.@XOX:X&XX.<.>X&X#X_.{.+X+X@X3X=X[.e V z.s.k.f.k.k.s.l.l.m.N f k.l.k.h.k.k.s.k.l.m.Y d "
};
