/* XPM */
static char *a8d3e86f1bf04fb7bbd790d4fb0b1918jgdgjeKyamgFXGaH[] = {
/* columns rows colors chars-per-pixel */
"64 64 175 2 ",
"   c #0F120F",
".  c #0F1312",
"X  c #121513",
"o  c #1D1A15",
"O  c #171C18",
"+  c #1B1D1B",
"@  c #211D1A",
"#  c #1E211E",
"$  c #20221D",
"%  c #232422",
"&  c #282722",
"*  c #272823",
"=  c #2B2B26",
"-  c #2D2D2B",
";  c #322F2B",
":  c #2E302D",
">  c #33322D",
",  c #353532",
"<  c #393632",
"1  c #363833",
"2  c #3B3A35",
"3  c #353638",
"4  c #3E3D39",
"5  c #423D3B",
"6  c #3D4037",
"7  c #3E403B",
"8  c #44423D",
"9  c #49453E",
"0  c #464441",
"q  c #4A4641",
"w  c #464842",
"e  c #4C4A45",
"r  c #4E4C48",
"t  c #514C45",
"y  c #524E49",
"u  c #4F504A",
"i  c #55514C",
"p  c #5A544E",
"a  c #5C584F",
"s  c #575651",
"d  c #5A5551",
"f  c #5D5954",
"g  c #5E5C58",
"h  c #625C55",
"j  c #645E59",
"k  c #685F5A",
"l  c #5E6055",
"z  c #656156",
"x  c #65615B",
"c  c #6A635C",
"v  c #6D685F",
"b  c #666661",
"n  c #6C6661",
"m  c #6E6963",
"M  c #706762",
"N  c #746C64",
"B  c #796E66",
"V  c #736E69",
"C  c #786F69",
"Z  c #757167",
"A  c #797067",
"S  c #76716A",
"D  c #7B736C",
"F  c #7E7671",
"G  c #7E7972",
"H  c #82756D",
"J  c #82786F",
"K  c #827771",
"L  c #847B73",
"P  c #8A7E76",
"I  c #857D79",
"U  c #897F79",
"Y  c #878076",
"T  c #8A8177",
"R  c #878279",
"E  c #8C827B",
"W  c #91867E",
"Q  c #93887F",
"!  c #8E8681",
"~  c #8E8982",
"^  c #928781",
"/  c #958B82",
"(  c #998D85",
")  c #968E89",
"_  c #9C8E89",
"`  c #9B9187",
"'  c #9D938A",
"]  c #A2958D",
"[  c #A9968F",
"{  c #A4988E",
"}  c #A89A8E",
"|  c #A49790",
" . c #A89790",
".. c #A69A91",
"X. c #AA9D94",
"o. c #A79E99",
"O. c #AB9F98",
"+. c #B09F97",
"@. c #ADA197",
"#. c #AEA299",
"$. c #B3A397",
"%. c #B3A59C",
"&. c #B9A79D",
"*. c #B6A99E",
"=. c #B9AA9F",
"-. c #B6A9A1",
";. c #BBADA3",
":. c #BCAFA9",
">. c #BEB1A5",
",. c #BFB2A9",
"<. c #C0AFA6",
"1. c #C0B2A7",
"2. c #C2B1A6",
"3. c #C4B4A7",
"4. c #C1B2A6",
"5. c #C1B3A8",
"6. c #C0B2A9",
"7. c #C0B3AA",
"8. c #C4B3AA",
"9. c #C2B4A9",
"0. c #C1B4AB",
"q. c #C3B5AA",
"w. c #C2B4AB",
"e. c #C0B4A8",
"r. c #C6B4A8",
"t. c #C2B5AC",
"y. c #C1B7AD",
"u. c #C3B6AE",
"i. c #C5B7AE",
"p. c #C3B4AA",
"a. c #C8B7AF",
"s. c #C8B7AD",
"d. c #C8B7AD",
"f. c #C6B8AB",
"g. c #C5B8AF",
"h. c #C7B9AE",
"j. c #C7BBAF",
"k. c #C6B9AE",
"l. c #C9B9AE",
"z. c #CAB7B2",
"x. c #C3BBB0",
"c. c #C7B9B0",
"v. c #C5BBB1",
"b. c #C6BCB2",
"n. c #C7B9B0",
"m. c #C8BAB1",
"M. c #C9BBB2",
"N. c #C9B8B0",
"B. c #CCBEB3",
"V. c #C9BEB5",
"C. c #CDBFB6",
"Z. c #CFBEB6",
"A. c #CDBCB4",
"S. c #CBBCB2",
"D. c #D0BFB5",
"F. c #D2BFB8",
"G. c #CBC1B7",
"H. c #CEC2B6",
"J. c #CEC0B5",
"K. c #CFC1B8",
"L. c #D7C5B7",
"P. c #D2C1B6",
"I. c #D2C6BA",
"U. c #D7C5BB",
"Y. c #D7C4BD",
"T. c #D5C7BE",
"R. c #D4C4BA",
"E. c #DBC7BE",
"W. c #D6C8BD",
"Q. c #DAC9BE",
"!. c #DBC7C0",
"~. c #D7C8C1",
"^. c #DBCBC2",
"/. c #E1CEC5",
"(. c #E2D1C6",
/* pixels */
"y.,.e.y.8.,.>.G.@.' x K M.G.>.e.;.#.*.' F J I x ] %.m.-.| *.,.y.e.8.e.e.0.e.,.c.D.O.d F O.O.B.B.y.x.-.Y J E i R ;.B.%.O.X.@.:.,.",
"1.e.-.;.1.1.%.j.%.X.n x %.S.I.g.%.X.O.I N R j v -.X.g.O. .y.-.-.e.,.>.>.,.;.1.-.P.D.U f | / A / X. .J N Q x y %.;.m.X.X. .>.y.,.",
"3.2.;.2.<.1.;.d.' ( I w / =.X.Q / @...| E R q I &.*.D.{ ;.e.;.<.8.-.>.;.1.;.>.1.1.1.%.i 8 ! A N N N D K V 2 I &.6.;.] O.>.,.>.f.",
"3.;.>.2.;.;.d.i.A P m X > c v h y f N D P g 2 ] X.d.8.{ >.>.>.>.;.;.;.>.1.;.1.1.@.%.*.h X f f r e r r r $ : @.@.N.%.] ;.e.>.,.,.",
"e.;.1.>.;.>.T.X.C D 2 m m 4 > 2 q h V x t + 0 @.*.m.X.;.1.1.>.>.;.,.1.;.;.1.e.*.%.X.' 5 x O.P E E E E U c , / { ;.-.=.8.>.,.>.e.",
"8.>.>.>.e.j.X.H U 2 v g.@.) R / X.8.O.` ` i 1 ' i.;.X.g.1.1.;.>.>.>.>.1.1.8.%.%.X.E d e %.3.E.Y.L.T.^.;.X.d h ] *.m.;.1.>.;.>.e.",
"e.;.1.8.8.` N L r , -.B.%.Q @.8.d.8.8.8.O.| e m -.m.1.;.=.;.1.2.>.1.1.;.8.*.O.X.L N > L j.Q.;.$.2.j.j.Q.d.I 5 E %.G.;.;.>.-.>.e.",
"g.e.-.*.( N K V O B ^.,.;.>.8.s.*.} ;.P.I.X.K i ^ <.D.*.;.1.;.1.1.;.;.e.;.} X.J I 5 y m.E.*.` X.=.3.%.;.^.F.q y | ;.P.;.>.8.8.e.",
"8.%.X.X.K N E 0 > m.j.] ] *.-.] ' -.>.%.L.<.] f k %.j.1.>.>.>.>.1.;.>.;. .-.W D j = ' /.,.( X.;.<.1.>.8.;.(.' = Y ] g.B.%.;.8.j.",
"@.{ @.] C J G * K ^.} X.$.X.]  .*.e.>.>.;.R.X.P t W ;.D.=.2.;.2.f.i.>. .X.*.I L , k !.D.] ] -.8.>.>.>.;.%.P.~.q 0 ..( Y.j.;.3.-.",
"O.O.*.E V E p 1 B.<.' ..X.O.| @.,.>.>.;.=.S.e.] d d %.N.l.>.=.<.X.*.@.....@.E f 9 %.E.%.` %.1.=.>.>.1.;.&.>.^.' % F ] ] E.8.] X.",
"=.%.O.F C E 2 n T.%.X.X.O. .@.e.>.>.>.>.1.;.G.%.R 4 R $.e.S.G.-.N ( @.#.*.' P w V ^.1.( X.1.1.;.>.>.;.1.e.*.P.P.e ; o./ ] d.%.*.",
"' W J D I m q X.8.%.X.O.{ ] ;.e.>.>.>.>.=.;.j.>.%.g < ( O.3.c.Q G ` } X.^ L N x -.d.X. .;.e.>.>.8.>.>.;.>.;.>.L.X.2 w @.( O.%.] ",
"Y D K R ^ 4 c 8.8.X.X.X.X.*.1.8.>.>.>.>.;.>.;.g.' E - 1 j k p 5 e ' O.P D D e E 8.<.] -.8.>.>.>.;.>.>.>.>.>.;.I.8.^ > d *./ A I ",
"V n j h 9 X n i.c.O.%.X.%.f.1.>.>.>.>.>.>.3.>.*.K F 2 = i i i d 8 8 r 2 2 # 8 %.;.;.' -.8.>.>.>.=.;.1.1.;.1.;.S.y.O.I % g C c V ",
"5 , 0 s i 3 w ..;.;.' %.e.>.1.;.-.>.>.>.>.3.%.` K c 5 ' J.m.B.I.#.z 8 e x S b ' ;.>.@.1.,.>.>.>.>.>.;.=.1.8.*.%.i.Y F - * s e e ",
"! / ] =.%.( i M  .,.>.=.1.>.>.1.>.>.>.3.3.@.X.E G e D (.m.6.>.e.8.@.@.*.;.>.D N | d.j.1.;.>.;.8.>.1.;.;.i.%.{ } j./ p < ` @.Q E ",
" .-.i.d.B.-.^ t E ' B.j.;.,.>.>.>.>.>.>.@.@.@.J D 8 ` P.X.....` @.8.i.i.S.X./ v L -.D.-.8.,.;.>.;.>.8.8.@.] ] 8.;.K 9 I 8.8.g.%.",
"y.8.8.-.S.I.O.n p ' X.T.;.=.>.>.>.3.3...{ ;.Q J f 9 %.8.X.X. . .X.-.1.1.Q.;.` K c | 8.i.;.;.8.;.=.3.1.@.] X.*.%.I y z ;.8.y.%.u.",
";.%.O.6.*.P.=.` y V ' 8.P.%.*.>.>.;.O.] %.] A Y = f e.8.%.| | -.8.>.;.>.8.i.Q ] h V ;.P.;.;.;.;.f.;...{ *.-.( D x i X.j.>.| #.%.",
"@.*.8.,.*.8.j.] Y 8 ~ X.I.>.>.>.;.X.| X.%.J L f * ( m.;.{ #.>.8.>.>.1.>.;.D.] ( R i ( ;.H.y.;.;.*.]  .*.-.( B D y R D.i.' O.#.@.",
"e.e.>.>.8.-.B.%.{ f i ] -.^.f.%.} ] X.;.( A L % j S.8. .%.3.y.=.;.>.>.>.;.j.g.( | v x X.X.>.m.8.-.-.X.' E M P a N ;.i.@. ...] *.",
"i.;.1.1.>.;.m.8.` ' 4 S #.%.M.3.8.e.i.X.N R q , @.l.*.;.8.3.;.*.;.1.1.;.;.;.S.B.] ( p E ' /  .#. .Q J B N L A h O.1.>.'  . .*.g.",
"e.<.;.;.1.>.=.i. . .Z , R { { >.-. .W J W V + V P.8.;.e.>.>.;.1.1.>.1.=.;.<.-.S.6.] F t ' #.../ N A K R R I t E ;.<.#.X.O.*.y.e.",
"i.>.>.;.>.;.=.8.>.' ' > # u E ' K N D n r % <  .j.g.;.<.>.>.>.>.1.>.>.>.>.>.>.>.j.X.O.h 1 v D K n j s q 5 : 1 ] %.6.X.X.;.8.1.8.",
"8.;.>.>.>.>.1.P.` I U = > 8 r N m y 9 8 e 4 r #.i.j.>.;.>.>.>.>.&.=.1.>.;.2.3.$.%.-.Q S + . 9 S N k h d d 1 & _ %.6.-.*.1.;.1.e.",
"8.1.>.;.>.>.S.@.N D d V { X.E S N c K ] *.%.t V 8.P.&.;.2.>.>.1.;.;.1.>.8.e.*.] *._ D y % N O.-.;.8.i.i.:._ 9 D -.+.S.-.;.>.>.y.",
"e.-.;.e.>.>.;.J H j n ,.g.;.O.] ( ;.T.S.d.X.C e ' f.l.;.>.>.;.>.>.>.>.>.8.*.] @.@.K G , k g.1.8.i.y.8.d.P.-.E h ( Q 8.m.;.1.;.8.",
"i.;.;.f.=.=.( B F p ` >.s.;.-.*.*.S.j.8.W.>.' d j %.B.e.<.;.;.>.>.>.8.8.%. . .%.( D M - / l.M.@.X.|  .*.j.U.-.x M ' | R.;.;.>.8.",
"8.8.,.%.@...D I i N 8.r.] ] ] *.G.e.&.=.-.I.&.P i R %.P.;.;.>.1.>.>.1.%.] X.@.#.L P 9 e ;.D.O.] ]  .;.e.;.8.I.] g ! / 0.P.=.>.,.",
"g.>.X.{ -.E D A e ' 8.<.] O.X.>.1.;.1.1.;.j.l.X.M x | ;.P.;.;.;.;.e.@.] X.O.-./ J D > P r.D.| O. .-.e.1.;.;.B.I.D v ' ' ^.S.%.3.",
"-.$.;.;./ Z E 9 n -.;.-.] { =.e.<.1.=.;.1.=.F.%.` i S ..;.D.P.M.g.%.X.%.-.%.Q D K 7 N j.G.*.{ @.*.8.>.>.,.;.%.P.>.h L `  .I.I.3.",
"8.%...E N R n 4 { %.8.@.{ %.e.1.>.>.=.;.>.>.S.%.` R 2 ! ]  .O.-.$. . .' ` P H U r c B.R.%.] ] X.e.1.;.1.;.>.;.8.P.! z ' / ( ,.K.",
"] J N K P L : x ;.,.;.' @.1.8.;.>.>.3.>.>.;.i.;.Q #.f 1 ..( N D G K J D F I L e i ,.B.%.X.[ O.>.e.>.1.=.=.1.;.;.S.>.z v -.| / @.",
") F m y 5 : = / d.B...] *.8.;.>.;.>.>.>.>.>.-.%.` ' ..4 3 g j b m M V A n s < * Q P.;.] X.] ;.8.>.;.;.1.>.>.>.>.r.#.` i u N E | ",
"f e 0 r s % 4 %.N.,.' $.e.;.;.1.>.>.>.>.1.>. .X.@.( / w % 4 : = = > > 4 3 % . w #.8.O.X. .%.8.;.1.1.;.>.>.;.8.;.%.@.-.g X w q p ",
"D U ` %.;.E r / V.%.] ;.3.;.;.1.>.;.>.1.1.X.} *.O.E f , ]  .K A L L Y E ^ ( j - E g.%.' X.8.1.>.;.1.>.>.>.1.8...@.] / j E ;.R N ",
"z.y.,.B.8...R h -.g.*.8.;.1.,.;.>.>.1.1.X.X.;.X.P N - L 1.[ @.,.i.>.;.*.%.-.-.9 i B.;.] >.e.;.;.1.;.>.;.>.e.@.X.X.I f n H.c.;.:.",
"i.;.y.8.~.#.` A A M.D.;.;.;.1.;.>.>.3.@.X.%.{ L L 1 d >.%.N.g.>.d.j.8.g.c.' ' Y q  .e.*.3.>.,.;.1.2.;.=.e.%.} ;./ D r G P.%.-.x.",
"| %.;.-.8.P.' ( N P d.B.*.;.1.1.>.3.@. .$.Q N I y > #.;.F.;.{ X.<.;.8.;.K.:.U @.h k S.J.-.>.;.>.>.;.2.8.=.] @.%.L M 8 | 8.#.X.O.",
"*.1.1.8.-.g.3.` L x ' :.K.;.:.1.>.%. .#.' N J M $ E %.8.<./ } e.>.=.>.;.;.G.X./ W i ] D.3.;.=.>.>.1.8.-.{ X.*.E L 9 y -.1.*.X.%.",
"8.<.>.;.>.;.B.@.` h Z | ;.G.;.<.%.{ X.@./ N R > f 8.+.j.X.{ >.1.1.2.>.>.;.1.P.] ] v x ,.D.-.,.>.;.e.>.] } %.' K V = E $.8.*.] %.",
"y.>.;.>.1.1.8.i. .R e ( ( -.I.*.] ] X.@.L L h 2 @.X.8.;.] ;.e.>.;.>.;.1.>.$.e.K.] / h E <.D.=.;.;.;.X.X.*.] B P 9 j ;.&.m.] X.i.",
"8.;.>.3.=.;.1.M.@. .h d @.W @.B.<.;.8.#.A R 8 K *.-.y.] %.8.1.>.=.;.;.>.1.;.;.P.:.E r v X.1.I.D.S.-.%.*.' B J c q @.] M.*.] ;.i.",
"8.>.1.1.=.;.1.1.%.( ' 2 D @.Q { $.X.X.T R h z %.-.V.|  .;.1.1.<.1.2.>.>.;.2.>.j.%.D y 1 )  .%... .] ' W C A R y P ;.m.;.] ;.;.y.",
"e.1.;.;.8.y.%.*.X.E @.N % E ] B x v N D j > / e.B.X.' ;.1.;.1.;.;.>.>.1.>.3.>.*._ J j + j / j v D D Z N D L h n d.R.;.] -.8.8.8.",
">.;.1.;.1.*.X.O.K D E f . - t a M N m i + # / y.8.` *.<.;.1.>.>.1.=.;.>.>.3.@.O./ J j # > E / D j j N B M d o D ^.j.( *.y.>.;.e.",
"3.;.1.1.;.%.( J B E i w E K L Q ] { Q Y L 1 S 8.8.%.;.;.*.1.<.>.1.=.;.1.>.%.{ %.W L y * ^ %.X.] P L ( ' ( ( v d X.S.;.-.;.>.8.e.",
"y.>.8.>.%./ N C ^ h , O.8.j.l.j.8.g.e.@.O.W h / &.P.y.;.e.<.;.>.>.>.1.1.%.] X.%.( V $ f >.} ;.8.D.R.D.S.D.;.@.x h ;.I.;.-.>.1.8.",
"e.e.;.@.W M D E m $ L <.8.j.-.*.#.-.G.H.;.O.K x ` @.P.j.;.1.1.<.>.3.8.-. .X.*.` U y + E ;.P.M.>.6.;.-.&.S.T.X.( y C 8.R.3.;.;.i.",
"i.;.@.| D A E x   i *.d.g._ ] ]  .;.2.;.I.+.' c N ] ` l.d.;.6.1.>.>.;.X...@./ J V # 9 %.L.i.] ' ] ] ] %.&.r.B.{ K q / ;.P.&.%.y.",
"y.%.O.] D I S + e O.1.m.] X.O. .@.>.1.=.j.;.Q ( r W ` ( S.8.;.;.>.-.] { %.' N P w . D E.m.`  .%.O.] ;.8.1.-.P.=.] p v -.j.e.;.8.",
"*. .@. .V E 2 e *.<.S.@.] X.{ } ;.e.>.>.;.m.] | V 9 O.E *.I.>.e.1.-.%.@.*.U K v X g 8.L.] X.X...| -.1.1.;.;.e.S.{ Y h ..-.S.=.1.",
"1.:.m._ D c > O.<.S.%.{ X.X.X.X.=.>.1.;.=.m.e.( @.q i #.( 8.m.,.%.X.X.O._ J I - q *.T.*.{ +.{ ] -.8.;.=.1.1.=.P.*.' N Y %.S.I.8.",
";...^ D R r x -.1.;._ X.X.X.] *.>.;.>.;.1.;.K.X.` ~ = V @.#.%.| ' ( / ` / ! i < @.m.y.' X.X.{ -.8.1.1.;.>.;.1.j.8.( I I *.] -.i.",
"E N K P W t P %.<.;.X.X.{ X.X.=.3.>.>.2.<.;.e.,.Q @.p % y y f m R Q / E W x - ~ @.8.=.] ..| *.e.>.;.>.1.;.1.=.<.g.` ' D / O.` { ",
"Z p y w < + F ..&.:. .@...{ $.;.>.;.1.>.>.>.;.;.{ ..N + ; a x e > 4 i m V s 1 ) / ;.*. .O.%.e.1.>.>.=.;.2.1.;.-.H.@.X.V % p M Y ",
"I N m x f 7 r | ] :.....O.{ -.e.>.1.>.>.>.3.%.%.%...g ; ..1.-.' I E _ } $.-.c N ] %.d._ %.1.>.>.>.>.*.>.>.1.8.:.>.Q / h 9 M A R ",
"8.P.,. . .#.f h  .#.*. . .O.,.>.;.>.>.>.>.;.@.-.( L 5 D ;.%.T.%.` %.X.X.X.( ' M R ] e.,.-.8.>.>.>.;.;.3.>.1.-.*.W V j v ;.=.%.1.",
"B.m.M.,.' / ' 9 n -.-. .| *.y.;.>.>.<.1.>.X.@.W D f i *.=.S.;.P.y.j.A.B.Y.%.( ^ v ) ' K.d.;.>.>.>.>.>.>.3.;.$.E D m z @.+.<.S.G.",
"@.' %.I.Q.;.] ! : F 8.*.] *.3.>.;.>.;.>.@.@.Q N G i ( *.S.*._ $.S.D.m.i.d.^.*.] n j ' #.P.<.;.;.>.>.>.3.*.%.W D V d | X.N.!.;.%.",
"X.#.8.-.;.(.*.] m ; O.;.X.>.>.>.>.8.1.%.@.` N L c D -.%.g.] O.] %.>.;.;.*.8.I.{ R = G ' g.j.=.;.>.>.e.*.%.] C D t / %.0.I.] ] O.",
"@.8.1.1.;.3.P.] O.i j j.1.,.>.>.>.e.-.O.' C D K x |  .8.y.] { *.8.>.>.8.;.*.P.=./ > 8 ` =.P.:.,.,.,.%.@.@.D U i N *.-.~.X.|  ...",
"c.e.1.8.0.;.I.,.' ! f -.P.,.,.;.y.>.@.;.R D R M L :.#.G.@...*.g.e.,.8.y.,.;.B.N.@.b 3 )  .B.c.,.y.%.X.;.E F V f #.>.~.#...%.#.>."
};
