/* XPM */
static char *c02e580c24824a629257271ca8ba2e9b1ISab9bmtP0jZNBQ[] = {
/* columns rows colors chars-per-pixel */
"64 64 148 2 ",
"   c #302E2F",
".  c #312F31",
"X  c #343333",
"o  c #3A3636",
"O  c #3A3937",
"+  c #363739",
"@  c #393638",
"#  c #3D3B3B",
"$  c #423E3D",
"%  c #43403E",
"&  c #3E3E40",
"*  c #423F40",
"=  c #483F40",
"-  c #454242",
";  c #4A4544",
":  c #4C4946",
">  c #464648",
",  c #4D4648",
"<  c #4E4A49",
"1  c #514947",
"2  c #524D4C",
"3  c #56514E",
"4  c #59514F",
"5  c #584F50",
"6  c #565251",
"7  c #5A5553",
"8  c #5E5956",
"9  c #5F5A59",
"0  c #615957",
"q  c #635D5B",
"w  c #695F5E",
"e  c #66615E",
"r  c #69615F",
"t  c #685F60",
"y  c #666261",
"u  c #6B6463",
"i  c #6E6966",
"p  c #6E6A69",
"a  c #706665",
"s  c #716967",
"d  c #746D6B",
"f  c #796F6D",
"g  c #76716E",
"h  c #7A716E",
"j  c #786F70",
"k  c #777271",
"l  c #7D7472",
"z  c #7D7976",
"x  c #7F7979",
"c  c #817675",
"v  c #827976",
"b  c #857C7A",
"n  c #897E7D",
"m  c #86817D",
"M  c #8A817E",
"N  c #8D8482",
"B  c #8E8985",
"V  c #918685",
"C  c #928986",
"Z  c #908788",
"A  c #958C8A",
"S  c #988E8D",
"D  c #998E8C",
"F  c #97928F",
"G  c #96918D",
"H  c #98908D",
"J  c #99918F",
"K  c #99918E",
"L  c #9A908E",
"P  c #9B918F",
"I  c #98938F",
"U  c #9A928F",
"Y  c #99918E",
"T  c #988F90",
"R  c #969090",
"E  c #9B9190",
"W  c #989390",
"Q  c #9B9391",
"!  c #9C9290",
"~  c #9C9291",
"^  c #9C9491",
"/  c #9C9492",
"(  c #9D9593",
")  c #9F9593",
"_  c #9C9793",
"`  c #9F9594",
"'  c #9F9794",
"]  c #9D9492",
"[  c #9F9A96",
"{  c #9E9996",
"}  c #A09694",
"|  c #A19795",
" . c #A09695",
".. c #A19694",
"X. c #A09895",
"o. c #A39894",
"O. c #A09896",
"+. c #A39897",
"@. c #A29A97",
"#. c #A29996",
"$. c #A39998",
"%. c #A39B98",
"&. c #A39B99",
"*. c #A49A98",
"=. c #A49C99",
"-. c #A79D9B",
";. c #A69C9A",
":. c #A69E9C",
">. c #A79F9C",
",. c #A79F9D",
"<. c #A59C9A",
"1. c #A89E9C",
"2. c #A99E9C",
"3. c #A6A19E",
"4. c #A6A19E",
"5. c #A8A09D",
"6. c #A9A19E",
"7. c #A6A5A0",
"8. c #ADA3A1",
"9. c #ACA4A1",
"0. c #ACA7A3",
"q. c #AEA6A3",
"w. c #ABA7A4",
"e. c #AFA7A5",
"r. c #ABA4A1",
"t. c #ADA9A6",
"y. c #AFAAA7",
"u. c #ADA9A5",
"i. c #AFABA8",
"p. c #B1A7A5",
"a. c #B2AAA7",
"s. c #B1A9A6",
"d. c #B2AAA8",
"f. c #B1ACA8",
"g. c #B1AEA9",
"h. c #B7AFAD",
"j. c #B4AEAB",
"k. c #B7B2AE",
"l. c #B6B1AE",
"z. c #BAB2AE",
"x. c #B8B3B0",
"c. c #BEB6B3",
"v. c #BCB6B3",
"b. c #BDB8B4",
"n. c #C4BCB9",
"m. c #C0BBB8",
"M. c #C6C1BE",
"N. c #CAC2BF",
/* pixels */
"6 3 5 2 5 2 < 5 > * 2 2 2 2 2 2 2 2 2 6 2 2 3 u 9 # ; , ; - - % & * # - - - > - - 2 1 2 : 1 < < < < : : 2 : < 2 - = 2 6 7 6 = * ",
"C C C N M M n v 6 6 C  .D D C C C N M M n a h K d < C Z Z C N N N M n v b n b 2 , C =.;.( P D D Z A A C N b b b > i C V N V n 2 ",
"A D Z C N N V b 5 7 O.8.=.O.`  .( K Z C b h M M 7 6  .9.` ( ;. .K A Z B M B N 2 1 ~ n.h.g.f.d.g.9.6.O.P C M n v ; l *.A C N D 9 ",
"C A C N M M n c 5 7 ` &.( ( W Z N M M N d g N N 9 2 ~ :.E C C Z N n b m n M m < 2 ~ k.0.4.0.3.K C N M b n c v v ; d K C N N C y ",
"C C V N M M n v 3 7 } ;.` K N N M V n b h g n N 0 < C } K C V N N N M M b n m 2 2 K x.t.s.$.V n M n M M c l v v , s K N N M C i ",
"V A V N M M n v 2 7  .;.K N N V N n v b M l v B q 2 M M M M M n n b b d f N M 2 <  .c.s.E M n C N N b c l h v l ; d K C N M N d ",
"V A V N N M n b 2 4 O.( C V B N b b M M M b v C q < M V V N n C N b z 0 d B N < 2 :.s.A N N C V M v l l c c c f ; d D C N M N l ",
"V A Z V N M n c 3 7 P A A C M b n V N M m b h N r > M U C C C n b N N n d b N 3 2  .C N B C M v k l c l h h c f , f K C B N b l ",
"V C N M M b b v 3 3 C o.L C N C D Z C C B N v A r 1 V *.K K C M N Z B D b R :.2 < :.=.O.~ A V M V N M n n b n c < h *.D M n c c ",
"v c l l f f f d < 4 f g h A C A Z C B N N M b K q $ f n C N m B N b v m p u h % 3 C C A M M n V N n n b v v b h < r v k f f f f ",
", - - - ; ; = = # - 2 # - 7 2 < < < ; ; - : ; 3 - # $ $ % - % - - # # $ # @ $ $ : : % ; : , 2 : ; $ * - ; ; < , # - : : < 2 2 2 ",
"$ w d d a i i d d i r i e 8 0 8 # - q u u u u w u i u q 0 q u 2 $ r i u i u r a r w r 4 8 k d o < d d s d w 2 i g g d d d d s : ",
"2 } =.C C S D A C C C N g m b d - 7 A s.g.8.8.3.=.{ ( ( C n C 0 : O.7.;. .~ U P G C C k h D c $ b h.6.2.2.n 8 N D D C C V V M 7 ",
"2 D Z b V V V N N n C g g B n f - 7 Z l.d.0.r.3.=.3.%.%.P n n 7 2 O.:.` ( ~ D C B N m h M n s % b 0. .;.z d q q N A N n b n v 7 ",
"3 D A A C V C C N M v k C v n h - 2 C j.w.r.3.=.=.{ _ W P n n 6 < O.=.` ~ A N n M M l g M M f $ b s.` z h A A d 8 h C N v n b 4 ",
"2 A H B A C v l l v l N N v V c = 2 C j.7.7.3.=.%.%.{ O.} n n 5 < O.=.` C M N N n v b l z M d O v :.v b K B N G b r a n M n b 6 ",
": C D E m d z z m N B N b b B v # 3 A k.f.t.9.6.=.O.W K B v N 5 ; *.*.C M V V n b m N v v M f # i V N A V V M M C C d u b M M 6 ",
"; N ;.b i B D D B N b n b z C v # 2 C a.6.&.( D C V N m b b M 2 ; } D C C V v b M M n n v M g $ r T A C C V V M M n C h l M M 4 ",
", D N a Z E N N N M n n b b G v O 2 V K B N M n b b b v v h n 2 < E ~ C M v b V M M b b h n g # i ~ C C M N M M M M b n A C A 2 ",
"2 h f P { D D D K A A A A A A d O 8 ~ } ~ P D A C V N N n n V 8 2 B C C } P O.W U K D D M D l % u *.2. .} ( K D A A A C G O.M 2 ",
"# 1 a s i i u u d a u r r u r 2   7 x f f f d d k v f f f f g < ; w 7 r n k h l l d i i s b r o 3 d l l g g d d g d i r e u 0 % ",
"- > * $ * $ & = # @ @ # # # * $ - ; - % ; > , , - @ o X     X . X X X . X X o + # O O # o $ % & - $ # # # # # # O O $ % - ; : ; ",
"n v c c d d d f 2 2 V N n Z N N C N M b v l h M q ; l m m z z x z z l f s d d ; ; v M n b v l v l h h h h d d d ; 0 b v v l l l ",
"~ D A A n v b v 3 0 j.m.j.l.d.0.7.3.=.=.H n c C q 2 0.M.v.v.b.x.j.s.7.` C C V 3 2 ~ s.=.-.*.O.} ( ( K D C N V b : d =.O.( G A M ",
"A C V N N v l j 5 0 d.j.0.r.:.:.*.{ ( ( P M h V w : 6.M.w.:.7.:.D Z B C N M m 2 2 A 2.( E W T A C V M n n c c c : u D } K A C b ",
"A Z V V n l c c 2 0 d.g.7.3.3.=.;.{ W ( ( N f M w - } b.t.{ E D D G A A M b n 2 2 A ;.` } K C N M M M n b c c c , r C } K A M v ",
"A C N b l l c c 2 8 s.g.7.r.3.3.3.=.%.{ K n h n r : M K D D D A A A A b h N M 2 2 D 2.O.K V N M M M v c c f v c : r C } G N b b ",
"A V c c c c c c 2 7 j.k.t.9.:.&.( K C N n n c n q 2 n M n N M N N b v 0 d A M < 2 ( =.A V N C V M v c c c f v h , a A D B n n b ",
"n b v v c c c c 2 6 ;.&.R D C C N m n b b b l n 9 < M D C C C M M M M h d m M 3 3 ( A C C C M M v c c c h c v f : s D V N N n z ",
"n n n v v c v v 2 0 A C N N n M M b n c c l l n 8 < C P C C N b b M M N h I =.2 2 *.P K C V n v v v v v v l v h 2 f P D C n v h ",
"N n n n n v v v , i 8.;. .T P D C A C C V V C M 6 < b K } U A G A A B G z z B : 3 O.*.X.P D C D D C V V N M M v 2 a M n c c c c ",
"0 5 5 5 2 2 2 1 # < q 0 8 q 0 9 r 0 6 6 5 6 8 0 % # ; : 3 3 3 8 7 3 2 2 : o $ # : 0 4 7 0 7 8 0 0 2 2 4 3 4 4 3 # ; 4 5 7 7 7 7 ",
"# < 2 2 3 4 3 3 7 7 2 3 6 5 0 7 @ # 7 8 8 0 7 & 6 i 0 0 7 7 6 * + 1 2 2 4 8 5 8 7 3 6 4 7 7 8 # - 8 9 q q 9 8 7 0 0 7 0 7 2 7 ; ",
"; n 9.=.O.*.U X.P K D A C n M M O w -.D T A g d b O.A Z C C A 0 ; b P } P D D C C C N M b M v ; r 6.0.( O.O. .( E K K v g n k 7 ",
"- C v.f.0.9.6.4.=.=. .( S n b c # f +.D A p d z i N C M n b N 7 ; n =.-.O.( T ~ K A A C M n h - d d.K C { ( ~ K G D G g b V c 6 ",
"; C l.7.3.=.3.{ { _ E K D b v v # p 2.B g n C Z d 9 n A n n N 7 - c O.O.~ ~ T D A C C C M n l % s 7.U O.{ ~ ` W E ( z z N M v 7 ",
"= C j.7.6.=.*.{ ` ( W ~ G b b v # k C i N A V N A l 8 z C b N 2 $ c ;. .~ K K D A A C C N b l - a 2. . .;.} C M b z b V b m M 4 ",
"$ B l.r.6.=.*.%.O.{ P K G b b v % 6 i B A V N N N Z b 7 k N N 6 $ v O.O.( K K D A C C V n n c % u 6.;.r.C d k z b b M M b M M 3 ",
"* N l.r.3.=.O.{ K K A A A n v c # : G P C V N N N n A d q N A 7 # v =.O.~ D A A B N M n b n h % q =.s.B i N B Z C N n b b M V 3 ",
"* N s.O.{ O.( E D A C V M v v l o w +.C B V N N M m M z v N Z 8 $ v ~ A Z C C N M M n b v v k = q p.A i Z D N N M m n b z M B 3 ",
"> C s.8.} ~ A A N N M b v c M h # 7 -.O.~ K D A Z C B C G %.E 8 , n P P D C C V M n n b v M f - e m h U o.D D A G D G A A U N 2 ",
", M  .K C V n n M M n b v n m r X 2 N C V N n b b m b b z m l < 3 V V C N N M M n n b b v n a % 4 0 b M v b v v b v z l z z a 2 ",
"$ - = * % - > ; ; - $ $ $ - ; $ # - - - % - ; ; : - O O O X o o o - O # $ # % - - $ $ * $ ; $ # % ; % % $ $ $ $ $ # # $ = - $ # ",
"d u w t w w q w , % r s u u r u p y r y e 3 0 v y $ q w 9 8 8 9 8 3 6 7 6 8 8 $ = w i u i q u i r w 0 e q 0 q q - < u i i s 8 - ",
"D P D A C C N n 7 4 =.k.s.9.5.6.-.O.( A M d z A q 4 ( 5.=.*.*.O.W ( K C B D V 3 < ( z.s.7.6.=.=.=.&.O.( C M V M ; f } A Z V D 7 ",
"C A C N N n M v 2 7 6.k.6.6.6.=.( A C N z g N M 8 2 ` 6.W K K D N N m n b M n 2 2 ~ h.7.6.r.8.=.W K A N M n b c , h ( C B N C w ",
"C A N N M M M v 2 7 3.d.7.7.O.N n n M M d g N N 0 < D =.W A C N M n n n b M n 2 < D j.3.7.6.( C n b n m b c v v ; s E C N M N u ",
"N A C N M M M v 2 7 7.j.r.D M M N M n v v h b V q : V D B N N N N N N M z M n 2 , ~ l.t.6.A M M N N N b c h v h ; d K C N M V s ",
"C A B N M m M v 2 4 s.s.A N V C M b b M N v v C q 2 n M M M M M n b l q d C N < < *.k.O.C M V V N n v j l j b l ; d S C N n N f ",
"V A V V N N M v 2 6 -.P B C B n v M N M M v l C q : M C C N N N N b b u d N N 2 2 ;.*.N V C C M b l c c l c c f ; f D C N N n v ",
"V A V M n n b v 2 7 K P A N b c N N n n b b f N r : N K C C N v v M M B g B K 3 2  .V C N M v c f c l l l f v h 1 f ~ C C n v l ",
"V V M M b b b b 6 7 M C C K P } ( E E D G A N ~ r 1 M *.O.O.A A A D A W x B { : 2 -.-.*.} A A A C V V M M n N v 2 f S C n c v v ",
"u w w 0 q 8 8 7 - < 0 3 7 z k d k k d d i u i x 6 # 7 r p i i p p u r y 7 ; 2 # < s s i i s s h d a u u u u d y $ 2 q 0 0 q q w ",
"$ $ , ; : : ; < : 2 3 : < ; ; - o # $ $ % ; - ; - < ; $ # $ $ # o # # # - < : < 2 < ; : : 2 1 # # , : : 2 2 # % 2 3 6 7 6 7 3 ; ",
"; n A N M N N M m b v M d g f u $ 2 b N N M n b m b v v v h b 8 % c C M M M b M n v b v l b v $ w A M M N z u g A B M M M M b 4 ",
"2 ~ ~ M C D C C C V C b s Z M d $ 8 A 6.-.O.` ` ( K K D C m V 8 - P p.3.*.} } ~ K G A V v n v - l =.D } l y m p N D N M M n b 7 ",
"6 P B B A V C N M N B d b N n f - 6 N &.( E E D A A C C C b n 8 ; D -.( U K K A A Z Z C v v v ; l  .A z l m M g 9 m A m n n b 6 ",
"2 A A Z C A Z N b v h b N b M k - 3 N ;.( E G D K C A C B n n 6 - D 5.} U P K A Z Z C C v v v - b ( d z D C N Z l 8 l A n n b 6 ",
"< A K A D c d h v b m B n b V c * 3 N ;.( E K D G A Z C N b M 8 % A 5.U K K K G A A C C v b c ; q d b D N B N M C M 7 i N b b 6 ",
", C E D h h m M C Z N m b v C v $ 2 C :. .( E D A C V M n v M 6 # D 6.} ~ K G C B N N M v v c - < N } C B B N N N B m 7 z N N 7 ",
"; C ( d h ( A V M n n n b v B b @ 2 C ` A A C B N N m n n c n 5 $ Z &.D A C V N N M n v v b v # u ;.C C V N V N N n B g k M C 6 ",
"2 C l v X.A D A Z C B C C N E l @ 2 C D A C N n M b v v c h n 8 ; N D C N N n n n v l l k b f % i ~ A A C C V N N M N N D O.C 2 ",
"< r l U C C C C C C N C N C M u @ w ..~ T D D A C C C N n V V 6 6 *.6. .~ K D A C C V C V C d $ u S ;.~ P K A C C C C N C A v 2 ",
"& , 8 4 3 4 2 2 2 2 < 2 2 2 3 : & 5 q 7 7 0 0 9 0 0 9 8 8 8 6 - > q q q q q 0 0 0 8 7 8 8 0 2 # 2 7 7 8 7 7 6 7 6 3 6 3 : 2 2 - "
};
