/* XPM */
static char *_2e37bef8eb94de19faa9b0b75a5d294c2lOqiByQyDNSIV8[] = {
/* columns rows colors chars-per-pixel */
"64 64 242 2 ",
"   c #321C03",
".  c #2D1C0B",
"X  c #37250D",
"o  c #3D2A14",
"O  c #3E2B1A",
"+  c #392615",
"@  c #3F3422",
"#  c #452C0A",
"$  c #432C16",
"%  c #432C1A",
"&  c #4B2C1A",
"*  c #522A14",
"=  c #4A3515",
"-  c #45321B",
";  c #4A351C",
":  c #4D3A1D",
">  c #483715",
",  c #533D1D",
"<  c #58351A",
"1  c #64361E",
"2  c #4B3623",
"3  c #4D3A23",
"4  c #473726",
"5  c #533E24",
"6  c #533D2B",
"7  c #5A3A24",
"8  c #523E30",
"9  c #422F21",
"0  c #633C23",
"q  c #6B3B26",
"w  c #723D26",
"e  c #5A451B",
"r  c #56441B",
"t  c #55491D",
"y  c #654C1D",
"u  c #4D4228",
"i  c #544225",
"p  c #5A4525",
"a  c #55422A",
"s  c #5A452C",
"d  c #5D4A2D",
"f  c #5A4A27",
"g  c #5C522A",
"h  c #4B4437",
"j  c #574332",
"k  c #5C4633",
"l  c #5E4A32",
"z  c #5D4C3A",
"x  c #554939",
"c  c #5B513E",
"v  c #5D5437",
"b  c #644C23",
"n  c #6C442B",
"m  c #624C2D",
"M  c #6A4629",
"N  c #76442C",
"B  c #645325",
"V  c #6E5425",
"C  c #63542C",
"Z  c #6A542B",
"A  c #64592B",
"S  c #6A5C2C",
"D  c #655C23",
"F  c #725625",
"G  c #73552A",
"H  c #745B2A",
"J  c #7A5D2C",
"K  c #755925",
"L  c #624C34",
"P  c #634D39",
"I  c #684F39",
"U  c #684833",
"Y  c #754532",
"T  c #744A34",
"R  c #7B4B34",
"E  c #7B4D39",
"W  c #784834",
"Q  c #655234",
"!  c #6B5433",
"~  c #6C5A34",
"^  c #66513A",
"/  c #6B543D",
"(  c #6D5A3C",
")  c #67583B",
"_  c #725B35",
"`  c #71553B",
"'  c #7D523B",
"]  c #735C3C",
"[  c #7A5937",
"{  c #6F642D",
"}  c #7D622D",
"|  c #74682C",
" . c #6E6331",
".. c #736334",
"X. c #746A32",
"o. c #796E34",
"O. c #74623D",
"+. c #7A633B",
"@. c #7C6735",
"#. c #7D7339",
"$. c #7A7437",
"%. c #5B5547",
"&. c #635441",
"*. c #6C5641",
"=. c #6E5941",
"-. c #695D4C",
";. c #705741",
":. c #725C43",
">. c #745E49",
",. c #795E4A",
"<. c #645F54",
"1. c #766242",
"2. c #796343",
"3. c #76624A",
"4. c #7B634B",
"5. c #7E694D",
"6. c #776A45",
"7. c #6D6453",
"8. c #686558",
"9. c #7C6652",
"0. c #7E6A52",
"q. c #746957",
"w. c #7C725B",
"e. c #766945",
"r. c #6A6962",
"t. c #716C63",
"y. c #77756A",
"u. c #7B7C73",
"i. c #6A5F63",
"p. c #834C38",
"a. c #804C34",
"s. c #83523B",
"d. c #885639",
"f. c #95593C",
"g. c #84672D",
"h. c #846D3A",
"j. c #866A35",
"k. c #99613C",
"l. c #8D733C",
"z. c #85793B",
"x. c #92763C",
"c. c #967A3C",
"v. c #8B732B",
"b. c #855740",
"n. c #985D41",
"m. c #A25F44",
"M. c #826A4E",
"N. c #826746",
"B. c #9C6243",
"V. c #966945",
"C. c #867449",
"Z. c #927741",
"A. c #957B42",
"S. c #9A7E43",
"D. c #967C4C",
"F. c #836D54",
"G. c #836B57",
"H. c #88735A",
"J. c #927A5C",
"K. c #AA6B4B",
"L. c #A56847",
"P. c #B67651",
"I. c #B3724E",
"U. c #8F7A64",
"Y. c #877562",
"T. c #927D66",
"R. c #827E74",
"E. c #C17754",
"W. c #7F8278",
"Q. c #A0833D",
"!. c #9A843B",
"~. c #9D8243",
"^. c #9A8446",
"/. c #888341",
"(. c #A28543",
"). c #A58945",
"_. c #A98D44",
"`. c #A48A4A",
"'. c #AB934A",
"]. c #AC9145",
"[. c #B4974B",
"{. c #A68C55",
"}. c #AD9452",
"|. c #B29750",
" X c #BAA54E",
".X c #87816D",
"XX c #9B856C",
"oX c #98856B",
"OX c #848175",
"+X c #858379",
"@X c #8A877B",
"#X c #998C76",
"$X c #93937F",
"%X c #A38C74",
"&X c #A68F7A",
"*X c #AA957C",
"=X c #A79579",
"-X c #A38A6B",
";X c #C9915B",
":X c #D6BF5B",
">X c #C4A952",
",X c #DAA769",
"<X c #8A8884",
"1X c #918E83",
"2X c #928F88",
"3X c #959283",
"4X c #9C9B8B",
"5X c #96958A",
"6X c #979991",
"7X c #8F9082",
"8X c #AE9A83",
"9X c #A29D8B",
"0X c #AC9781",
"qX c #B39D85",
"wX c #B49F89",
"eX c #A19F93",
"rX c #A2A28F",
"tX c #B5A28A",
"yX c #B9A48D",
"uX c #B7A388",
"iX c #ADAB96",
"pX c #AEAD9A",
"aX c #A7A593",
"sX c #BEAA93",
"dX c #B3AD98",
"fX c #B3B29C",
"gX c #ACB09F",
"hX c #B8B8A6",
"jX c #AEAEA6",
"kX c #C3AE96",
"lX c #C8B39B",
"zX c #CCB8A4",
"xX c #D3BEA8",
"cX c #C6C2AB",
"vX c #D9C4AD",
"bX c #C4C6B3",
"nX c #DCCAB3",
"mX c #DDC7B4",
"MX c #E4D0B8",
"NX c #EAD9C3",
"BX c #F2DCC5",
"VX c #CFD4C0",
/* pixels */
"*.=.=.( *.;.=.;./ =.*.*./ *.*.=.*.*.( *.*.^ ) ) ( ( ] / L L ( ( ( =.&.Q l ^ =./ P l a i 5 2 2 5 3 ; >.T.oX#X&X%XG.l *.*./ =.*.l ",
"L L P P P P L 5.1.P *.^ ( *./ ^ P ^ / I *.! ~ 1.:.( 1.Q a Q ] :.O.=...S - % V.I.B.B.k.f.B.w H >Xv.^ cXnXvXnXMXBXtXX l =.) *.( P ",
"k L L k L L a :.5.6 6 L ^ L L P P P P *.*.l ] :.1.O.1.l L 1.~ 1.1.1.Q X.O.- n.I.B.B.n.B.L.p.`.>Xl.0.sX0XqX0XqXwX>.+ l / *.*.;.*.",
"P P L P P P s L ,.k *.>.9.3.^ k j 8 8 l L k ~ ( ) ( ( L 4.H.Q ~ ~ Q i { /.5 w s.E E E E E q l.).j.:.wXyXqXqXqXyX3.O a ^ ^ ^ ^ =.",
"I ^ I P P l p m 4.9XrX9X5X4X8.& l.S.x.h.f ^ ;.` ( ( ^ ) M.5.:.;./ L Q $.S X...M E p.E s.d.w b j.H m %XqX*X*X0XqXJ.9 k L L &.I =.",
"O O o . . ; #.S q.jX6X5X2X6X<.= ].|.(.j.d L L L L L k p p L P L L Q d d s f g $ * * * * < *   X     ; s 6 3 2 2 6 X 2 k 3 9 9 9 ",
"5 i p s s d #.X.v q.7.7.q.-.6 2 Q m 6 2 s L d s L d s d L d d d m l Q l 3 + O 2 3 8 8 O 6 l c c =.&.a 2 2 3 6 9 + . - d 5 ; ; 5 ",
"S.D.^.^.N.) X.$.5 6 a 7 7 b _ O._ Q l s s L k s d L i l L L m l Q L 3 3 5 P D.}.{.{.{.[ q.pXpXrXrXeXt.[ |.'.{.`.J.2 Z ^.Z.A.S.S.",
"l.j.g.g.Z ;.^ B m k L P j (.>X[._.`.(.S.Z 8 i d d d a k m L d L m a L L ^ 6 _.>X(.).].v.t.zXeX2X1X6X8.j.>X_.(._.].U ..(.c.Z.x.l.",
"d.V F K Z ,.*.5 s P ^ P s ~.[.c.c.x.A.(.+.6 L L L L 3 d L L l 6 ; >.:.Q ; % j.l.@.H Z , 4 r.8.r.t.u.-.b J y B b f s _ j.j.g.J G ",
"b r e e r =.&.k P :.;.l 5 m ! _ ~ ! C L d d Q Q d L 3 d Q d L i - ( s L s 2 - 5 2 7 0 7 < < 0 7 & v { f >.F.G.9.5.z m r e r b ~ ",
"~ ~ ( ( O.F./ L P ^ M.L L ( 6 a l k s k k l a a d ^ i a :.d d Q 3 s d d d d s 6 6 n.I.I.K.m.L.L.N { | H.mXnXnXvXxXH.Q Q Q Q =.2.",
",.9.4.9.F.4.P k U 8 ;.I ` H.N.l L Q ^ Q Q Q d : ; 2 - 5 =.:.s L d d Q d d l s L 6 d.n.f.s.p.' s.M A X.M.lXlXyXqXtXF.L ;.=.;.;.:.",
"k l l l k k L P P L ( I s 6 5.F.L Q L Q L L ) L 3 3 5 i a =.Q s L k L L m L s L s w W n Y T N R q C D J.zX8X8XqXkXG.3 k l L k l ",
"P ^ P k k L P L k L I k 5 p ; F.M.a d L L I L L L :.9.=.a s L d m d d d l l s a z M q n M M M M T ~ > 0.yX8X8XyXsX0.6 z L l P z ",
"P P I ^ L k L ^ *.P P d L 6 k 4.L f d f d L C L Q L Q 5.( s d L L l d k d d d a s 3.6.4.3.4.3.3.5.( u a / &.=.,.>.L l L L P L L ",
"P k L ( ,.*.s P =.^ a - : ; ( I L 4.1.( / m m s d s d z z a L a u a s a a a l 6 ;.1.l P L d s s a l Q s ; 6 k 6 a L P k L L P P ",
"z l L P >.:.4.^ i d ( 4.F.U.XXoXT.;.:.F.0.F.0.5.e.1.L ! O.! m N.V.V.V.V.V.V.Q 5 ( L 5 m L d s s l Q Q Q a s ^ L L L P P P k P P ",
"L U P ^ ^ a 3.4.> Q sXNXnXnXnXMXnXF.$XfXpXfXpXfXfXhXw.Q.:X^.U I.K.K.K.K.P.K.0 6 l d s m s d L Q a 5 3 5 5 =.:.L L P L L z k k L ",
"/ ^ P P / L / ,.p X.#XsXtXqXtXkXXXL iXpX4X3X3X3X3X4Xw.].'.h.U R T T R ' s.1 = Q m k k s a L Q ; 3 ) ^ ^ =.,./ / P L L L k U P P ",
"*.=.*.=.*.;.;.4.i D o.-XyXtXqXsXU.z 7X<XOXR.R.R.R.<X7.c.c.h.M ' ' ' ' ' d.w < L l d d L L Q $ O ,.F.4.,.( ^ ^ L P L L L *.P L P ",
"( / =./ / *.` 4.a S X.6.8X*X*XtXoXz t.u.OX+XOXR.+X+X%.F j.S 6 w N w w w w 1 * k L ) L s a + + ) ,./ ^ P *.=.P ^ *.P L ^ I P U *.",
"*.*.*.*.=./ ^ ,.d X.S S 6.1.G.9.G.z %.%.8.7.7.<.8.<.c : r r ! T < = < < , n M L d - o - % ; l k d P L L L ! ^ I I L ^ ^ L *.*.*.",
"=.P P P z =.;.5 - > o p D a +.l.l.Z.l...a Q z ~ +...+.+.] ] _ v y.$X@X$Xq.c Q i a L P L d l s s 4.:.*.*.>.>.*./ ^ *.=./ *.*.*.=.",
"L ! ! +.O.s ^ XX*X&X*X8X=.3 ).(.~.)._.x.a i U ..Z U ~ ! U d i z fXhXiXcX$Xu 3.1.4.9.;.*.^ L 5 4.J.*.P L I ^ L z I ;.*./ *.*.*.*.",
"l `.)._.(.: 0.BXvXvXxXmXoXi ~.x.l.} J } k s _ Q k P l s d l p =.aXrX9XiX@X@ 4.0.( ^ ( ;.;.k a 5.I L P ^ ;.*.^ ^ *.*.=.I I ;./ / ",
"Q S.Z.+.] 6 w.yX%XXXoXoX( 5 J } H V G b 6 Q ~ d a r 5 a ( Q p v 9XaXrXiX$X4 ` =./ *.*./ ( s s 9.*.k P ( *.*.*.:.*.*.=.*.L ^ / / ",
"L L z x c l l =.;.L L s L L 3 , r e e , a _ I L i = = f 2.) m 3 <.iXrXdX+X4 :.:.*.) *.=.*.*.L / :.*.P *.( *.I *.) ~ ( =.L L =.=.",
"l P ` ' s.b.b.' ;.=.;.;.=.=.l s d d s k L d m l l L Q ~ ) l m a OXiX1X9Xy.4 3.:./ / / / *.;.^ L *.=.^ ^ *.L P L Q o.Q =.=.P P L ",
"` K.K.n.B.f.f.p.L z k L L :.( d L l L d d s s s s s Q d d d f z rXU.u.1Xr.u 1.:.=.*.=.*.=.*.*.^ *.P ^ / P L L k x S ..Q P P P s ",
"U f.p.W Y Y W W L Q / ( ] P >.I a l d s i s ! 9.F.! i l L L p ) eX8.t.2Xr.g #.Q / =.=.=./ / ` 1.>.,.5.,.=.^ z l Q | #.~ 6 / :.P ",
"I L L ^ ( ` ` ;.U z *.4.] ( ^ *.Q Q ^ L ^ 4.F.4.,.H.;.s f L s ^ 5X8.<.6Xt.g | l ^ =.:./ / *.;.4.5.F.L Q 4.1.] j s #.X.d k P P l ",
"/ =.4.9.F.5.5.4.M.( :.N.] ( P ^ 3.>.,.,.:.*.^ P ^ *.F.>.d d a ^ @X8.8.7X8.f { :.s ( ,.^ ;.*.( I ( 1.i d 1.O.] l g X.f j P k L / ",
"k / M.] ` O.2.] ,.H.F._ _ ` L ^ ` ^ L &.P P *.*.*.P *.3.4.( m ^ r.%.v 6.o. .g s P ,.=.=.^ *.^ L O.O.( _ 1.O.O.a g a 2 d a ^ F.*.",
"P 1.[ ] ! _ ,.[ ! ` 4.:.2.2.l x P &.) P z P ^ I ^ ^ ) U / ,.>.^ %.%.3 o./.o.A i ,.:.^ ^ ( *.^ L ~ ~ ) ) Q L d 6 s 5 k 4.:.,.,.s ",
"^ L _ ] ] 1.] ] ] _ [ [ ] Z T M n 0 P 2.`.'.[.'.].'.)._.l.a *.L L =.d  .{ g $.C.L *.^ I *.*.*.L P ^ ^ P ^ *.;.,.k l >.=.1.;.*.^ ",
"P k P 1.[ :._ +.] ] _ ] m k.;X;X;Xk.& ).:X>X X|.[.|.'._.l.a l m m ( Q 3 , l L B a x P / P *.*.=.*.P ^ / ;.;./ M.( I *.*.^ ^ =.*.",
"L l P ( _ ] +.2.[ ] :.1.L P.,X;X,XK.* A.(.l.h.l.Z.l.l.x.x.d a L L d l d : *.) 3 ! Z.Z.A.S...P ( l k L k k k k P *.P P P L P L / ",
"L P P j ^ _ ` ] ] ` ] +.! K.;XP.P.p.7 h.x.x.Z.l.l.H b J g.k d m L l d L l ) ^ s Z._.(.c.Q...P >.^ P k L L L P k k k k L L L l L ",
"L P k L :.` [ ` _ ] ! 1._ B.P.K.L.f.7 h.x.l.g.J F F V G H k d L m d L m d ^ L a j.S.j.[ g.V ^ 4.*.^ P ^ ( P z U P I L L L P P P ",
"*.P ^ [ C 5 p _ +.` _ ] L f.K.f.n.p.< t b = e J H J J V , = L L L L m l d Q l ^ C e o = y r ) >.) =.=.:.:.=.z k P :.) l L P ;.;.",
"*.,._ s s ^ L d +.2.] L L f.f.p.W W b f - % - p t p r : > a f L L d d Q d : > i M i i p / :.4.l u j j l k P ) ^ ^ =.*.^ k k ^ / ",
"^ ! d l *.I ;.^ m 2.s a ` p.E R p.[ z.Q s L L d d a a d d L L L L L l d Q F.oXXX%X*X8XXXO.( l M E R [ d.d.n 0 T / =.^ =.4.&.l l ",
"( L *.:.z L L ^ ^ m m ( U T E E p.Z #.X.s L L L l l Q l i m L L L d Q : 0.BXBXMXNXMXBXvX:.) u d.E.L.L.K.K.a.w s.T / 1.H.4.P l P ",
"^ P L P *.^ P U l k ;.) s p.s.b.b.Y A #.a d l m L m l L 3 a Q d d L d , H.nXvXxXlXlXzXlX9.( a ' k.R E T W R R d.0 l J.,.d k L L ",
"L z ^ / *.^ ^ P P P P =.p 1 q q w < , A i d L l d l L L Q 3 i Q m m L 5 T.MXkXoXuXsXsX8X! :.l 0 E ' ' s.s.' ' a.7 Q ,.k l P l P ",
"P / =./ *.*.L k I ^ l :.;.m r , : > 2.m 3 Q l l L C m d Q L 3 6 Q m s d XXG.3 oXtX8XwXC.{ O.Q M w W T N n w q 0 & s ,.k P k P P ",
"L P P *.*.=.P l ^ ^ *.P ^ 4.;.P L m ) Q 3 l m L L l d l d ^ a 3 Q z d m H.7 ^ -XJ.U.G.Q z.~ s u & % % $ $ $ $ - o Q M.z L L l P ",
"P L k P P k k z z / ) P *./ 1.Y.Y.T.oXoXF.L s s d d l m m L s : L L l l d ( =.^ Q [ _ ..#.B % 3 Z L A ~ _ O.! Q 1.F.;.k k ^ L L ",
"l 8 +.A.l.A.A.D.A.+.b.P.d.` cXnXvXnXnXMXkXz a l m L m v l m ] f 5 d d l l s d i Z c.x.| S Z - .._.S.~.S.c.c._ 1.M.z l ( ~ L P L ",
"l j l._.!.x.x.x.c.X.B.P.N ' lXqXqXqXqXkX5.a L d d l l l L Q _ _ : a s d l L L l L V G e f b a +.S.x.l.j.J K Z 3./ j k A z.Z j P ",
"^ / [ g.K V V F K V s.b.w T tXtXqXqXuXyX4.s d L Q Q Q d m ! O.Z 3 k i s m L m l L ) Q m Q ] :._ K G V V V V Z :.P L s  .#.f 8 P ",
"*.^ B V V K K F G Z n a.w 1 #X=X%X=X=X*XF.d s L ! ! _ _ ~ _ O.d : L d k L L d s _ :./ ;.` *.:.Q , , r , r > p :.P L k  .$.i k ^ ",
"s k # # # # o # , > & q 1 7 4.5.3.:.,.4.4.L L m d m +._ _ ~ _ b 3 Q L s l l d L / s a a 5 a 5 Q O.( :.:.4.2.F.G.P l z l f s P a ",
"G.y.q.q.7.7.7.e.> _ D.: 4.yXyXkX=Xs : s s l L d l ] _ ! ! _ ] ~ 5 L a : : > ; : ; a 7 s 5 a i 5 p k P U *.^ m 3 $ - 3 + ; ] 5 =.",
"bXbXbXbXbXbXbXbXw.Z C.: T.MXvXmXlX=.i m d L d L l _ _ ! ! _ ! [ 5 5 ~ :.4.0.F.G.5.a d ( =.( ) ^ P d d C i a G.oX%X*X0X0XF.>.$XhX",
"fXfXiXiXiXiXpXpXhXr.: V F.zXsXyXqX2.a d L m L l d L _ _ _ _ Q _ f y =XMXvXnXnXNXnX3.4XfXfXfXdXfXfXR.!.:Xg.Y.BXnXmXnXnXMXoX.XVXzX",
"3X3X3X1X3X$X1X@X5Xu.g } 3.yX8X8XwX5.a L L L d a L d I _ ! ! ! ! g | %XzXuXuXtXtXH.% .XpX5X3X5X3XaXy.Q.[.H H.sX*X*X0XqX&Xs .XaX3X",
"@X@X+X@X+X@X+X+X1Xt.f | 1.wXuXtXuX4.6 L s p d ( L s 5 d _ Z L ~ A S O.oXuXuX#X.Xl 9 @X3X+X+XOXOX@Xq.x.(.} 9.yXtXtXtXtX*X^ y.3X@X",
"y.y.y.y.y.y.y.y.u.%.: o.X.U.&XoXT.;.i d s ) ,./ / ] I s f _ #.{ X.#.{ S -X*X=X*X%X3 8.W.R.OXu.u.W.8.e K e =.&XXXXXXX#X%X3.8.u.y.",
"&.&.z z ^ &.&.&.P z X.z. .Q d Q ] d l ( M.,.L L / / ;.>.L #...: a z.z.g *.G.M.4.F.k h %.x x %.&.8.7.Q p m 4.F.F.M.M.4.,.=.z c x ",
"` I ^ U I *./ / *.;.( f Q z.> o O.m ( 3.P 6 k P / z k L / 6 - 8 6 C  .s L ^ k k U ;.=./ a 3 5 a 5 p U L k ~ +.( ( ^ a l L z d L ",
"*.^ ^ P k ^ *.U P / ^ k &.~ d 3 ] =.*.P P P ^ ( ^ *.I I P z I *.^ v d l ;.^ ^ I ^ ( ( ( =.:.;.( l 6 6 s k 5 ) ^ L l k P =./ L k ",
"( ^ ^ *.^ / / ^ ^ ^ =.;.;.=.a a :.*.=.( *.:.=.*.;.( =.=.=.=.:.=.=.;.*.*.*.=.*.>.*.*.*.( =.=.*.=.*.>.:.;.,.L L >.*.^ / ^ / *.*.I "
};
