/* XPM */
static char *_f0c4b6b916747ceee68655a035a7790C4ppkSD76BWUSsuj[] = {
/* columns rows colors chars-per-pixel */
"64 64 228 2 ",
"   c #471301",
".  c #4D1501",
"X  c #431901",
"o  c #4D1B05",
"O  c #4C1D0A",
"+  c #441B09",
"@  c #541501",
"#  c #5C1400",
"$  c #541A04",
"%  c #5B1B04",
"&  c #541E0A",
"*  c #5B1E0B",
"=  c #641C04",
"-  c #6A1E06",
";  c #601F0C",
":  c #6D1F08",
">  c #4C210D",
",  c #46220A",
"<  c #54220C",
"1  c #5B220C",
"2  c #572006",
"3  c #562512",
"4  c #5D2511",
"5  c #5D2914",
"6  c #532919",
"7  c #5D301B",
"8  c #6C2105",
"9  c #64230D",
"0  c #6B240D",
"q  c #62280E",
"w  c #6C280F",
"e  c #71250E",
"r  c #74290E",
"t  c #7C260D",
"y  c #632512",
"u  c #6B2612",
"i  c #642913",
"p  c #6C2A14",
"a  c #6D2C19",
"s  c #642D19",
"d  c #732611",
"f  c #792712",
"g  c #732B14",
"h  c #7A2D15",
"j  c #742E19",
"k  c #7C2E19",
"l  c #753116",
"z  c #7C3116",
"x  c #75331B",
"c  c #7B321A",
"v  c #6F3622",
"b  c #763524",
"n  c #763924",
"m  c #7C3A23",
"M  c #7D3D2B",
"N  c #7A3623",
"B  c #7F432D",
"V  c #7D4024",
"C  c #7B4C39",
"Z  c #69432E",
"A  c #842C13",
"S  c #812E19",
"D  c #843116",
"F  c #8A3216",
"G  c #83341C",
"H  c #8B351D",
"J  c #84391D",
"K  c #8A381D",
"L  c #92351D",
"P  c #9D361B",
"I  c #94391E",
"U  c #9C3A1E",
"Y  c #80260B",
"T  c #A43B1E",
"R  c #A93B1D",
"E  c #A73113",
"W  c #873620",
"Q  c #8B3622",
"!  c #863B23",
"~  c #8C3B24",
"^  c #8E3D29",
"/  c #933C23",
"(  c #9D3D23",
")  c #933D29",
"_  c #983B29",
"`  c #A43D23",
"'  c #AA3E21",
"]  c #AD3F28",
"[  c #B43F23",
"{  c #AE401F",
"}  c #83432D",
"|  c #8B422A",
" . c #8B482F",
".. c #954126",
"X. c #9B4126",
"o. c #94442C",
"O. c #9C442C",
"+. c #95482E",
"@. c #9F492F",
"#. c #834633",
"$. c #894732",
"%. c #8B4B3A",
"&. c #864A36",
"*. c #964632",
"=. c #9C4630",
"-. c #954B34",
";. c #9C4B33",
":. c #934E3A",
">. c #9C4D3A",
",. c #8E513C",
"<. c #94533D",
"1. c #9D533C",
"2. c #A44124",
"3. c #AC4225",
"4. c #AF4827",
"5. c #A3432A",
"6. c #AC452A",
"7. c #A3492C",
"8. c #AD492D",
"9. c #B34426",
"0. c #B94626",
"q. c #B54926",
"w. c #BB4A26",
"e. c #B34629",
"r. c #B9472A",
"t. c #B34A2C",
"y. c #BC4B2B",
"u. c #BB502E",
"i. c #A34730",
"p. c #A54B33",
"a. c #AD4C33",
"s. c #AB4E39",
"d. c #A54F3A",
"f. c #B34D34",
"g. c #BA4E33",
"h. c #B34E38",
"j. c #B84F39",
"k. c #B74731",
"l. c #A65135",
"z. c #AC5036",
"x. c #A3533D",
"c. c #AC533B",
"v. c #AF593E",
"b. c #A2583F",
"n. c #B35136",
"m. c #BB5235",
"M. c #B5543B",
"N. c #BB553C",
"B. c #B6593F",
"V. c #BB593E",
"C. c #C24D2B",
"Z. c #CA4E2C",
"A. c #C4502C",
"S. c #C8502D",
"D. c #C24F31",
"F. c #C35233",
"G. c #CC5332",
"H. c #C2553A",
"J. c #C3593E",
"K. c #CB5A3E",
"L. c #C85839",
"P. c #D05430",
"I. c #C8603D",
"U. c #8B5848",
"Y. c #9B5741",
"T. c #9B5A45",
"R. c #945846",
"E. c #A25945",
"W. c #AB5B44",
"Q. c #A65A45",
"!. c #B55641",
"~. c #BA5741",
"^. c #B55A42",
"/. c #BB5B42",
"(. c #B45E49",
"). c #BB5E49",
"_. c #9A614D",
"`. c #9C6757",
"'. c #AB634D",
"]. c #AA6349",
"[. c #BB6146",
"{. c #B4624C",
"}. c #BC644D",
"|. c #BD694F",
" X c #B06047",
".X c #A96653",
"XX c #AA6C58",
"oX c #A66956",
"OX c #BD6651",
"+X c #BD6A53",
"@X c #B36F59",
"#X c #BF6E58",
"$X c #B56752",
"%X c #BD725F",
"&X c #AB7264",
"*X c #B67561",
"=X c #C05741",
"-X c #C25C43",
";X c #CA5D42",
":X c #C25F48",
">X c #C95F49",
",X c #D05E44",
"<X c #C36146",
"1X c #C96146",
"2X c #C3644C",
"3X c #C9644C",
"4X c #C4694E",
"5X c #CB684E",
"6X c #D16249",
"7X c #D66046",
"8X c #C36651",
"9X c #C26E56",
"0X c #C46C54",
"qX c #CB6C54",
"wX c #C36E59",
"eX c #CA6D59",
"rX c #C47056",
"tX c #C4715A",
"yX c #CB735C",
"uX c #C87257",
"iX c #D3735C",
"pX c #CC7762",
"aX c #CB7B64",
"sX c #C57663",
"dX c #D27965",
"fX c #D3826C",
"gX c #CF8C7C",
"hX c #D88873",
/* pixels */
"p p p w p w 9 u i 5 u u 0 w u 0 w u 0 u u 9 e &.C & y 9 1 1 1 % 2 < < 1 q y 4 5 4 p u u 0 u 9 w 9 9 u 9 u y q p y 3 e g h g 1 1 ",
"k.M.m.n.f.m.m.t.g u m.-X!./.~.~.N.B.^.B.m./ ' dXR.= k.B.N.B.M.B.(.!.!.z.6.B.g.k w k././.!.B.B.!.M.!.B.^.M.n.g.r.1 H m.n.f.M.g.j ",
"N./././.!./.:Xn.u f <XsX9X0XtXtXuX9X4X2X!.7.N.V.j 0 J.pX+X#XyXsX0X2X2X).M./.J.z 0 N.yX9XwXwXwXtXtXwX0X2X[./.H.3.1 O.1X/./.!.1XK ",
"f.B.M.N.N.M.!.t.p g [.#XOX+X+X).M.M.M.!.5.+.=X[.n = V.wX{.{.[.^.n.f.n.B.M.N.N.k 0 n.tX}.}.0XOX).!.M.M.n.M.n.9.q.y ) ).M.M.B.-X/ ",
"n.^.M.M.B.M.V.t.u g ).wX0X[.B.n.M.B.M.8.2.5.m.4X! * k.8X).B.B.n.!.^.^.B.t.M./.z - M.9X#X#X[.B.n.M.M.N.N.8.3.9.6.9 ^ N.M.N.n.-XX.",
"f.N.M.B.M.M.^.k.u d 2XtX(.n.M.B.!.f.6.f.!.8.8.2XM : 9.3.6.t.n.f.f.f.f.( X.J.).x 0 m.tX$X^.f.n.M.!.!.a.3.' ' q.6.1 ) /.B.B.M./.a.",
"f.!.B.M.M.B.N.r.p p }.[.n.M.^.m.6.8.N.!.^.f.3.2XB = 6.k.a.f.f.n.f.8.8.A O.-X:Xx 9 /.#X!.n.M.^.!.n.6.R 3.3.3.e.2.1 _ V.N.n.B.).f.",
"n.(.B.B.~.!.B.e.p p /.M.!.~.f.3.8.B.B.M.B.M.] 2X&.* 6./.^.B.!.c.c.!./.c.+.9.4Xm 0 H.M.n.!.!.n.5.T ' 3.2.2.3.9.2.9 ) /.B.^.!.n.3.",
"r.n.t.t.t.t.r.0.p w g.1XN.n.t.N.:X/./././.-X9.4X#.# r.-XN./.n.l.c.N.V.5X'.*XhXj 1 L.1X;XH.u.0.q.w.t.t.r.q.r.C.3.9 ( >XN.m.t.9.3.",
"R ( ` T ' U ` ( u p I I +.'.(.{.{.(.{.{.{.$XW.gXC = ` B.{.{.{.[.2X X(.OXT.,.!.d g e.8.a.6.3.e.r.t.4.r.e.e.6.r.2.i G 5.( P ( ` ' ",
"i 1 1 1 3 * < < > 1 u & 3 d y i i y y 1 1 1 < v 7 & 9 3 s y i s s 4 y * * # % 1 q y * 1 i ; u i 1 1 * 1 * 4 4 4 < 1 9 9 9 y y i ",
"< W ) / / ^ ^ ~ ) / W / F m c g 3 3 D G Q K H A F Q H S G c F a > G W W K H G H G G K j f E.`.o p ~ / Q | W p I O._ ..X.X.O.( i ",
"p J.1X!.[.-X-X-X-X/.-XH.;.*Xg.P < g y.5X0X2X2X4X2X4X2X2X-Xm.P.c 9 <XyX8X5X4X0X0X8X2X<X7.2.qX;.@ +.6XJ.:X1X9.Y y.-X-XV.-X/.1XH.h ",
"p N.B.E.^.n.M.M.M.M.-XO._.1XN.` < g t.0X0X+X+X#X0X+X#X+X#XM.C.k y 3XwXOX+X+XOX}.(.!.N.@.M./.) % O.-XV./.'  .B S 0.-X^.B.M.!.f.g ",
"a m.(.!.N.~.(./.H.m.9.T.$Xf.<Xi.* g 8.9X}.}.OX}.OX}.OX[.OX^.y.z q 2X0X+X+X).n.f.M.N.6.) N.}.+.% _ 3XM.` -.+X+XR.c T H.!.N./.s.d ",
"p M.!.M.!.g.' 2.;.l.E.@Xm.f.4Xc.& e 8.9XOX}.OX}.|.OX0X$X#X^.A.g y 2X#XOX^.n.B.B.M.6.f.5.a.2X*.$ ../.2.x.[.n.k.3X'.} H g.V.!.f.g ",
"y M.V.-Xa.o.>.1.W.{.}.V.c.h.0Xc.$ d f.wX+X+X+X#X0XOX}.}.(.M.F.j y 0X+Xn.M.M.!.f.6.n.).f.3.4X*.$ H e.c.!.M.B.M.h.H.8X<./ f./.B.g ",
"y f.1Xp.} .X}.<Xm.f.n.M.B.t.9X(.@ u k.0X{.[.).^.^.!.!.N.M.B.C.j y -X^.n.V.M.6.6.N.B.M.M.3.).d.o H J.V.!.M.B.M.M.M.M.J.x.p.2X[.g ",
"y g.a.} {.H.f.M.M.M.n.M.n.t.dXW.. p t.^.M.M.n.c.n.c.f.a.a.6.w.j y J.[.N.a.' 3.B.n.n.n.M.R M.Y.@ Q -Xf.M.f.n.n.n.n.M.f.B.{.8XtX0 ",
"p ( o.-XJ.V.).-X2X2X2X0X9XyXpX( O h C.J.-XH.F.D.y.y.w.w.r.w.Z.k u f.N.!.[.-X0X4X4X3X5X8XV.aXT.@ K 3XqX2X4X2X3X2X2X2X9X5X0XhX~.- ",
"3 i H H Q Q ~ ~ ^ | ! ! ! ~ A w , k U I / L I I I 2.( X.X.( 2.p 1 G f B E.-.:.;.-.:.%.%.$.&X&.. d / >.*.+.+...o.*.*.| ~ K W f 5 ",
"1 1 1 < 1 3 O < & & o $ $ $ 2 1 9 y * * * 1 y q 5 , O + X X X o o o X   . X   . O . . @ . @ * * < $ . . . . . O $ o . $ * * 1 1 ",
"5.5.5.` U U U ( p u 8.c.;.v.a.z.n.a.f.f.f.8.' C.J 1 ( 5.O.O.+.+.+.+.;.+.I 7.O.a y ` p.p.p.i.O.i.O.O.i.5.O.X.5.( 5 k 6.5.2.5.2.5.",
"-X-X).<Xt.9.r.r.a h 5XtXuXuXtX9XwXrX9XwX}.V.6.G.G 0 K.yX0XqXyXiXqXqXqX<XN.>X;XD 0 m.dX9XtXeXwXwXsXeXtX0X2X:XK.0.1 I 1X9X9X4XwX3X",
"M.B.h.B.^.6.3.3.p k 2X0XOX}.}.|.}.OX}.$X}.^.6.A.J 9 m.sX$X].}.(.B.n.M.n.B.N.m.k 0 M.9XOX}.+X#X}.!.^.B.n.^.n.q.3.4 F m.wXOX#XOXM.",
"B.M.!.^.f.3.9.3.w k 3X+X|.}.OX$X}.OX}.+X+X).3.C.K ; j.0X[.B.M.M.M.~.M.B.f.M./.j 0 n.9XOX+X}.^.n.M.M.B.^.n.3.9.q.i A n.+X$X4XB.n.",
"B.!.M.e.' 3.3.9.p g 2X#XOX}.|.$X+X$X+X0X}.^.3.C.J y 9.f.f.f.M.n.n.M.B.a.` B.-Xc 0 B.tX|.[.M.c.M.N.v.n.8.' ' q.6.y A j.9X+X!.n.B.",
"B.a.3.' ] 3.3.e.p p 4X+X+X|.4X}.[.[.^.B.B.^.6.C.G 9 3.6.t.8.a.f.g.6.7.A O.>X-Xb : V.tX^.n.n.B.~.N.7.2.R 3.3.q.2.4 L g.).B.h.M.B.",
"3.' ' 3.6.3.3.r.p p 2X).N.B.V.B.^.B.B.M.M.M.3.w.G y 8.V.!.V.^.N.n.N.N.;...r.).b 0 J.^.n.M.^.N.8.' ] 3.3.2.3.e.2.4 L m.M.N.^.n.n.",
"9.3.3.9.] 9.e.e.i l N.N.B.n.z.f.f.t.t.6.6.' ] y.c 9 t.V.f.N.z.7.a.n.M./.1.#XhXx 1 H.J.).V.f.e.3.3.6.3.9.9.6.r.3.y I -X).N.f.9.3.",
"3.9.3.e.9.9.e.] y H G.H.m.y.C.w.r.y.w.r.C.C.C.C.p u ] /.0X2X}.}.8X2XOXyX'.oX0Xf a A.H.m.m.0.q.C.C.y.y.y.r.r.C.e.p H e.4.2.R ' e.",
"k a p a u s u i < i z g g l j j D x p g p g x S < 3 u a b v b M M n n n a % = 5 q g p w l a j z x p p g g a g p < 4 u p g h a j ",
"3 9 w u p w 0 e h e d d g g z z > O g h j k x 6 j W c k r k r * o 9 0 - 0 g e g f u g r g g c < 4 j x k z j j j c k h h g p g y ",
"1 6.:X[././.-X/.-X-X~.N.m.t.A.y.O K ;X-X-XH.X.*.t.;XJ.-X-X>XK.G 4 ' H.[.[.-X-XV.V.V.N.N.m.D.9.4 G -X-Xn./.V.=X~.N.N.-X' T.).P j ",
"q a.yX+XwXwXwX#X#X0X#X#X{.f.y.q.O o.3XV.H. .$.p./ M.-XM.M.N.-Xk 1 ' 4XyX9X+XwX#XwX9X0X#XOXF.' 1 ! ;Xc.E./.!.N.~.N.V.m.:.XXK.6.g ",
"= a.uX}.OX}.|.|.}.{.8X+XOX8.r.t.O ~ 3Xn.<.E./.N.-.x t.[.M.N.V.z 1 ` 2X$X|.OX}.}.OX{.OX#X).f.3.1 Q N.W.^.n.M.!.^.^.J.@.oX>X~.f.d ",
"; a.9XOX$X|.}.OXOX}.OX#XOX8.q.t.O O.M.#.W.H.M.M.J.E.N 6.<XB.=Xz 1 ( 4X+XOX$X}.}.}.OXOX+X}.m.[ 3 Q /.^.M./.m.e.6.5.i..X+Xe.[.V.e ",
"; a.uXOX}.|.+X+X0X+XOX{.).a.w.e.* j #.v.m.M.B.M.B.H.].b 5.!.-Xx & ` }.+XOX}.+X9X+XOXOX+X).m.3.< J V.n.-Xf.) ;.1.W.W.$XN.n.}.[.e ",
"* p.tXOX}.}.[.).).~.^.B./.a.r.4.O s N.m.M.!.M.!.m.M.;XY.! J.3XN $ ` 0X+X}.}.[.[.).^.B.B.^.m.3.& G m.:X8.$.W.{.[./.N.f.n.h.4X+X0 ",
"1 7.-XB.^.B.M.!.n.h.M.n.n.8.q.2.+ J ;XB.M.n.M.M.M.M.M.a.E.m.eXV & ` /.B.^.!.!.M.n.M.M.M.n.t.2.< c ;Xp.} {.H.h.h.h.n.f.h.8.4X0X: ",
"y 6.<XV.m.M.m.t.t.t.e.q.9.3.A.2.O j 1X2X).[.[.-X-X<X/.0XsXaXdXk 1 3.H.!.V.M.m.y.n.r.q.e.[ C.X.3 G 5.*.}.K./.<X3X8X4X3X9X0XfX).- ",
"i e.A.t.y.9.0.q.0.0.q.e.e.r.y.H , w a.(.!.c.c.s.p.W.c.!.p.c.5.i j 0.r.t.0.9.9.3.9.q.9.4.e.r.I 1 g z 5.8.i.p.d.c.d.d.;.x.l.p./ i ",
"3 1 2 1 < 1 < < 5 4 < & < 1 1 1 & 4 & % $ % 1 @ y 1 O . X @ . O O < < O > & < 3 y < & 1 & 4 < & < 1 * $ & $ o X % O $ @ @ $ o 3 ",
"L Q Q ! J G z H y 3 K K J ! J K Q K G H W x t .XU.o D K c x x z c x x l z ! c y 3 G Q J W K W Q H G G G G x G H 5 y H H Q ~ c y ",
"m.-X-X=X-XH.-XD.g g -XiXeX8X2X0X9X0X4X<X-X5.8.qXM - H.8X5XqXqXeXuXqXqX>XF.>X;Xk w m.iX0X0X2X9X0X9X0X0X4X2X-XL.y.4 ( ;XN.-XV.,XD ",
"n.B.M.B.B.M.).f.d h ).9X4X$XwX#X[.[.^./.s.O.V.).b - -XtX$X{.$X8XB.B.M.B.n.M.N.k 0 N.tXOXOX+X+X+X}.[.).V.!.^.r.6.* *.:X!.M.B.;X~ ",
"f.^.M.M.M.N.V.8.w g [.+X|.+X).n.M.h.B.M.( O.m.4Xn - m.tX}.^.^.h.n.M.M.^.n.B.N.k 0 N.9X}.+X9X[.N.M.n.n.^.B.6.0.9.9 ^ /.N.B.N.;X) ",
"M.!.M.M.B.M./.t.p e 2XwX0X^.n.N.!.!.f.8.t.5.f.8XB = t.~.n.n.M.n.B.B./.m.3.B./.c 0 n.wX#X}.!.n.M.M.!.B.z.3.R e.6.9 ~ /.n.M.M.-X@.",
"f.!.N.B.M.M.!.g.0 p 4X+XB.f.B.^.M.3.4.B.).e.6.8X} ; ] { 6.a.a.f.f.8.8.D O.-X-Xn 0 ^.tX[.B.f.B.^.V.z.6.R ' 6.9.3.1 ) -Xn.B.B./.a.",
"f.!.M.B.B.M.!.y.p p >X!.h.!.B.t.3.h./.!.M.f.3.4X} = 6.N.B.n.m.N.n.n.f./ ..H.<Xx 0 V.[.n.M.B.^.n.6.{ { 3.3.3.0.2.1 ) /.N.M.!.).e.",
"f.!.B.n.M.M.f.9.w a m.).N.f.6.R f.N.t.f.z.f.E ;X&.% 6.V.N.N.n.;.z.M.n.~.+.V.dXb 9 F.B.M.M.n.6.R T 3.2.' 6.` r.2.9 / -X!.V.n.8.{ ",
"6.r.r.e.9.r.0.e.p g 8.m.B.}.-X8X0X0X9X0XeXyX/.fX&.% r.1X4X2X[.[.2X2X4XiXXX&XdXh y G.J.>XH.y.y.C.y.y.F.y.y.y.C.e.u / V.h.e.3.[ 6.",
"H D S D D c S k 3 y k e v Y.:.R.<.<.<.R.<.,.%.&XZ * S | :.-.-.:.>.:.:.:.} w f y s H H G F K J / I H H H K K / H < p S f h k z K ",
"< 1 4 y y y 4 q y u u y = # % % $ . # @ # # # # 9 9 9 % @ $ * * O $ @ @ % 0 9 9 w 9 9 9 y p u 3 < 5 y y i 9 O < p p g g g h g 3 ",
"4 8.N.f.f.f.f.n.n.h.a.g.( Y.X.L 3 p 6.f.p.a.s.a.a.f.a.8.a.5.e.G 3 5.a.a.a.a.a.f.f.f.8.f.6.r.e.< K m.f.s.m.5.+.O.m.m.N.M.N./.e.g ",
"a J./.Q.(./././././.-Xf.R.sXC.( < h y.wXyXwXwXuX9X9X0XwX4XN.C.c * H.aXwX9X9X9X9X0X9X9X).n.w.t.& O.1X/.;X;.#.c.X.m.2X~.B.~./.m.g ",
"j ~.W.W.~.M.M.B.~.!.J.*..Xm.).2.< f 8.0X}.OXOX}.}.OXOX|.+XB.C.c * N.wX}.}.OXOXOXOX}.#X}.f.r.e.1 O.<Xm.d.R.x.n.-.N t.<Xn.B.!.f.h ",
"p m.^.M.n./.H.g.e.e.O.XX2Xt.4Xp.< e 8.wXOXOX}.OX}.OX}.}.#X(.C.z * N.wXOXOX}.$X}.+X}.OX$Xn.r.t.1 @.;X$.T.-XH.f.H.1.b 2.>XM.V.f.p ",
"i M.V.N.V.2./ ;.x.b.'.OXn.f.0Xc.$ e 8.9X|.}.}.OX#XOX+X+X}.M.C.z $ M.wXOX4X}.0XOX$X9X#X}.n.r.e.1 W $.1.N.M.B.B.M.J.(.M / J.!.n.g ",
"i f./.J...<.W.{.{.}.J.f.M.h.9X!.$ 0 f.tX+XOX#X}.[.[.).^.!.M.F.h & !.tX#X$XOX{.}.[.!.^.V.z.0.4.< s c.H.B.M.M.B.B.B.m.{.b 8.-X).g ",
"1 M.;X~ Y.}.H.f.f.M.n.M.M.6.eX(.. p g.}.).!.^.^.^.B.M.M.N.n.g.z & n.2XN.^.!./.B.M.N.n.c.a.0.6.& ~ ;Xn.B.M.M.M.n.M.M.-X>.d.-X8Xw ",
"p r.+.Y.3XN.).).).[.[.2X2X[.fXc.o p e.N.M.M.n.f.a.f.8.6.6.3.y.x 4 g.!.B.n.z.f.f.a.e.6.5.' w.5.& W -XN.B.N.V.B.V.!.N.V.#X%XfXwX- ",
"i D 2.J.m.V.!.V.V.!.^.).).8X^.H > c C.F.H.A.y.C.y.C.C.y.y.C.C.j p G.K.L.F.C.C.C.y.C.C.C.y.G.( < S /.0X2X[.-X-X^.[.:X[.}.!.eX6.y ",
"3 y h p a p p w p u 8 9 9 - : i < j D g h z z z z z z k z j z 4 y z k z D c z z x z z z z c p < p g x j j a j a j a p w 0 = 0 5 "
};
