/* XPM */
static char *_43b24103f5b40dbacf918144a25f529BurEHRjtkPgwmvsB[] = {
/* columns rows colors chars-per-pixel */
"64 64 240 2 ",
"   c #23161E",
".  c #1B1B26",
"X  c #1D1D2B",
"o  c #161727",
"O  c #10182D",
"+  c #231B25",
"@  c #231E2B",
"#  c #2A1C26",
"$  c #311E28",
"%  c #1C212A",
"&  c #1B2533",
"*  c #1F3139",
"=  c #24232C",
"-  c #2C242C",
";  c #25292F",
":  c #2E272C",
">  c #33262D",
",  c #3B252A",
"<  c #35292E",
"1  c #3B2A2C",
"2  c #342326",
"3  c #242432",
"4  c #252A34",
"5  c #2B2A34",
"6  c #292935",
"7  c #332631",
"8  c #342A32",
"9  c #3B2C33",
"0  c #372C37",
"q  c #2C3236",
"w  c #26333A",
"e  c #2B363C",
"r  c #32343A",
"t  c #3C333A",
"y  c #393437",
"u  c #422B2D",
"i  c #4C2C2D",
"p  c #442727",
"a  c #522E2C",
"s  c #442D31",
"d  c #492E32",
"f  c #4B3132",
"g  c #4C3B3B",
"h  c #463738",
"j  c #543233",
"k  c #5A3534",
"l  c #523D3C",
"z  c #5B3B3C",
"x  c #593936",
"c  c #50322E",
"v  c #643D3A",
"b  c #663C36",
"n  c #723D39",
"m  c #55433E",
"M  c #4D423C",
"N  c #6B423B",
"B  c #664239",
"V  c #76463B",
"C  c #2B3B42",
"Z  c #283A45",
"A  c #363C43",
"S  c #483B42",
"D  c #593D41",
"F  c #374347",
"G  c #35484E",
"H  c #484649",
"J  c #544443",
"K  c #5C4443",
"L  c #5C4A4D",
"P  c #5A4748",
"I  c #474D53",
"U  c #445254",
"Y  c #4B5355",
"T  c #4D565A",
"R  c #4D595A",
"E  c #4A5657",
"W  c #535C5D",
"Q  c #565457",
"!  c #5D4A50",
"~  c #634443",
"^  c #654B4C",
"/  c #6A4D4B",
"(  c #684843",
")  c #784B43",
"_  c #6C534C",
"`  c #66534B",
"'  c #77584B",
"]  c #644E53",
"[  c #6C5452",
"{  c #685658",
"}  c #735454",
"|  c #745B55",
" . c #765B5C",
".. c #7A5C5C",
"X. c #785A55",
"o. c #714F50",
"O. c #55625E",
"+. c #7B635D",
"@. c #796157",
"#. c #565E61",
"$. c #595E63",
"%. c #485867",
"&. c #7A5F61",
"*. c #765E61",
"=. c #675B61",
"-. c #556162",
";. c #5B6365",
":. c #5E6669",
">. c #5E696A",
",. c #5B6769",
"<. c #5B6D71",
"1. c #616669",
"2. c #636B6C",
"3. c #7C6263",
"4. c #796768",
"5. c #65716E",
"6. c #656E70",
"7. c #696E72",
"8. c #677271",
"9. c #6B7474",
"0. c #6E7876",
"q. c #6E7879",
"w. c #727B7A",
"e. c #737878",
"r. c #8B513F",
"t. c #874E3D",
"y. c #854C45",
"u. c #88554A",
"i. c #95554C",
"p. c #9A5A4E",
"a. c #975849",
"s. c #8A5953",
"d. c #9B5C53",
"f. c #975B54",
"g. c #A55D4E",
"h. c #A25E53",
"j. c #AC5F51",
"k. c #84624D",
"l. c #9B614C",
"z. c #856454",
"x. c #8C6C5B",
"c. c #886657",
"v. c #9E635A",
"b. c #926E5A",
"n. c #986658",
"m. c #95715D",
"M. c #9C755C",
"N. c #8B705D",
"B. c #A8644C",
"V. c #A46154",
"C. c #A2665D",
"Z. c #A4695E",
"A. c #AB6857",
"S. c #B26D54",
"D. c #B46859",
"F. c #A6755E",
"G. c #B47155",
"H. c #B5745A",
"J. c #BA755B",
"K. c #BB795C",
"L. c #BA7458",
"P. c #B56A4B",
"I. c #826464",
"U. c #846A6B",
"Y. c #866A68",
"T. c #976C61",
"R. c #8B7269",
"E. c #947464",
"W. c #997664",
"Q. c #9D7A65",
"!. c #957669",
"~. c #95796B",
"^. c #9B7B6B",
"/. c #997669",
"(. c #886E71",
"). c #8C7373",
"_. c #877173",
"`. c #957B76",
"'. c #A46A62",
"]. c #AC6D63",
"[. c #A46964",
"{. c #B36E64",
"}. c #A37B64",
"|. c #AC746D",
" X c #A27D6B",
".X c #AA7868",
"XX c #BC7D64",
"oX c #B77667",
"OX c #AC7772",
"+X c #AD7974",
"@X c #A67F74",
"#X c #B37E79",
"$X c #B37B75",
"%X c #C27656",
"&X c #C67A5A",
"*X c #C27D65",
"=X c #76817E",
"-X c #9E8375",
";X c #9B857A",
":X c #9F806C",
">X c #A3816D",
",X c #A7826A",
"<X c #BD8066",
"1X c #BE826B",
"2X c #B8856E",
"3X c #A28475",
"4X c #AA8674",
"5X c #A28579",
"6X c #A58A7C",
"7X c #AA8C7C",
"8X c #AA8977",
"9X c #B68479",
"0X c #AD907E",
"qX c #CC835E",
"wX c #C38165",
"eX c #CB8464",
"rX c #C4856B",
"tX c #CC8A6C",
"yX c #CA876A",
"uX c #D38968",
"iX c #C38B75",
"pX c #C48E7A",
"aX c #CA8C74",
"sX c #D28D72",
"dX c #C5917C",
"fX c #C9927D",
"gX c #CE9176",
"hX c #D79578",
"jX c #DA906D",
"kX c #E6936F",
"lX c #787B84",
"zX c #977F82",
"xX c #7A8583",
"cX c #A98D84",
"vX c #B58D84",
"bX c #939391",
"nX c #CB9783",
"mX c #D59E89",
"MX c #E4A688",
"NX c #DEA184",
/* pixels */
"h 0 0 y 0 0 9 1 5 r k x x x x k z k b b l h b X.{ 3 3 5 3 3 3 = = 3 = 3 5 6 5 4 6 d d d d j d d d d s s s s 9 h 6 6 9 y h h - 6 ",
" .....X...|  .} 8 b eXtXyXyXyXeXeX*XwXeX&Xa.P.MXT.= E ;.;.:.;.;.;.:.:.#.T $.#.w i h.].].].[.[.h.'.C.C.[.C.h.V.j.u S  . .| .. .0 ",
"I.4.I.I.3.I.U...1 V sXmXfXfXfXnXnXnXdXyX<Xn.wXyXt.4 ,.xXe.w.xX=Xe.0.0.2.,.2.6.C j D.nXzX$X#XzXnX9X#X$X$X|.[.{.h., L (.I.3.U.R.S ",
" .&.3.3.3.3.3.} 8 V tXfXpXdXdX1X<XXX<XrXn.c.yXtXu.; ,.=X0.7.7.2.;.-.$.;.;.,.;.e a D.$XOXOX+X$X{.[.C.C.C.'.v.h.h., P I.&.&.&.(.D ",
" .3.&.3.3.&.3.} < N sXdXdX2X1XXXXXXXXXK.B.b.<XaXu.= R 9.5.1.:.;.:.:.:.:.W ;.>.C a C.$X$XOX|.[.d.'.C.[.'.d.i.h.h.8 D 4.3.I.*.Y.! ",
"*.3.&.&.*.3.I.} < N sXnXrXXXXX<XXXXXH.oXrXH.G.hXs.; U E R W W -.#.W $.I I 2.2.e i [.zX*X[.C.C.'.[.[.d.i.i.i.h.p.< J I.3.&.&.Y.] ",
" .&.&.3.*.3.I.} 8 B sXiXK.XX1XXXH.H.XX<X<XXXH.hXk.= U W O.W W -.$.W T A I 6.8.C i {.OX[.C.'.'.'.d.p.i.i.p.p.h.f.7 P I.3.&.&.U.} ",
"*.I.3.3.4.3.&.} 5 B yX<X<XXXXXG.J.1XXXXXXXXXH.gXz.% E 2.1.:.2.-.$.:.1.,.Y T 9.F i {.'.h.[.T.v.f.i.i.i.i.i.i.h.i.1 J I.3.I.&.*.[ ",
" ... .| } ..X.' 8 N qXyXwXoXXX<XrXrXrXyXrXyXK.hXc.% R 2.>.>.;.-.-.2.2.0.2.lXbXe u oXoX|.].A.V.h.V.V.V.V.C.h.A.V.u J U.I.&.} _ o.",
"/ ~ ~ ( ~ ~ ~ m ; V P.B.c.rXrXrXyXyX2XiX9X2X1XMXX.% G -.5.2.2.5.5.5.2.7.$.W O.* j B.j.A.h.g.h.B.V.h.V.V.d.d.j.a., S _ ( ~ ~ ~ / ",
"9 @ = - - - = - X 1 k , 1 b x g l h d f j f c B t X ; 3 4 w & 4 r 5 ; ; ; . % = 9 d , , u 1 u u 9 , 1 , p u u s 3 ; 2 < < 1 8 8 ",
"3 K | ' _ [ } _ ' ` ^ ` B H m g O 8 V y.t.u.u.V r.a.r.y.t.t.a.v o A F t F F r F A Z C Z * -.,.O y ` ` ] ` P y ` X.X.' X.@.+.' t ",
"h ,X8X!.`.>X>X3X>X:X,X,X+.;XQ.' = N qXhXhXgXgXgXgXgXgXgXtXeXkXy.% 5.=Xw.0.0.0.e.0.9.5.Q U w.O.% u.9X,X3X4Xb.M m.4X3X3X>X>X4X Xm ",
"h Q.~.I.~.Q.!./.!.E.,X+.7.4XQ.k.- V &XfXdXpXfXdXpXfXdXfXpX<XqXt.& 8.=X0.w.=Xq.9.6.2.1.T ;.2.F = @.>X~.,Xz.{ P J b. X/.E.E.^.M.l ",
"S M.~.~.W.~.Q.Q.^.Q.x.4.-Xm.3Xc.- b K.gXpX9XiXiXiXpXiXpXdX<XuXV & 8.q.0.0.2.;.-.;.:.E I ;.7.Y = @.,XW.@.+.`.5X=.J '  X^.!.Q.m.g ",
"t m.^.!.^.Q.c.+.z.I.4.;X:XE.3XN.: b L.fXdXpXpXpX2XpXpXpXdX<XuX( & 5.=X0.,.#.;.>.;.T W E W 9.U % X.,X@.3.>XQ.W.8X).` ` W.^.^.W.g ",
"t m.^.>XR.[ +.4.R.~.-X~.E.E.6XE.% B K.dXdXdXdXdXiXdXiXiX1XXXuXB & 0.e.:.$.1.1.W R #.2.#.E 9.E o _ m.R.^.!.E.E.E. X3X+.` E.:X:XM ",
"0 N.4XN.L ).3X>X:XE.E.E.!.x.6XE.. b qXgXiX2XrX1X2X<X<X<X<X<XuXB & 2.>.#.1.;.R E ;.:.:.;.T 5.T . N ,X^.m./.E.!.!.!.E.4X3.+.>X3Xg ",
"y M.R.L ~.,Xm.~.E.E.E.m.E.m.vX:Xo x %X<XXX<X<XK.<XH.K.H.H.G.&XV & ;.2.:.W Y E 1.$.#.-.;.I ;.W . _ >XE.!.E.E.!.E.E.!.T.!.;X;X0Xf ",
"h ' [ >X4X:X>X4X4X3X8X4X6X0XvX@.o B uXuXeXyXeXrXrXqXwXqXwXqXjXt.& E ;.2.9.2.0.0.q.e.e.w.5.xXO.. V 4X7X8X4X4X3X4X4X4X6X8X0XnX>Xs ",
"& 8 ` _ ` ` ` ` _ ' ` ` ` _ B h O K B.l.l.l.l.l.l.A.A.B.A.A.B.b 4 F w H $.T Q W W E E E U 9.%.O M [ z.@. .@.| | @.| [ ` P ` m ; ",
"s 1 1 > > : - : = . = # = = : > ; 9 1 < < 9 9 y 7 @ = . . o o O o o o o o o o o o +   +   $ - # 2 =   # + + . @ . % 2 1 1 u u 1 ",
"H.S.S.B.B.B.B.P.b y b.N.+.R.I.N.m.m.N.N.c.c.@.,X` = J ! L L ! ! ] ! L L K ] ! 0 , i.d.f.d.f.u.f.u.s.s.s.u.u.u.u.< V L.S.S.G.G.G.",
"rXrXyXrXK.J.&X&XN m 0XcXcX0X0X7X0X6X6X7X8XQ.b.,X_ < Y.`.).`.`.zX`.`.`.).I.(.Y.h a D.vX9X#X#X9X9X9X9X$X9X$X{.{.j.p l.sXfXfXgXfXiX",
"<XXXXX<X<XH.G.L.N m 4X6X3X-X-X5X;X5X-X3X3X~.c.,X_ : +.;X(.4._.U.+.*. .&.3.3.3.h d D.#XOXOX+X+XOX|.[.[.'.[.C.h.f.d u.wXdXiXdXdX<X",
"<X<X<XrXK.G.G.%Xb M 4X6X3X3X;X3X-X5X-X;X5X-Xz.}.' -  ._.(.4.3.*.&.&.&.3. .&.I.t a C.#XOX+X+X[.v.d.C.[.[.h.i.h.f.u r.wXdXdXdX<XXX",
"1X<XXXH.G.G.G.%XB M 3X3X;X-X-X3X5X5X5X5X-X~.z.}.` > o. .} *. .*.&.*.3.} ^ 3.U.t i Z.9X+X|.'.v.'.'.'.f.f.i.i.d.f.f r.qXdX9XXXXX<X",
"1XH.S.S.P.G.G.&Xb h 8X7X6X3X3X-X-X-X^.^.Q.!.c.,X` - / } } } }  .| } [ S ! Y.U.S i ].#X].v.v.'.[.C.f.f.i.i.i.h.i.u l.K.rXrXXX<X<X",
"H.S.P.G.G.S.L.%Xz h :X:X~.^.~.!.E.!.!.!.E.E.z.F.` : / I.3.&.&.&.*.&.&.] L ..U.S i {.[.C.[.[.'.h.i.i.d.i.i.i.h.s.i l.wX<XXX<X<XK.",
"H.S.L.G.G.G.L.&Xx M ,XQ.!.E.E.N.m.N.N.N.x.z.z.,XK > } I.&.&.*.} } &...U.{ ).cXS u {.{.[.[.d.p.i.p.p.p.p.p.p.h.f.c l.eXyX<XXXH.G.",
"%XL.%X%X%X%X&X&Xx P 2X4X,X,XF.,X}.M.,XM.M.,X,XF.M 8 / Y.).).U.).)._.(.`.4.4.).0 d D.{.{.].j.A.].D.D.D.D.D.V.D.g.j a.&X%X%XP.L.%X",
") B B m m b x x = q m J J J m M P K h M M g m m 3 o < r S t A S P S S S A X 2 3 0 b j k k z x v v k k k b k b j = c V n V V V V ",
"3 , u s d d d s k j a j j j z z O # b N V V b 3 l u.) ( N B B 1 O s s s h M M l g h g g M M m 3 & e e C e e e w C e w e w w w & ",
"0 i.oX{.|.{.{.{.].{.{.[.].g.D.D.. ' kXyXjXeXn.z.H.kXuXuXsXjXkX) : c.:X,X,X:X:X:X:X^.Q.Q.M.F.M.< e >.2.;.>.>.2.:.:.>.>.Y ;.2.F q ",
"u h.vX$X#X#X#X#X#X#X#X#X{.d.A.h.# u.gXyXyXX...Z.u.K.yX<X<X<XuX) 8 c.6XcX7X7X8X6X6XcX6X7X-XQ.c.: F 2.-.:.1.1.:.1.:.:.:.Q q.2.R q ",
"s f.#X+XOX|.OXOXOXOXOX+XOXf.h.C.. s.kXXXc./.rXrXc.^ J.yXXXrXyXB : k.3X3X-X-X-X-X3X3X;X3X-XQ.b.> F :.:.2.-.:.>.:.2.2.Y 2.6.2.O.r ",
", f.#XOXOXOXOXOXOXOX+X$XOXf.h.h.@ n.XX[  XeX*XXXuXE.P A.uXXXuXB : ' 3X5X-X-X3X-X-X3X3X6X-XQ.b.8 A ,.1.;.2.:.T E T T 7.9.W 2.2.q ",
", f.9XOXOXOX+X+XOXOXOXOX|.f.h.h.2 l } .XyXXXXXXXXXuX+XP v.yXsX~ = k.6X6X;X3X-X6X6X;X;X5X^.W.x.> C >.1.2.W I Q $.:.1.7.2.-.7.5.5 ",
"> f.zX$XOX|.|.|.|.[.[.'.[.d.h.p.@ t wXyXXXXXXXXX<XK.kXY._ uXhX( X k.3X6X3X3X-X-X^.^.~.E.~.Q.b.- e :.6.T I 2.2.7.2.1.#.-.-.9.0.5 ",
"> f.{.{.C.[.T.'.v.C.v.v.'.f.h.f.o ( jXXXXXXXXX<XXX<X&XF.!.eXhXo.= k.^.^.!.~.~.E.E.E.!.E.E.W.c.- e 2.W I 2.2.$.-.$.$.#.-.W 9.w.; ",
"s p.{.].[.[.A.h.V.V.h.d.h.p.D.i.o B jXaXiXyXiXyXyXiXrXiXnXmXNXV < c.}.>X}./.W.W.m.m.m.m.c.}.c.- C Y Y 7.7.2.7.7.9.9.9.w.w.bX>.& ",
"s p.D.[.h.h.h.h.V.j.h.V.h.A.D.V O b qXrXwXwXK.XXK.XXXXrXK.<X%Xk y M.m.m.m.E.m.b.m.b.m.m.b.}.' - w r Y R R W T $.O.W W W -.-.F 6 ",
"6 7 7 7 7 7 7 7 8 0 - 2 > - 7 - o > u > , 1 1 1 f 9 = - # + . O O = = X = X X 5 8 7 ; - < < - X = 3 = @ = % o o = X . + + @ % 3 ",
") N N N v ~ v n y O F F A F C F F F Z F C * * <.%.+ V V B K z ~ ~ l D m D ~ ( u @ S g S S g S J l l g g g h g D 3 d V ) ) ) z 5 ",
"[.].{.[.{.].{.D.b * 2.=Xw.e.e.0.e.e.q.5.2.Y T w.G x jXhXhXhXhXmXhXhXhXjXuXjXkXr.8 ..`.).).).).).).).).).U.I.Y.X., y.{.[.].{.*XD ",
"C.'.C.'.[.[.{.h.k w 2.=Xq.q.e.0.9.5.2.2.W Y 2.2.e k uXfX9X9XdXiXiX<XXXXXXXXXeX) < ..`._.).).).).).U.Y.I.U.&...o.7 u.{.[.Z.Z.oXN ",
"C.Z.'.'.'.C.[.h.j w 5.w.0.w.5.:.-.-.1.:.I I 1.9.G c eXfXiX2X<XXXXXXXXXrXXXXXyXV > ..`._._.).U.3. ...*.3.&.[ } } 7 ) ].C.[.C.{.o.",
"C.Z.v.'.C.'.[.h.j w 5.=X0.2.$.;.1.:.W T W Y $.9.F c &X1XXX<XXXXXXXXXrXrXH.XXyX) - &.`._.).3.*. .3.3.3. .o.^  .[ , ) ].[.C.C.{.s.",
"C.C.C.C.h.[.[.h.k w 9.w.1.$.:.1.;.T W ;.2.W R q.G j %XS.H.K.H.K.K.H.Z.' n.yXtX) $ I.zXI.*.*.&.&.4.*./ / ^ / } ] 1 y.].Z.C.C.].s.",
"v.[.C.'.[.[.[.j.j w 6.2.-.:.:.W Y #.:.;.:.$.U 0.G c %X&XXXoXwXwX<XH.H.' s.eXsX) - I.U.&.&.3.I.*.} / / / [ o.} / 7 y.[.[.Z.'.[.v.",
"v.'.'.C.C.[.h.g.j 4 >.2.1.W R U #.,.-.-.-.;.F 2.G a %XrXXXwXoXM.F.<XwXyXx.1XNX' - I.I.&.&.*.[ ^ ^ ^ / / / ^ } ^ < y.|.[.[.C.d.p.",
"g.d.h.h.h.h.g.j.j w T ;.,.9.2.0.e.q.e.q.e.w.2.bXU a &XsXgXgXrX2XiXsXgXhX@X;XMXr.7 I.R.Y.I...*.s.s...s..... .s.} u y.{.C.h.p.g.h.",
") n N N N v v v < & e w A W Y T T T Y U E G U 9.Z , a.a.b.n.n.M.F.n.c.n.u.l y.x 3 S D S l D S K K D z K D K K l - k n n n n n V ",
"3 - - - 7 7 - - 8 9 8 7 < + # = . . 2 2 > 2 2 < s y 1 < 2 : > - + 2 , 2 p d p 1 s u u u s d d 3 X 3 4 3 5 6 X = w 6 r q r r 8 6 ",
"3 ] ..[  . . .*. .} } ..L { / x = h c.m.m.m.m.x.b.b.N.z.z.z.W.J @ y.d.f.d.d.d.C.h.h.p.h.p.g.j.> Z -.W #.-.I I Y -.-.#.O.-.,.R w ",
"t c.U.4.4.U.I.&.I.I.I.*.=.zXc.~ = M F.cXcX0X7X7X6X7X6XcX3XQ.,XJ , ].nX#X#X#X#X#X#X$X$XOXC.C.j.7 U 9.<.7.T I -.I $.9.2.>.:.5.-.r ",
"t ..*.3.3.&.3.&.3.4.I.] U.3.I./ = l b.6X3X3X5X3X-X3X5X;X-XQ.Q.J , C.$X$XOXOXOX$XOXOX@XOXf.h.j.8 I 6.1.W $.;.O.Y A W 7.;.$.2.W q ",
"t &.4.&.&.3.I.&.[ } ] e.(.} (.} = g b.3X;X-X;X-X-X3X3X3X5X~.:XJ $ {.$X$XOXOXOX|.OXOXOXOXT.C.h.$ G 2.Y $.2.1.;.;.$.F Y 2.1.1.O.q ",
"8 ..3.I.I.[ P ! =.*.4.U.*.*._.| + j b.6X3X3X3X3X5X5X;X3X5X~.}.J $ [.$X$XOX+XOXOX+X#X+X|.h.h.h.7 F I W 1.;.;.:.;.1.2.A I 2.:.;.r ",
"7  .U.3.L { 4.4.(.U.3...&.*.).3.. h W.6X6X;X3X5X-X-X-X:X~.E.}.M # C.zX*XOXOXOXOXOX[.[.].C.h.h.7 4 #.2.;.;.:.:.-.;.:.9.A R 2.2.r ",
"7  .Y.! { (.I.&...*...3. .[ `.&.. f E.3X:XQ.~.~.~.E.!.W.W.E.}.S $ C.OX[.[.[.[.[.[.[.'.v.v.h.d.# F 6.,.$.:.;.;.:.:.;.2.#.Q 6.9.6 ",
"0 } ] { ).I.I.I.I.U.U.Y.(.(.cX| o h b.^.~.E.!.E.m.E.x.x.c.z.W.J 7 h.[.C.v.T.d.h.d.d.i.s.i.j.d.- G >.1.,.:.>.:.>.1.,.2.9.w.bXw.; ",
"0 g ] 3...+.+.+.I.I.I.Y.I.).4.D o P ,X}.,XQ.}.F.}.F.F.Q.}.}.|.S d %X*X{.D.{.D.D.j.A.D.D.D.J.i.= e 2.q.9.8.8.8.2.2.5.5.5.2.w.R ; ",
"3 7 h 9 y s y 9 0 8 8 7 < < < 7 & t B M g m m J J J J J D m l 6 7 v D v v v D D z z z D D v d 3 q r r C r r r r r r r q ; ; q 6 "
};
